<svg xmlns="http://www.w3.org/2000/svg" xmlns:xlink="http://www.w3.org/1999/xlink" contentStyleType="text/css" height="610px" preserveAspectRatio="none" style="width:516px;height:610px;background:#FFFFFF;" version="1.1" viewBox="0 0 516 610" width="516px" zoomAndPan="magnify"><defs><filter height="300%" id="f60dmu4lq3o5l" width="300%" x="-1" y="-1"><feGaussianBlur result="blurOut" stdDeviation="2"/><feColorMatrix in="blurOut" result="blurOut2" type="matrix" values="0 0 0 0 0 0 0 0 0 0 0 0 0 0 0 0 0 0 .4 0"/><feOffset dx="4" dy="4" in="blurOut2" result="blurOut3"/><feBlend in="SourceGraphic" in2="blurOut3" mode="normal"/></filter></defs><g><!--cluster Marketplace de Embalagens--><g id="cluster_Marketplace de Embalagens"><rect fill="none" filter="url(#f60dmu4lq3o5l)" height="591" rx="2.5" ry="2.5" style="stroke:#181818;stroke-width:1;" width="276" x="228" y="7"/><text fill="#000000" font-family="sans-serif" font-size="14" font-style="italic" lengthAdjust="spacing" textLength="67.8945" x="332.0527" y="21.9951">«system»</text><text fill="#000000" font-family="sans-serif" font-size="14" font-weight="bold" lengthAdjust="spacing" textLength="222.79" x="254.605" y="38.292">Marketplace de Embalagens</text></g><g id="elem_UCB01"><ellipse cx="366.2426" cy="78.9485" fill="#F1F1F1" filter="url(#f60dmu4lq3o5l)" rx="90.2426" ry="20.4485" style="stroke:#181818;stroke-width:0.5;"/><text fill="#000000" font-family="sans-serif" font-size="14" lengthAdjust="spacing" textLength="142.29" x="295.0976" y="81.7952">Busca por Categoria</text></g><g id="elem_UCB02"><ellipse cx="365.8068" cy="153.9614" fill="#F1F1F1" filter="url(#f60dmu4lq3o5l)" rx="85.3068" ry="19.4614" style="stroke:#181818;stroke-width:0.5;"/><text fill="#000000" font-family="sans-serif" font-size="14" lengthAdjust="spacing" textLength="131.0313" x="300.2912" y="156.808">Busca por Material</text></g><g id="elem_UCB03"><ellipse cx="365.8251" cy="235.765" fill="#F1F1F1" filter="url(#f60dmu4lq3o5l)" rx="121.8251" ry="26.765" style="stroke:#181818;stroke-width:0.5;"/><text fill="#000000" font-family="sans-serif" font-size="14" lengthAdjust="spacing" textLength="211.2441" x="260.2031" y="238.6117">Busca por Quantidade Mínima</text></g><g id="elem_UCB04"><ellipse cx="365.8612" cy="324.0722" fill="#F1F1F1" filter="url(#f60dmu4lq3o5l)" rx="118.3612" ry="26.0722" style="stroke:#181818;stroke-width:0.5;"/><text fill="#000000" font-family="sans-serif" font-size="14" lengthAdjust="spacing" textLength="203.8545" x="263.934" y="326.9189">Busca por Tempo de Entrega</text></g><g id="elem_UCB05"><ellipse cx="365.8456" cy="402.9691" fill="#F1F1F1" filter="url(#f60dmu4lq3o5l)" rx="77.8456" ry="17.9691" style="stroke:#181818;stroke-width:0.5;"/><text fill="#000000" font-family="sans-serif" font-size="14" lengthAdjust="spacing" textLength="113.2305" x="306.7147" y="406.5891">Busca por Preço</text></g><g id="elem_UCB06"><ellipse cx="365.9519" cy="479.9904" fill="#F1F1F1" filter="url(#f60dmu4lq3o5l)" rx="105.4519" ry="23.4904" style="stroke:#181818;stroke-width:0.5;"/><text fill="#000000" font-family="sans-serif" font-size="14" lengthAdjust="spacing" textLength="176.0049" x="277.9494" y="482.8371">Alerta de Disponibilidade</text></g><g id="elem_UCB07"><ellipse cx="365.937" cy="559.7874" fill="#F1F1F1" filter="url(#f60dmu4lq3o5l)" rx="94.437" ry="21.2874" style="stroke:#181818;stroke-width:0.5;"/><text fill="#000000" font-family="sans-serif" font-size="14" lengthAdjust="spacing" textLength="151.7168" x="290.0786" y="562.6341">Busca por Dimensões</text></g><!--entity bus--><g id="elem_bus"><ellipse cx="94.8706" cy="300.7969" fill="#F1F1F1" filter="url(#f60dmu4lq3o5l)" rx="8" ry="8" style="stroke:#181818;stroke-width:0.5;"/><path d="M94.8706,308.7969 L94.8706,335.7969 M81.8706,316.7969 L107.8706,316.7969 M94.8706,335.7969 L81.8706,350.7969 M94.8706,335.7969 L107.8706,350.7969 " fill="none" filter="url(#f60dmu4lq3o5l)" style="stroke:#181818;stroke-width:0.5;"/><text fill="#000000" font-family="sans-serif" font-size="14" lengthAdjust="spacing" textLength="177.7412" x="6" y="368.292">Buscador de Embalagens</text><text fill="#000000" font-family="sans-serif" font-size="14" font-style="italic" lengthAdjust="spacing" textLength="53.3682" x="68.1865" y="288.9951">«actor»</text></g><!--link bus to UCB01--><g id="link_bus_UCB01"><path d="M112.44,275.92 C131.13,228.47 166.22,157.35 220,117 C238.94,102.79 256.9119,95.3057 279.7219,89.7257 " fill="none" id="bus-to-UCB01" style="stroke:#181818;stroke-width:1;"/><polygon fill="#181818" points="285.55,88.3,275.8573,86.5532,280.6932,89.4881,277.7583,94.324,285.55,88.3" style="stroke:#181818;stroke-width:1;"/></g><!--link bus to UCB02--><g id="link_bus_UCB02"><path d="M129.61,275.9 C152.07,247.21 184.02,212.33 220,191 C241.9,178.02 262.4288,170.8782 286.6588,165.3782 " fill="none" id="bus-to-UCB02" style="stroke:#181818;stroke-width:1;"/><polygon fill="#181818" points="292.51,164.05,282.8478,162.1415,287.634,165.1568,284.6187,169.943,292.51,164.05" style="stroke:#181818;stroke-width:1;"/></g><!--link bus to UCB03--><g id="link_bus_UCB03"><path d="M184.23,292.13 C196.22,287.96 208.39,283.82 220,280 C243.24,272.36 262.9863,266.1951 286.0263,259.2351 " fill="none" id="bus-to-UCB03" style="stroke:#181818;stroke-width:1;"/><polygon fill="#181818" points="291.77,257.5,281.9978,256.2735,286.9836,258.9459,284.3112,263.9317,291.77,257.5" style="stroke:#181818;stroke-width:1;"/></g><!--link bus to UCB04--><g id="link_bus_UCB04"><path d="M184.08,324 C204.31,324 220.13,324 241.38,324 " fill="none" id="bus-to-UCB04" style="stroke:#181818;stroke-width:1;"/><polygon fill="#181818" points="247.38,324,238.38,320,242.38,324,238.38,328,247.38,324" style="stroke:#181818;stroke-width:1;"/></g><!--link bus to UCB05--><g id="link_bus_UCB05"><path d="M184.08,355.64 C196.1,359.63 208.31,363.53 220,367 C249.34,375.71 276.6024,382.6537 303.7624,389.1037 " fill="none" id="bus-to-UCB05" style="stroke:#181818;stroke-width:1;"/><polygon fill="#181818" points="309.6,390.49,301.7678,384.5187,304.7353,389.3347,299.9193,392.3023,309.6,390.49" style="stroke:#181818;stroke-width:1;"/></g><!--link bus to UCB06--><g id="link_bus_UCB06"><path d="M142.3844,376.3403 C164.7044,399.1703 189.55,420.86 220,438 C240.44,449.51 258.5346,456.4738 280.9446,462.7838 " fill="none" id="bus-UCB06" style="stroke:#181818;stroke-width:1;"/><polygon fill="#181818" points="138.19,372.05,141.6215,381.2817,141.6854,375.6252,147.3419,375.6891,138.19,372.05" style="stroke:#181818;stroke-width:1;"/><polygon fill="#181818" points="286.72,464.41,279.141,458.1204,281.9071,463.0548,276.9727,465.821,286.72,464.41" style="stroke:#181818;stroke-width:1;"/></g><!--link bus to UCB07--><g id="link_bus_UCB07"><path d="M114.2,372.26 C133.66,417.34 168.79,483.2 220,521 C238.56,534.7 255.8126,542.082 278.0326,547.852 " fill="none" id="bus-to-UCB07" style="stroke:#181818;stroke-width:1;"/><polygon fill="#181818" points="283.84,549.36,276.1343,543.2263,279.0005,548.1033,274.1236,550.9695,283.84,549.36" style="stroke:#181818;stroke-width:1;"/></g><!--SRC=[NP1DJiCm44RtFiMeArXKWlvkeaYqPHa993Z091dSKHqxiYT2274ULYmvGIw64q6Ak_pqtdpZiQ4N0N7WMHy5QlPK2JkhmebjYnuR24UitIjR3U8xKWehSHvckovK4NYe2UwR4Wrgic466A3i0cJPwEMvKaCbMcq8PWNw4qbhiABBkImBRq6eoNDuLm1NOp-qSS4UXRJpZDT3-VD-TtER2aKK8ZOJNwJyiKChN6FSMFHVbfjpqp8rdwXftVWoAvxqsLkbteEd_jDDT3tGEqDUS1W-S6YTvPBDk7JIDcd9WPjuUVzDOJAswaEfuVlcy_ptqlzfaQHbabP9Meyf-ukR16v_0000]--></g></svg>