<svg xmlns="http://www.w3.org/2000/svg" xmlns:xlink="http://www.w3.org/1999/xlink" contentStyleType="text/css" height="462px" preserveAspectRatio="none" style="width:678px;height:462px;background:#FFFFFF;" version="1.1" viewBox="0 0 678 462" width="678px" zoomAndPan="magnify"><defs><filter height="300%" id="fvhtvd3bfgs27" width="300%" x="-1" y="-1"><feGaussianBlur result="blurOut" stdDeviation="2"/><feColorMatrix in="blurOut" result="blurOut2" type="matrix" values="0 0 0 0 0 0 0 0 0 0 0 0 0 0 0 0 0 0 .4 0"/><feOffset dx="4" dy="4" in="blurOut2" result="blurOut3"/><feBlend in="SourceGraphic" in2="blurOut3" mode="normal"/></filter></defs><g><!--cluster Marketplace de Embalagens--><g id="cluster_Marketplace de Embalagens"><rect fill="none" filter="url(#fvhtvd3bfgs27)" height="443" rx="2.5" ry="2.5" style="stroke:#181818;stroke-width:1;" width="294" x="264" y="7"/><text fill="#000000" font-family="sans-serif" font-size="14" font-style="italic" lengthAdjust="spacing" textLength="67.8945" x="377.0527" y="21.9951">«system»</text><text fill="#000000" font-family="sans-serif" font-size="14" font-weight="bold" lengthAdjust="spacing" textLength="222.79" x="299.605" y="38.292">Marketplace de Embalagens</text></g><g id="elem_UC1"><ellipse cx="410.8437" cy="167.9687" fill="#F1F1F1" filter="url(#fvhtvd3bfgs27)" rx="82.8437" ry="18.9687" style="stroke:#181818;stroke-width:0.5;"/><text fill="#000000" font-family="sans-serif" font-size="14" lengthAdjust="spacing" textLength="125.3096" x="347.5426" y="171.0332">Gerencia carrinho</text></g><g id="elem_UC3"><ellipse cx="410.7596" cy="239.1519" fill="#F1F1F1" filter="url(#fvhtvd3bfgs27)" rx="73.7596" ry="17.1519" style="stroke:#181818;stroke-width:0.5;"/><text fill="#000000" font-family="sans-serif" font-size="14" lengthAdjust="spacing" textLength="102.8057" x="356.3568" y="242.8995">Realiza pedido</text></g><g id="elem_UC5"><ellipse cx="411.1004" cy="405.1201" fill="#F1F1F1" filter="url(#fvhtvd3bfgs27)" rx="131.1004" ry="28.6201" style="stroke:#181818;stroke-width:0.5;"/><text fill="#000000" font-family="sans-serif" font-size="14" lengthAdjust="spacing" textLength="230.8975" x="295.6517" y="407.9668">Gerencia cadastro de comprador</text></g><g id="elem_UC7"><ellipse cx="411.2057" cy="316.2411" fill="#F1F1F1" filter="url(#fvhtvd3bfgs27)" rx="114.2057" ry="25.2411" style="stroke:#181818;stroke-width:0.5;"/><text fill="#000000" font-family="sans-serif" font-size="14" lengthAdjust="spacing" textLength="194.9473" x="313.7321" y="319.0878">Acessa histórico de pedidos</text></g><g id="elem_UC8"><ellipse cx="410.8298" cy="85.766" fill="#F1F1F1" filter="url(#fvhtvd3bfgs27)" rx="124.3298" ry="27.266" style="stroke:#181818;stroke-width:0.5;"/><text fill="#000000" font-family="sans-serif" font-size="14" lengthAdjust="spacing" textLength="216.5693" x="302.5451" y="88.6126">Recebe sugestões de anúncios</text></g><!--entity c_user--><g id="elem_c_user"><ellipse cx="181.2041" cy="215.7969" fill="#F1F1F1" filter="url(#fvhtvd3bfgs27)" rx="8" ry="8" style="stroke:#181818;stroke-width:0.5;"/><path d="M181.2041,223.7969 L181.2041,250.7969 M168.2041,231.7969 L194.2041,231.7969 M181.2041,250.7969 L168.2041,265.7969 M181.2041,250.7969 L194.2041,265.7969 " fill="none" filter="url(#fvhtvd3bfgs27)" style="stroke:#181818;stroke-width:0.5;"/><text fill="#000000" font-family="sans-serif" font-size="14" lengthAdjust="spacing" textLength="78.4082" x="142" y="283.292">Comprador</text><text fill="#000000" font-family="sans-serif" font-size="14" font-style="italic" lengthAdjust="spacing" textLength="53.3682" x="154.52" y="203.9951">«actor»</text></g><!--entity aut--><g id="elem_aut"><ellipse cx="43.7651" cy="298.7969" fill="#F1F1F1" filter="url(#fvhtvd3bfgs27)" rx="8" ry="8" style="stroke:#181818;stroke-width:0.5;"/><path d="M43.7651,306.7969 L43.7651,333.7969 M30.7651,314.7969 L56.7651,314.7969 M43.7651,333.7969 L30.7651,348.7969 M43.7651,333.7969 L56.7651,348.7969 " fill="none" filter="url(#fvhtvd3bfgs27)" style="stroke:#181818;stroke-width:0.5;"/><text fill="#000000" font-family="sans-serif" font-size="14" lengthAdjust="spacing" textLength="75.5303" x="6" y="366.292">Autorizado</text><text fill="#000000" font-family="sans-serif" font-size="14" font-style="italic" lengthAdjust="spacing" textLength="53.3682" x="17.0811" y="286.9951">«actor»</text></g><g id="elem_GMN13"><path d="M602,226.5 L602,235 L485.04,239 L602,243 L602,251.6328 A0,0 0 0 0 602,251.6328 L671.9023,251.6328 A0,0 0 0 0 671.9023,251.6328 L671.9023,236.5 L661.9023,226.5 L602,226.5 A0,0 0 0 0 602,226.5 " fill="#FEFFDD" filter="url(#fvhtvd3bfgs27)" style="stroke:#181818;stroke-width:0.5;"/><path d="M661.9023,226.5 L661.9023,236.5 L671.9023,236.5 L661.9023,226.5 " fill="#FEFFDD" style="stroke:#181818;stroke-width:0.5;"/><text fill="#000000" font-family="sans-serif" font-size="13" lengthAdjust="spacing" textLength="48.9023" x="608" y="243.5669">UC-C03</text></g><!--reverse link aut to c_user--><g id="link_aut_c_user"><path d="M97.5827,289.6709 C116.1527,278.2509 123.25,273.89 141.94,262.4 " fill="none" id="aut-backto-c_user" style="stroke:#181818;stroke-width:1;"/><polygon fill="none" points="82.25,299.1,100.7257,294.7817,94.4396,284.56,82.25,299.1" style="stroke:#181818;stroke-width:1;"/></g><!--link c_user to UC1--><g id="link_c_user_UC1"><path d="M220.14,219.07 C231.47,213.67 244.06,208.17 256,204 C284.91,193.91 311.9817,187.0304 339.9517,181.0704 " fill="none" id="c_user-to-UC1" style="stroke:#181818;stroke-width:1;"/><polygon fill="#181818" points="345.82,179.82,336.184,177.7835,340.9298,180.862,337.8512,185.6078,345.82,179.82" style="stroke:#181818;stroke-width:1;"/></g><!--link c_user to UC3--><g id="link_c_user_UC3"><path d="M220.16,239 C251.85,239 291.86,239 330.64,239 " fill="none" id="c_user-to-UC3" style="stroke:#181818;stroke-width:1;"/><polygon fill="#181818" points="336.64,239,327.64,235,331.64,239,327.64,243,336.64,239" style="stroke:#181818;stroke-width:1;"/></g><!--link c_user to UC7--><g id="link_c_user_UC7"><path d="M220.3,258 C231.64,263.24 244.19,268.67 256,273 C281.15,282.22 303.4304,289.0252 328.6504,295.8852 " fill="none" id="c_user-to-UC7" style="stroke:#181818;stroke-width:1;"/><polygon fill="#181818" points="334.44,297.46,326.8054,291.238,329.6153,296.1477,324.7057,298.9575,334.44,297.46" style="stroke:#181818;stroke-width:1;"/></g><!--reverse link c_user to UC8--><g id="link_c_user_UC8"><path d="M208.4014,185.588 C220.7914,164.518 234.84,146.34 256,131 C273.03,118.66 293.41,109.68 313.68,103.16 " fill="none" id="c_user-backto-UC8" style="stroke:#181818;stroke-width:1;"/><polygon fill="#181818" points="205.36,190.76,213.3701,185.0295,207.8945,186.45,206.474,180.9743,205.36,190.76" style="stroke:#181818;stroke-width:1;"/></g><!--link aut to UC5--><g id="link_aut_UC5"><path d="M82.01,330.42 C137.28,342.99 237.2494,365.7196 313.7694,383.1196 " fill="none" id="aut-to-UC5" style="stroke:#181818;stroke-width:1;"/><polygon fill="#181818" points="319.62,384.45,311.731,378.554,314.7445,383.3413,309.9571,386.3548,319.62,384.45" style="stroke:#181818;stroke-width:1;"/></g><!--SRC=[NP7FQiCm3CRlUWhHqtO8R9JI4KgWXB7JBeETX-geYMbY1ybXxDzJZLrsxOlDJjAnxY8ZwoTzd-MMzm63Hx5r4x2omYPOxq0FrlKarA4sLFbdwseCCZ10NlgkbtWdEPAYUHgK1JSRCi5BKS1uudQ8qRv6B44qX3y4ZEbxbitD091aoTKju-AUvC2XRyamLeottOvQgjdf8exG5mtS5GM-0UB57GixOmaDYLZN-CiazbXUOwe-CBNH0VPSsUfKMkA_neeqY4zAvlIk6LsDwDQmAc5ZDHm_nPeHdKRg3AvdESCxHXrgZkWNQmB97R-Zq2zwW_01CEyioufazZnTWlE1v__m-z5o7cDMNaNlP-Zwb6xYAkFiQR5JRVK3]--></g></svg>