<svg xmlns="http://www.w3.org/2000/svg" xmlns:xlink="http://www.w3.org/1999/xlink" contentStyleType="text/css" height="632px" preserveAspectRatio="none" style="width:451px;height:632px;background:#FFFFFF;" version="1.1" viewBox="0 0 451 632" width="451px" zoomAndPan="magnify"><defs><filter height="300%" id="f1coyfilg1gq4z" width="300%" x="-1" y="-1"><feGaussianBlur result="blurOut" stdDeviation="2"/><feColorMatrix in="blurOut" result="blurOut2" type="matrix" values="0 0 0 0 0 0 0 0 0 0 0 0 0 0 0 0 0 0 .4 0"/><feOffset dx="4" dy="4" in="blurOut2" result="blurOut3"/><feBlend in="SourceGraphic" in2="blurOut3" mode="normal"/></filter></defs><g><!--cluster Marketplace de Embalagens--><g id="cluster_Marketplace de Embalagens"><rect fill="none" filter="url(#f1coyfilg1gq4z)" height="613" rx="2.5" ry="2.5" style="stroke:#181818;stroke-width:1;" width="303" x="136" y="7"/><text fill="#000000" font-family="sans-serif" font-size="14" font-style="italic" lengthAdjust="spacing" textLength="67.8945" x="253.5527" y="21.9951">«system»</text><text fill="#000000" font-family="sans-serif" font-size="14" font-weight="bold" lengthAdjust="spacing" textLength="222.79" x="176.105" y="38.292">Marketplace de Embalagens</text></g><g id="elem_UCDE01"><ellipse cx="287.5489" cy="83.2098" fill="#F1F1F1" filter="url(#f1coyfilg1gq4z)" rx="111.5489" ry="24.7098" style="stroke:#181818;stroke-width:0.5;"/><text fill="#000000" font-family="sans-serif" font-size="14" lengthAdjust="spacing" textLength="189.2256" x="192.9361" y="86.0565">Notifica o Status do Pedido</text></g><g id="elem_UCDE02"><ellipse cx="287.546" cy="160.8092" fill="#F1F1F1" filter="url(#f1coyfilg1gq4z)" rx="79.546" ry="18.3092" style="stroke:#181818;stroke-width:0.5;"/><text fill="#000000" font-family="sans-serif" font-size="14" lengthAdjust="spacing" textLength="117.4209" x="226.9962" y="164.2402">Rastreia Entrega</text></g><g id="elem_UCDE03"><ellipse cx="287.7339" cy="240.0468" fill="#F1F1F1" filter="url(#f1coyfilg1gq4z)" rx="115.7339" ry="25.5468" style="stroke:#181818;stroke-width:0.5;"/><text fill="#000000" font-family="sans-serif" font-size="14" lengthAdjust="spacing" textLength="198.2285" x="188.6196" y="242.8935">Agenda dia de Recebimento</text></g><g id="elem_UCDE04"><ellipse cx="287.3901" cy="324.778" fill="#F1F1F1" filter="url(#f1coyfilg1gq4z)" rx="106.8901" ry="23.778" style="stroke:#181818;stroke-width:0.5;"/><text fill="#000000" font-family="sans-serif" font-size="14" lengthAdjust="spacing" textLength="179.1357" x="197.8222" y="327.6247">Recebe NF e documentos</text></g><g id="elem_UCDE05"><ellipse cx="287.7337" cy="414.0467" fill="#F1F1F1" filter="url(#f1coyfilg1gq4z)" rx="135.7337" ry="29.5467" style="stroke:#181818;stroke-width:0.5;"/><text fill="#000000" font-family="sans-serif" font-size="14" lengthAdjust="spacing" textLength="240.6523" x="167.4075" y="416.8934">Avalia Transportadora e Vendedor</text></g><g id="elem_UCDE06"><ellipse cx="287.3731" cy="506.0746" fill="#F1F1F1" filter="url(#f1coyfilg1gq4z)" rx="125.8731" ry="27.5746" style="stroke:#181818;stroke-width:0.5;"/><text fill="#000000" font-family="sans-serif" font-size="14" lengthAdjust="spacing" textLength="219.8438" x="177.4513" y="508.9213">Avalia Conformidade do Pedido</text></g><g id="elem_UCDE07"><ellipse cx="287.2682" cy="585.9536" fill="#F1F1F1" filter="url(#f1coyfilg1gq4z)" rx="75.2682" ry="17.4536" style="stroke:#181818;stroke-width:0.5;"/><text fill="#000000" font-family="sans-serif" font-size="14" lengthAdjust="spacing" textLength="106.7021" x="230.9172" y="589.7012">Aciona Suporte</text></g><!--entity d--><g id="elem_d"><ellipse cx="48.8989" cy="301.7969" fill="#F1F1F1" filter="url(#f1coyfilg1gq4z)" rx="8" ry="8" style="stroke:#181818;stroke-width:0.5;"/><path d="M48.8989,309.7969 L48.8989,336.7969 M35.8989,317.7969 L61.8989,317.7969 M48.8989,336.7969 L35.8989,351.7969 M48.8989,336.7969 L61.8989,351.7969 " fill="none" filter="url(#f1coyfilg1gq4z)" style="stroke:#181818;stroke-width:0.5;"/><text fill="#000000" font-family="sans-serif" font-size="14" lengthAdjust="spacing" textLength="85.7979" x="6" y="369.292">Destinatário</text><text fill="#000000" font-family="sans-serif" font-size="14" font-style="italic" lengthAdjust="spacing" textLength="53.3682" x="22.2148" y="289.9951">«actor»</text></g><!--reverse link d to UCDE01--><g id="link_d_UCDE01"><path d="M57.3221,270.8602 C65.7521,225.3202 84.08,164.22 128,125 C144.67,110.11 166.02,100.41 187.61,94.11 " fill="none" id="d-backto-UCDE01" style="stroke:#181818;stroke-width:1;"/><polygon fill="#181818" points="56.23,276.76,61.8014,268.6384,57.1401,271.8435,53.935,267.1823,56.23,276.76" style="stroke:#181818;stroke-width:1;"/></g><!--link d to UCDE02--><g id="link_d_UCDE02"><path d="M68.13,276.85 C80.85,249.45 100.53,216.75 128,197 C151.83,179.87 176.5375,171.731 204.5075,166.901 " fill="none" id="d-to-UCDE02" style="stroke:#181818;stroke-width:1;"/><polygon fill="#181818" points="210.42,165.88,200.8706,163.4698,205.4929,166.7308,202.2319,171.3532,210.42,165.88" style="stroke:#181818;stroke-width:1;"/></g><!--link d to UCDE03--><g id="link_d_UCDE03"><path d="M92.07,300.08 C103.48,293.95 116,287.79 128,283 C152.63,273.18 174.4793,266.3535 199.7093,259.6835 " fill="none" id="d-to-UCDE03" style="stroke:#181818;stroke-width:1;"/><polygon fill="#181818" points="205.51,258.15,195.7866,256.5831,200.6761,259.4279,197.8313,264.3174,205.51,258.15" style="stroke:#181818;stroke-width:1;"/></g><!--reverse link d to UCDE04--><g id="link_d_UCDE04"><path d="M98.01,325 C122.7,325 149.12,325 180.39,325 " fill="none" id="d-backto-UCDE04" style="stroke:#181818;stroke-width:1;"/><polygon fill="#181818" points="92.01,325,101.01,329,97.01,325,101.01,321,92.01,325" style="stroke:#181818;stroke-width:1;"/></g><!--link d to UCDE05--><g id="link_d_UCDE05"><path d="M92.21,349.05 C103.62,355.04 116.11,361.13 128,366 C151.14,375.49 171.1154,382.338 194.9954,389.538 " fill="none" id="d-to-UCDE05" style="stroke:#181818;stroke-width:1;"/><polygon fill="#181818" points="200.74,391.27,193.2778,384.8422,195.9529,389.8266,190.9685,392.5017,200.74,391.27" style="stroke:#181818;stroke-width:1;"/></g><!--link d to UCDE06--><g id="link_d_UCDE06"><path d="M66.82,373.25 C79.39,402.6 99.37,438.63 128,461 C144.68,474.03 159.2497,481.4481 179.6497,488.0281 " fill="none" id="d-to-UCDE06" style="stroke:#181818;stroke-width:1;"/><polygon fill="#181818" points="185.36,489.87,178.0224,483.3004,180.6014,488.3351,175.5666,490.9141,185.36,489.87" style="stroke:#181818;stroke-width:1;"/></g><!--link d to UCDE07--><g id="link_d_UCDE07"><path d="M53.18,373.1 C59.25,424.72 76.87,505.44 128,551 C150.83,571.34 176.8371,579.9045 206.0671,583.9645 " fill="none" id="d-to-UCDE07" style="stroke:#181818;stroke-width:1;"/><polygon fill="#181818" points="212.01,584.79,203.6459,579.5898,207.0575,584.1021,202.5453,587.5138,212.01,584.79" style="stroke:#181818;stroke-width:1;"/></g><!--SRC=[RP3FJiCm3CRlUGgh9pXK0lRlCbMQjd5ZGXjmznAtizOcK-A24E9XU1PUZAJIr1mu9TRt-MT_RgaM40UUcvE0OKzQs5aLpcmlwB63S4BZFjWs8BudfL2Byr1iA0XRbDyVpwu0361WkHp4gb8gST0sBK7nXFvCScbH4nY2RNV45XkoeOWDuJC8TLK5NmhWPkU4QzO83Ww2qaUeWsSoRDnj6l6wtcplxfDpZq4yCSBMnhV1KNv8yYho3SOyc4RkITEHExAIOIO39Ya4kqU8kpdT3vumcgO3x1tR27hnQCF5UOdty1WRtk8CYl_HFiliQsThvpisQEY_6FF1g-En4Gvzuj8eBjItKl6WPNdDRA0igsl2h9ZajcckpF9YdXUBFm00]--></g></svg>