<svg xmlns="http://www.w3.org/2000/svg" xmlns:xlink="http://www.w3.org/1999/xlink" contentStyleType="text/css" height="608px" preserveAspectRatio="none" style="width:620px;height:608px;background:#FFFFFF;" version="1.1" viewBox="0 0 620 608" width="620px" zoomAndPan="magnify"><defs><filter height="300%" id="f129cxy9mydo5s" width="300%" x="-1" y="-1"><feGaussianBlur result="blurOut" stdDeviation="2"/><feColorMatrix in="blurOut" result="blurOut2" type="matrix" values="0 0 0 0 0 0 0 0 0 0 0 0 0 0 0 0 0 0 .4 0"/><feOffset dx="4" dy="4" in="blurOut2" result="blurOut3"/><feBlend in="SourceGraphic" in2="blurOut3" mode="normal"/></filter></defs><g><!--cluster Marketplace de Embalagens--><g id="cluster_Marketplace de Embalagens"><rect fill="none" filter="url(#f129cxy9mydo5s)" height="589" rx="2.5" ry="2.5" style="stroke:#181818;stroke-width:1;" width="354" x="254" y="7"/><text fill="#000000" font-family="sans-serif" font-size="14" font-style="italic" lengthAdjust="spacing" textLength="67.8945" x="397.0527" y="21.9951">«system»</text><text fill="#000000" font-family="sans-serif" font-size="14" font-weight="bold" lengthAdjust="spacing" textLength="222.79" x="319.605" y="38.292">Marketplace de Embalagens</text></g><g id="elem_UCV02"><ellipse cx="431.1467" cy="189.1293" fill="#F1F1F1" filter="url(#f129cxy9mydo5s)" rx="161.1467" ry="34.6293" style="stroke:#181818;stroke-width:0.5;"/><text fill="#000000" font-family="sans-serif" font-size="14" lengthAdjust="spacing" textLength="293.6172" x="284.3381" y="191.976">Gerencia Conta Bancária de Recebimento</text></g><g id="elem_UCV03"><ellipse cx="431.1555" cy="285.1311" fill="#F1F1F1" filter="url(#f129cxy9mydo5s)" rx="118.6555" ry="26.1311" style="stroke:#181818;stroke-width:0.5;"/><text fill="#000000" font-family="sans-serif" font-size="14" lengthAdjust="spacing" textLength="204.4834" x="328.9138" y="287.9778">Gerencia Endereço de Coleta</text></g><g id="elem_UCV04"><ellipse cx="431.0327" cy="552.0065" fill="#F1F1F1" filter="url(#f129cxy9mydo5s)" rx="128.0327" ry="28.0065" style="stroke:#181818;stroke-width:0.5;"/><text fill="#000000" font-family="sans-serif" font-size="14" lengthAdjust="spacing" textLength="224.417" x="318.8242" y="554.8532">Gerencia Cadastro de Vendedor</text></g><g id="elem_UCV05"><ellipse cx="431.139" cy="371.2278" fill="#F1F1F1" filter="url(#f129cxy9mydo5s)" rx="114.139" ry="25.2278" style="stroke:#181818;stroke-width:0.5;"/><text fill="#000000" font-family="sans-serif" font-size="14" lengthAdjust="spacing" textLength="194.8037" x="333.7371" y="374.0745">Acessa Relatório de Vendas</text></g><g id="elem_UCV06"><ellipse cx="430.9946" cy="459.9989" fill="#F1F1F1" filter="url(#f129cxy9mydo5s)" rx="130.4946" ry="28.4989" style="stroke:#181818;stroke-width:0.5;"/><text fill="#000000" font-family="sans-serif" font-size="14" lengthAdjust="spacing" textLength="229.6191" x="316.185" y="462.8456">Oferece descontos promocionais</text></g><g id="elem_UCV07"><ellipse cx="430.769" cy="89.0538" fill="#F1F1F1" filter="url(#f129cxy9mydo5s)" rx="140.769" ry="30.5538" style="stroke:#181818;stroke-width:0.5;"/><text fill="#000000" font-family="sans-serif" font-size="14" lengthAdjust="spacing" textLength="251.2139" x="305.1621" y="91.9005">Responde Dúvidas de Compradores</text></g><!--entity adm--><g id="elem_adm"><ellipse cx="175.8857" cy="304.7969" fill="#F1F1F1" filter="url(#f129cxy9mydo5s)" rx="8" ry="8" style="stroke:#181818;stroke-width:0.5;"/><path d="M175.8857,312.7969 L175.8857,339.7969 M162.8857,320.7969 L188.8857,320.7969 M175.8857,339.7969 L162.8857,354.7969 M175.8857,339.7969 L188.8857,354.7969 " fill="none" filter="url(#f129cxy9mydo5s)" style="stroke:#181818;stroke-width:0.5;"/><text fill="#000000" font-family="sans-serif" font-size="14" lengthAdjust="spacing" textLength="67.7715" x="142" y="372.292">Vendedor</text><text fill="#000000" font-family="sans-serif" font-size="14" font-style="italic" lengthAdjust="spacing" textLength="53.3682" x="149.2017" y="292.9951">«actor»</text></g><!--entity aut--><g id="elem_aut"><ellipse cx="43.7651" cy="395.7969" fill="#F1F1F1" filter="url(#f129cxy9mydo5s)" rx="8" ry="8" style="stroke:#181818;stroke-width:0.5;"/><path d="M43.7651,403.7969 L43.7651,430.7969 M30.7651,411.7969 L56.7651,411.7969 M43.7651,430.7969 L30.7651,445.7969 M43.7651,430.7969 L56.7651,445.7969 " fill="none" filter="url(#f129cxy9mydo5s)" style="stroke:#181818;stroke-width:0.5;"/><text fill="#000000" font-family="sans-serif" font-size="14" lengthAdjust="spacing" textLength="75.5303" x="6" y="463.292">Autorizado</text><text fill="#000000" font-family="sans-serif" font-size="14" font-style="italic" lengthAdjust="spacing" textLength="53.3682" x="17.0811" y="383.9951">«actor»</text></g><!--reverse link aut to adm--><g id="link_aut_adm"><path d="M96.9969,382.5987 C115.7569,369.4687 123.56,364.01 141.73,351.29 " fill="none" id="aut-backto-adm" style="stroke:#181818;stroke-width:1;"/><polygon fill="none" points="82.25,392.92,100.4373,387.5144,93.5565,377.6831,82.25,392.92" style="stroke:#181818;stroke-width:1;"/></g><!--link aut to UCV04--><g id="link_aut_UCV04"><path d="M82.07,437.23 C121.86,456.28 187.3,486.11 246,506 C275.94,516.15 303.4697,523.7332 333.4697,531.0232 " fill="none" id="aut-to-UCV04" style="stroke:#181818;stroke-width:1;"/><polygon fill="#181818" points="339.3,532.44,331.499,526.428,334.4414,531.2594,329.61,534.2017,339.3,532.44" style="stroke:#181818;stroke-width:1;"/></g><!--link adm to UCV02--><g id="link_adm_UCV02"><path d="M206.81,279.65 C217.61,265.45 230.92,251.05 246,241 C264.92,228.39 281.1922,220.6803 303.2222,213.4103 " fill="none" id="adm-to-UCV02" style="stroke:#181818;stroke-width:1;"/><polygon fill="#181818" points="308.92,211.53,299.1198,210.5519,304.1719,213.0969,301.6269,218.1489,308.92,211.53" style="stroke:#181818;stroke-width:1;"/></g><!--link adm to UCV03--><g id="link_adm_UCV03"><path d="M210.08,322.38 C242.15,316.93 286.4249,309.4059 330.7649,301.8659 " fill="none" id="adm-to-UCV03" style="stroke:#181818;stroke-width:1;"/><polygon fill="#181818" points="336.68,300.86,327.1368,298.4254,331.7508,301.6982,328.4779,306.3122,336.68,300.86" style="stroke:#181818;stroke-width:1;"/></g><!--link adm to UCV05--><g id="link_adm_UCV05"><path d="M210.08,333.62 C243.03,339.22 289.1648,347.0649 334.3648,354.7449 " fill="none" id="adm-to-UCV05" style="stroke:#181818;stroke-width:1;"/><polygon fill="#181818" points="340.28,355.75,332.0772,350.2989,335.3506,354.9124,330.7371,358.1859,340.28,355.75" style="stroke:#181818;stroke-width:1;"/></g><!--link adm to UCV06--><g id="link_adm_UCV06"><path d="M207.54,376.35 C218.22,389.94 231.27,403.57 246,413 C268.63,427.49 289.7006,435.9813 315.8206,442.9113 " fill="none" id="adm-to-UCV06" style="stroke:#181818;stroke-width:1;"/><polygon fill="#181818" points="321.62,444.45,313.9467,438.2758,316.7872,443.1678,311.8952,446.0083,321.62,444.45" style="stroke:#181818;stroke-width:1;"/></g><!--link adm to UCV07--><g id="link_adm_UCV07"><path d="M181.83,279.89 C188.74,236.49 205.5,173.95 246,137 C263.07,121.42 278.856,112.6411 301.076,105.3911 " fill="none" id="adm-to-UCV07" style="stroke:#181818;stroke-width:1;"/><polygon fill="#181818" points="306.78,103.53,296.9832,102.519,302.0266,105.0809,299.4647,110.1244,306.78,103.53" style="stroke:#181818;stroke-width:1;"/></g><!--SRC=[LP6_RW8n3CRtF8LrKpkSL4611Pr4AUfKLK8gkycP8-AId1pJglyUfbCVe5lNUx4cK8xU57tAp_u-spLj1CG3csehK1ecBSOx5NR6DSXe8MonzC_6LI2y9wLGYsV8LkHAAZrdW06mj32T7dwAuaJCzl4nhx7woEpb7wEI4Rgg9iZkaNSaJOsQe2HOs3NMM94BMIm8Bq785WMyAO2BEs9osY3ClHE46tIw_UIeOzsIDAsD9IV-CXa-pbTNWrxH8aPcQhzymkU-9i6E7FRROub1-02U9ktGwuJED8M0qRH6QR_PT2Y63Xmby64Jcnuc2pg6zW4QzjRhk6KqPtQSs2M5naStk6r_daniTGng6uvRP3hJ4_KHBv4s-fxdQVtgAFEy-8keqarESj1JmvuQzTIufoQ_]--></g></svg>