<svg xmlns="http://www.w3.org/2000/svg" xmlns:xlink="http://www.w3.org/1999/xlink" contentStyleType="text/css" height="309px" preserveAspectRatio="none" style="width:921px;height:309px;background:#FFFFFF;" version="1.1" viewBox="0 0 921 309" width="921px" zoomAndPan="magnify"><defs><filter height="300%" id="flaowu56acs5s" width="300%" x="-1" y="-1"><feGaussianBlur result="blurOut" stdDeviation="2"/><feColorMatrix in="blurOut" result="blurOut2" type="matrix" values="0 0 0 0 0 0 0 0 0 0 0 0 0 0 0 0 0 0 .4 0"/><feOffset dx="4" dy="4" in="blurOut2" result="blurOut3"/><feBlend in="SourceGraphic" in2="blurOut3" mode="normal"/></filter></defs><g><!--entity adm--><g id="elem_adm"><ellipse cx="97.0239" cy="125" fill="#F1F1F1" filter="url(#flaowu56acs5s)" rx="8" ry="8" style="stroke:#181818;stroke-width:0.5;"/><path d="M97.0239,133 L97.0239,160 M84.0239,141 L110.0239,141 M97.0239,160 L84.0239,175 M97.0239,160 L110.0239,175 " fill="none" filter="url(#flaowu56acs5s)" style="stroke:#181818;stroke-width:0.5;"/><text fill="#000000" font-family="sans-serif" font-size="14" lengthAdjust="spacing" textLength="182.0479" x="6" y="192.4951">Administrador de Estoque</text></g><!--entity AnaliseProdutosView--><g id="elem_AnaliseProdutosView"><path d="M326.0591,11 L326.0591,35 M326.0591,23 L343.0591,23 " fill="none" filter="url(#flaowu56acs5s)" style="stroke:#181818;stroke-width:0.5;"/><ellipse cx="355.0591" cy="23" fill="#F1F1F1" filter="url(#flaowu56acs5s)" rx="12" ry="12" style="stroke:#181818;stroke-width:0.5;"/><text fill="#000000" font-family="sans-serif" font-size="14" lengthAdjust="spacing" textLength="146.1182" x="273.5" y="51.9951">AnaliseProdutosView</text></g><!--entity MonitoramentoEstoqueView--><g id="elem_MonitoramentoEstoqueView"><path d="M326.0366,260 L326.0366,284 M326.0366,272 L343.0366,272 " fill="none" filter="url(#flaowu56acs5s)" style="stroke:#181818;stroke-width:0.5;"/><ellipse cx="355.0366" cy="272" fill="#F1F1F1" filter="url(#flaowu56acs5s)" rx="12" ry="12" style="stroke:#181818;stroke-width:0.5;"/><text fill="#000000" font-family="sans-serif" font-size="14" lengthAdjust="spacing" textLength="197.0732" x="248" y="300.9951">MonitoramentoEstoqueView</text></g><!--entity MonitoramentoVendasView--><g id="elem_MonitoramentoVendasView"><path d="M326.1646,94 L326.1646,118 M326.1646,106 L343.1646,106 " fill="none" filter="url(#flaowu56acs5s)" style="stroke:#181818;stroke-width:0.5;"/><ellipse cx="355.1646" cy="106" fill="#F1F1F1" filter="url(#flaowu56acs5s)" rx="12" ry="12" style="stroke:#181818;stroke-width:0.5;"/><text fill="#000000" font-family="sans-serif" font-size="14" lengthAdjust="spacing" textLength="192.3291" x="250.5" y="134.9951">MonitoramentoVendasView</text></g><!--entity AlertaEstoqueMinimoView--><g id="elem_AlertaEstoqueMinimoView"><path d="M325.9683,177 L325.9683,201 M325.9683,189 L342.9683,189 " fill="none" filter="url(#flaowu56acs5s)" style="stroke:#181818;stroke-width:0.5;"/><ellipse cx="354.9683" cy="189" fill="#F1F1F1" filter="url(#flaowu56acs5s)" rx="12" ry="12" style="stroke:#181818;stroke-width:0.5;"/><text fill="#000000" font-family="sans-serif" font-size="14" lengthAdjust="spacing" textLength="182.9365" x="255" y="217.9951">AlertaEstoqueMinimoView</text></g><!--entity AnaliseProdutosController--><g id="elem_AnaliseProdutosController"><ellipse cx="621.3804" cy="23" fill="#F1F1F1" filter="url(#flaowu56acs5s)" rx="12" ry="12" style="stroke:#181818;stroke-width:0.5;"/><polygon fill="#181818" points="617.3804,11,623.3804,6,621.3804,11,623.3804,16,617.3804,11" style="stroke:#181818;stroke-width:1;"/><text fill="#000000" font-family="sans-serif" font-size="14" lengthAdjust="spacing" textLength="181.7607" x="530.5" y="51.9951">AnaliseProdutosController</text></g><!--entity MonitoramentoEstoqueController--><g id="elem_MonitoramentoEstoqueController"><ellipse cx="621.3579" cy="272" fill="#F1F1F1" filter="url(#flaowu56acs5s)" rx="12" ry="12" style="stroke:#181818;stroke-width:0.5;"/><polygon fill="#181818" points="617.3579,260,623.3579,255,621.3579,260,623.3579,265,617.3579,260" style="stroke:#181818;stroke-width:1;"/><text fill="#000000" font-family="sans-serif" font-size="14" lengthAdjust="spacing" textLength="232.7158" x="505" y="300.9951">MonitoramentoEstoqueController</text></g><!--entity MonitoramentoVendasController--><g id="elem_MonitoramentoVendasController"><ellipse cx="621.4858" cy="106" fill="#F1F1F1" filter="url(#flaowu56acs5s)" rx="12" ry="12" style="stroke:#181818;stroke-width:0.5;"/><polygon fill="#181818" points="617.4858,94,623.4858,89,621.4858,94,623.4858,99,617.4858,94" style="stroke:#181818;stroke-width:1;"/><text fill="#000000" font-family="sans-serif" font-size="14" lengthAdjust="spacing" textLength="227.9717" x="507.5" y="134.9951">MonitoramentoVendasController</text></g><!--entity AlertaEstoqueMinimoController--><g id="elem_AlertaEstoqueMinimoController"><ellipse cx="621.2896" cy="189" fill="#F1F1F1" filter="url(#flaowu56acs5s)" rx="12" ry="12" style="stroke:#181818;stroke-width:0.5;"/><polygon fill="#181818" points="617.2896,177,623.2896,172,621.2896,177,623.2896,182,617.2896,177" style="stroke:#181818;stroke-width:1;"/><text fill="#000000" font-family="sans-serif" font-size="14" lengthAdjust="spacing" textLength="218.5791" x="512" y="217.9951">AlertaEstoqueMinimoController</text></g><!--entity Estoque--><g id="elem_Estoque"><ellipse cx="855.7837" cy="210" fill="#F1F1F1" filter="url(#flaowu56acs5s)" rx="12" ry="12" style="stroke:#181818;stroke-width:0.5;"/><line style="stroke:#181818;stroke-width:0.5;" x1="843.7837" x2="867.7837" y1="224" y2="224"/><text fill="#000000" font-family="sans-serif" font-size="14" lengthAdjust="spacing" textLength="56.5674" x="827.5" y="238.9951">Estoque</text></g><!--entity HistoricoPedidos--><g id="elem_HistoricoPedidos"><ellipse cx="856.126" cy="86" fill="#F1F1F1" filter="url(#flaowu56acs5s)" rx="12" ry="12" style="stroke:#181818;stroke-width:0.5;"/><line style="stroke:#181818;stroke-width:0.5;" x1="844.126" x2="868.126" y1="100" y2="100"/><text fill="#000000" font-family="sans-serif" font-size="14" lengthAdjust="spacing" textLength="116.252" x="798" y="114.9951">HistoricoPedidos</text></g><!--link adm to AnaliseProdutosView--><g id="link_adm_AnaliseProdutosView"><path d="M165.09,116.31 C190.7,101.72 220.38,85.49 248,72 C259.88,66.2 267.2747,62.7824 279.6947,57.4624 " fill="none" id="adm-to-AnaliseProdutosView" style="stroke:#181818;stroke-width:1;"/><polygon fill="#181818" points="285.21,55.1,275.362,54.9668,280.6139,57.0687,278.512,62.3206,285.21,55.1" style="stroke:#181818;stroke-width:1;"/></g><!--link adm to MonitoramentoEstoqueView--><g id="link_adm_MonitoramentoEstoqueView"><path d="M167.12,195.54 C192.31,209.49 221.19,224.93 248,238 C260.51,244.1 268.6193,247.8538 281.5893,253.5038 " fill="none" id="adm-to-MonitoramentoEstoqueView" style="stroke:#181818;stroke-width:1;"/><polygon fill="#181818" points="287.09,255.9,280.4364,248.6385,282.5061,253.9031,277.2414,255.9728,287.09,255.9" style="stroke:#181818;stroke-width:1;"/></g><!--link adm to MonitoramentoVendasView--><g id="link_adm_MonitoramentoVendasView"><path d="M188.05,140.72 C208.23,137.29 223.7946,134.6543 244.1746,131.1943 " fill="none" id="adm-to-MonitoramentoVendasView" style="stroke:#181818;stroke-width:1;"/><polygon fill="#181818" points="250.09,130.19,240.5474,127.7528,245.1605,131.0269,241.8865,135.64,250.09,130.19" style="stroke:#181818;stroke-width:1;"/></g><!--link adm to AlertaEstoqueMinimoView--><g id="link_adm_AlertaEstoqueMinimoView"><path d="M188.05,170.92 C209.75,174.51 227.0307,177.3793 248.7607,180.9793 " fill="none" id="adm-to-AlertaEstoqueMinimoView" style="stroke:#181818;stroke-width:1;"/><polygon fill="#181818" points="254.68,181.96,246.4548,176.5428,249.7472,181.1428,245.1473,184.4352,254.68,181.96" style="stroke:#181818;stroke-width:1;"/></g><!--link AnaliseProdutosView to AnaliseProdutosController--><g id="link_AnaliseProdutosView_AnaliseProdutosController"><path d="M419.58,31 C453.55,31 488.42,31 524.4,31 " fill="none" id="AnaliseProdutosView-to-AnaliseProdutosController" style="stroke:#181818;stroke-width:1;"/><polygon fill="#181818" points="530.4,31,521.4,27,525.4,31,521.4,35,530.4,31" style="stroke:#181818;stroke-width:1;"/></g><!--link MonitoramentoEstoqueView to MonitoramentoEstoqueController--><g id="link_MonitoramentoEstoqueView_MonitoramentoEstoqueController"><path d="M445.29,280 C464.57,280 478.97,280 498.77,280 " fill="none" id="MonitoramentoEstoqueView-to-MonitoramentoEstoqueController" style="stroke:#181818;stroke-width:1;"/><polygon fill="#181818" points="504.77,280,495.77,276,499.77,280,495.77,284,504.77,280" style="stroke:#181818;stroke-width:1;"/></g><!--link MonitoramentoVendasView to MonitoramentoVendasController--><g id="link_MonitoramentoVendasView_MonitoramentoVendasController"><path d="M442.6,114 C463.53,114 479.89,114 501.45,114 " fill="none" id="MonitoramentoVendasView-to-MonitoramentoVendasController" style="stroke:#181818;stroke-width:1;"/><polygon fill="#181818" points="507.45,114,498.45,110,502.45,114,498.45,118,507.45,114" style="stroke:#181818;stroke-width:1;"/></g><!--link AlertaEstoqueMinimoView to AlertaEstoqueMinimoController--><g id="link_AlertaEstoqueMinimoView_AlertaEstoqueMinimoController"><path d="M438.03,197 C461.62,197 481.28,197 505.71,197 " fill="none" id="AlertaEstoqueMinimoView-to-AlertaEstoqueMinimoController" style="stroke:#181818;stroke-width:1;"/><polygon fill="#181818" points="511.71,197,502.71,193,506.71,197,502.71,201,511.71,197" style="stroke:#181818;stroke-width:1;"/></g><!--link AnaliseProdutosController to HistoricoPedidos--><g id="link_AnaliseProdutosController_HistoricoPedidos"><path d="M711.39,55.09 C740.37,62.94 765.949,69.8703 791.959,76.9203 " fill="none" id="AnaliseProdutosController-to-HistoricoPedidos" style="stroke:#181818;stroke-width:1;"/><polygon fill="#181818" points="797.75,78.49,790.1099,72.2748,792.9241,77.182,788.017,79.9962,797.75,78.49" style="stroke:#181818;stroke-width:1;"/></g><!--link MonitoramentoEstoqueController to Estoque--><g id="link_MonitoramentoEstoqueController_Estoque"><path d="M712.72,255.94 C753.7,245.01 793.4228,234.4267 821.6828,226.8867 " fill="none" id="MonitoramentoEstoqueController-to-Estoque" style="stroke:#181818;stroke-width:1;"/><polygon fill="#181818" points="827.48,225.34,817.753,223.7953,822.649,226.629,819.8154,231.5249,827.48,225.34" style="stroke:#181818;stroke-width:1;"/></g><!--link MonitoramentoVendasController to HistoricoPedidos--><g id="link_MonitoramentoVendasController_HistoricoPedidos"><path d="M735.69,104.26 C757.28,102.41 773.0422,101.0558 791.9322,99.4258 " fill="none" id="MonitoramentoVendasController-to-HistoricoPedidos" style="stroke:#181818;stroke-width:1;"/><polygon fill="#181818" points="797.91,98.91,788.5994,95.6985,792.9285,99.3398,789.2872,103.6689,797.91,98.91" style="stroke:#181818;stroke-width:1;"/></g><!--link AlertaEstoqueMinimoController to Estoque--><g id="link_AlertaEstoqueMinimoController_Estoque"><path d="M731.26,206.82 C766.72,210.03 797.1345,212.7684 821.1845,214.9484 " fill="none" id="AlertaEstoqueMinimoController-to-Estoque" style="stroke:#181818;stroke-width:1;"/><polygon fill="#181818" points="827.16,215.49,818.5578,210.6939,822.1804,215.0386,817.8357,218.6612,827.16,215.49" style="stroke:#181818;stroke-width:1;"/></g><!--SRC=[XPB1Ri8m38RlUGgBoqwymgGE8Us2n6NSiyQ0jJRU75U8jrzeQPj1qlMKrf_j__-R1eyAoY1qEYiu4goLs9lmHVxRYcqXdAtZ2_aJg7HeZAsL1LQLQybJK8bL0OUm3Se_7Qx01h2kDUO5rWyFV6pMrJOMthZppWfXC9_3yGgLjmq5t0kxJZaS22ymLtViAUwrBNhb-weRKY0E63-6lq3LeAYzz-wY-9Px8EhPi5VX9WB1rCFvKS-CJ4HEqt_O82n3PTGbb8c9nZXVSobDjM96MI29Q1fUIYZtRp9g4i4bBKMXfTvPPib2qbamK3AN1XpdaLx7Mpo-liSRpa8rxz6Hu_0KnJoYN_BCBtljcyQTPj5SOVwYhNJyBm00]--></g></svg>