<svg xmlns="http://www.w3.org/2000/svg" xmlns:xlink="http://www.w3.org/1999/xlink" contentStyleType="text/css" height="558px" preserveAspectRatio="none" style="width:977px;height:558px;background:#FFFFFF;" version="1.1" viewBox="0 0 977 558" width="977px" zoomAndPan="magnify"><defs><filter height="300%" id="f9ptia0ruf1an" width="300%" x="-1" y="-1"><feGaussianBlur result="blurOut" stdDeviation="2"/><feColorMatrix in="blurOut" result="blurOut2" type="matrix" values="0 0 0 0 0 0 0 0 0 0 0 0 0 0 0 0 0 0 .4 0"/><feOffset dx="4" dy="4" in="blurOut2" result="blurOut3"/><feBlend in="SourceGraphic" in2="blurOut3" mode="normal"/></filter></defs><g><!--entity bus--><g id="elem_bus"><ellipse cx="94.8706" cy="249" fill="#F1F1F1" filter="url(#f9ptia0ruf1an)" rx="8" ry="8" style="stroke:#181818;stroke-width:0.5;"/><path d="M94.8706,257 L94.8706,284 M81.8706,265 L107.8706,265 M94.8706,284 L81.8706,299 M94.8706,284 L107.8706,299 " fill="none" filter="url(#f9ptia0ruf1an)" style="stroke:#181818;stroke-width:0.5;"/><text fill="#000000" font-family="sans-serif" font-size="14" lengthAdjust="spacing" textLength="177.7412" x="6" y="316.4951">Buscador de Embalagens</text></g><!--entity BuscaPorCategoriaView--><g id="elem_BuscaPorCategoriaView"><path d="M339.2378,177 L339.2378,201 M339.2378,189 L356.2378,189 " fill="none" filter="url(#f9ptia0ruf1an)" style="stroke:#181818;stroke-width:0.5;"/><ellipse cx="368.2378" cy="189" fill="#F1F1F1" filter="url(#f9ptia0ruf1an)" rx="12" ry="12" style="stroke:#181818;stroke-width:0.5;"/><text fill="#000000" font-family="sans-serif" font-size="14" lengthAdjust="spacing" textLength="166.4756" x="276.5" y="217.9951">BuscaPorCategoriaView</text></g><!--entity BuscaPorMaterialView--><g id="elem_BuscaPorMaterialView"><path d="M339.1084,260 L339.1084,284 M339.1084,272 L356.1084,272 " fill="none" filter="url(#f9ptia0ruf1an)" style="stroke:#181818;stroke-width:0.5;"/><ellipse cx="368.1084" cy="272" fill="#F1F1F1" filter="url(#f9ptia0ruf1an)" rx="12" ry="12" style="stroke:#181818;stroke-width:0.5;"/><text fill="#000000" font-family="sans-serif" font-size="14" lengthAdjust="spacing" textLength="155.2168" x="282" y="300.9951">BuscaPorMaterialView</text></g><!--entity BuscaPorQuantidadeMinimaView--><g id="elem_BuscaPorQuantidadeMinimaView"><path d="M338.9897,94 L338.9897,118 M338.9897,106 L355.9897,106 " fill="none" filter="url(#f9ptia0ruf1an)" style="stroke:#181818;stroke-width:0.5;"/><ellipse cx="367.9897" cy="106" fill="#F1F1F1" filter="url(#f9ptia0ruf1an)" rx="12" ry="12" style="stroke:#181818;stroke-width:0.5;"/><text fill="#000000" font-family="sans-serif" font-size="14" lengthAdjust="spacing" textLength="230.9795" x="244" y="134.9951">BuscaPorQuantidadeMinimaView</text></g><!--entity BuscaPorTempoEntregaView--><g id="elem_BuscaPorTempoEntregaView"><path d="M338.8198,11 L338.8198,35 M338.8198,23 L355.8198,23 " fill="none" filter="url(#f9ptia0ruf1an)" style="stroke:#181818;stroke-width:0.5;"/><ellipse cx="367.8198" cy="23" fill="#F1F1F1" filter="url(#f9ptia0ruf1an)" rx="12" ry="12" style="stroke:#181818;stroke-width:0.5;"/><text fill="#000000" font-family="sans-serif" font-size="14" lengthAdjust="spacing" textLength="201.6396" x="258.5" y="51.9951">BuscaPorTempoEntregaView</text></g><!--entity BuscaPorPrecoView--><g id="elem_BuscaPorPrecoView"><path d="M339.208,509 L339.208,533 M339.208,521 L356.208,521 " fill="none" filter="url(#f9ptia0ruf1an)" style="stroke:#181818;stroke-width:0.5;"/><ellipse cx="368.208" cy="521" fill="#F1F1F1" filter="url(#f9ptia0ruf1an)" rx="12" ry="12" style="stroke:#181818;stroke-width:0.5;"/><text fill="#000000" font-family="sans-serif" font-size="14" lengthAdjust="spacing" textLength="137.416" x="291" y="549.9951">BuscaPorPrecoView</text></g><!--entity AlertaDisponibilidadeView--><g id="elem_AlertaDisponibilidadeView"><path d="M339.0674,343 L339.0674,367 M339.0674,355 L356.0674,355 " fill="none" filter="url(#f9ptia0ruf1an)" style="stroke:#181818;stroke-width:0.5;"/><ellipse cx="368.0674" cy="355" fill="#F1F1F1" filter="url(#f9ptia0ruf1an)" rx="12" ry="12" style="stroke:#181818;stroke-width:0.5;"/><text fill="#000000" font-family="sans-serif" font-size="14" lengthAdjust="spacing" textLength="183.1348" x="268" y="383.9951">AlertaDisponibilidadeView</text></g><!--entity BuscaPorDimensoesView--><g id="elem_BuscaPorDimensoesView"><path d="M338.9512,426 L338.9512,450 M338.9512,438 L355.9512,438 " fill="none" filter="url(#f9ptia0ruf1an)" style="stroke:#181818;stroke-width:0.5;"/><ellipse cx="367.9512" cy="438" fill="#F1F1F1" filter="url(#f9ptia0ruf1an)" rx="12" ry="12" style="stroke:#181818;stroke-width:0.5;"/><text fill="#000000" font-family="sans-serif" font-size="14" lengthAdjust="spacing" textLength="175.9023" x="271.5" y="466.9951">BuscaPorDimensoesView</text></g><!--entity BuscaPorCategoriaController--><g id="elem_BuscaPorCategoriaController"><ellipse cx="668.5591" cy="189" fill="#F1F1F1" filter="url(#f9ptia0ruf1an)" rx="12" ry="12" style="stroke:#181818;stroke-width:0.5;"/><polygon fill="#181818" points="664.5591,177,670.5591,172,668.5591,177,670.5591,182,664.5591,177" style="stroke:#181818;stroke-width:1;"/><text fill="#000000" font-family="sans-serif" font-size="14" lengthAdjust="spacing" textLength="202.1182" x="567.5" y="217.9951">BuscaPorCategoriaController</text></g><!--entity BuscaPorMaterialController--><g id="elem_BuscaPorMaterialController"><ellipse cx="668.4297" cy="272" fill="#F1F1F1" filter="url(#f9ptia0ruf1an)" rx="12" ry="12" style="stroke:#181818;stroke-width:0.5;"/><polygon fill="#181818" points="664.4297,260,670.4297,255,668.4297,260,670.4297,265,664.4297,260" style="stroke:#181818;stroke-width:1;"/><text fill="#000000" font-family="sans-serif" font-size="14" lengthAdjust="spacing" textLength="190.8594" x="573" y="300.9951">BuscaPorMaterialController</text></g><!--entity BuscaPorQuantidadeMinimaController--><g id="elem_BuscaPorQuantidadeMinimaController"><ellipse cx="668.311" cy="106" fill="#F1F1F1" filter="url(#f9ptia0ruf1an)" rx="12" ry="12" style="stroke:#181818;stroke-width:0.5;"/><polygon fill="#181818" points="664.311,94,670.311,89,668.311,94,670.311,99,664.311,94" style="stroke:#181818;stroke-width:1;"/><text fill="#000000" font-family="sans-serif" font-size="14" lengthAdjust="spacing" textLength="266.6221" x="535" y="134.9951">BuscaPorQuantidadeMinimaController</text></g><!--entity BuscaPorTempoEntregaController--><g id="elem_BuscaPorTempoEntregaController"><ellipse cx="668.6411" cy="23" fill="#F1F1F1" filter="url(#f9ptia0ruf1an)" rx="12" ry="12" style="stroke:#181818;stroke-width:0.5;"/><polygon fill="#181818" points="664.6411,11,670.6411,6,668.6411,11,670.6411,16,664.6411,11" style="stroke:#181818;stroke-width:1;"/><text fill="#000000" font-family="sans-serif" font-size="14" lengthAdjust="spacing" textLength="237.2822" x="550" y="51.9951">BuscaPorTempoEntregaController</text></g><!--entity BuscaPorPrecoController--><g id="elem_BuscaPorPrecoController"><ellipse cx="668.5293" cy="521" fill="#F1F1F1" filter="url(#f9ptia0ruf1an)" rx="12" ry="12" style="stroke:#181818;stroke-width:0.5;"/><polygon fill="#181818" points="664.5293,509,670.5293,504,668.5293,509,670.5293,514,664.5293,509" style="stroke:#181818;stroke-width:1;"/><text fill="#000000" font-family="sans-serif" font-size="14" lengthAdjust="spacing" textLength="173.0586" x="582" y="549.9951">BuscaPorPrecoController</text></g><!--entity AlertaDisponibilidadeController--><g id="elem_AlertaDisponibilidadeController"><ellipse cx="668.3887" cy="355" fill="#F1F1F1" filter="url(#f9ptia0ruf1an)" rx="12" ry="12" style="stroke:#181818;stroke-width:0.5;"/><polygon fill="#181818" points="664.3887,343,670.3887,338,668.3887,343,670.3887,348,664.3887,343" style="stroke:#181818;stroke-width:1;"/><text fill="#000000" font-family="sans-serif" font-size="14" lengthAdjust="spacing" textLength="218.7773" x="559" y="383.9951">AlertaDisponibilidadeController</text></g><!--entity BuscaPorDimensoesController--><g id="elem_BuscaPorDimensoesController"><ellipse cx="668.2725" cy="438" fill="#F1F1F1" filter="url(#f9ptia0ruf1an)" rx="12" ry="12" style="stroke:#181818;stroke-width:0.5;"/><polygon fill="#181818" points="664.2725,426,670.2725,421,668.2725,426,670.2725,431,664.2725,426" style="stroke:#181818;stroke-width:1;"/><text fill="#000000" font-family="sans-serif" font-size="14" lengthAdjust="spacing" textLength="211.5449" x="562.5" y="466.9951">BuscaPorDimensoesController</text></g><!--entity Produto--><g id="elem_Produto"><ellipse cx="915.7891" cy="314" fill="#F1F1F1" filter="url(#f9ptia0ruf1an)" rx="12" ry="12" style="stroke:#181818;stroke-width:0.5;"/><line style="stroke:#181818;stroke-width:0.5;" x1="903.7891" x2="927.7891" y1="328" y2="328"/><text fill="#000000" font-family="sans-serif" font-size="14" lengthAdjust="spacing" textLength="54.5781" x="888.5" y="342.9951">Produto</text></g><!--entity Estoque--><g id="elem_Estoque"><ellipse cx="915.7837" cy="106" fill="#F1F1F1" filter="url(#f9ptia0ruf1an)" rx="12" ry="12" style="stroke:#181818;stroke-width:0.5;"/><line style="stroke:#181818;stroke-width:0.5;" x1="903.7837" x2="927.7837" y1="120" y2="120"/><text fill="#000000" font-family="sans-serif" font-size="14" lengthAdjust="spacing" textLength="56.5674" x="887.5" y="134.9951">Estoque</text></g><!--entity Transportadora--><g id="elem_Transportadora"><ellipse cx="916.0586" cy="23" fill="#F1F1F1" filter="url(#f9ptia0ruf1an)" rx="12" ry="12" style="stroke:#181818;stroke-width:0.5;"/><line style="stroke:#181818;stroke-width:0.5;" x1="904.0586" x2="928.0586" y1="37" y2="37"/><text fill="#000000" font-family="sans-serif" font-size="14" lengthAdjust="spacing" textLength="108.1172" x="862" y="51.9951">Transportadora</text></g><!--link bus to BuscaPorCategoriaView--><g id="link_bus_BuscaPorCategoriaView"><path d="M184.14,252.13 C216.01,242.05 245.979,232.5784 276.729,222.8584 " fill="none" id="bus-to-BuscaPorCategoriaView" style="stroke:#181818;stroke-width:1;"/><polygon fill="#181818" points="282.45,221.05,272.6629,219.9486,277.6825,222.557,275.0741,227.5766,282.45,221.05" style="stroke:#181818;stroke-width:1;"/></g><!--link bus to BuscaPorMaterialView--><g id="link_bus_BuscaPorMaterialView"><path d="M184.14,280 C215.71,280 245.04,280 275.59,280 " fill="none" id="bus-to-BuscaPorMaterialView" style="stroke:#181818;stroke-width:1;"/><polygon fill="#181818" points="281.59,280,272.59,276,276.59,280,272.59,284,281.59,280" style="stroke:#181818;stroke-width:1;"/></g><!--link bus to BuscaPorQuantidadeMinimaView--><g id="link_bus_BuscaPorQuantidadeMinimaView"><path d="M134.8,240.45 C163.05,213.43 203.34,178.42 244,155 C255.07,148.62 261.732,145.2054 273.962,140.2954 " fill="none" id="bus-to-BuscaPorQuantidadeMinimaView" style="stroke:#181818;stroke-width:1;"/><polygon fill="#181818" points="279.53,138.06,269.6877,137.7011,274.89,139.9228,272.6682,145.1251,279.53,138.06" style="stroke:#181818;stroke-width:1;"/></g><!--link bus to BuscaPorTempoEntregaView--><g id="link_bus_BuscaPorTempoEntregaView"><path d="M114.76,240.34 C138.65,193.83 184.11,117.35 244,72 C252.67,65.44 257.0415,62.3844 267.1915,57.6544 " fill="none" id="bus-to-BuscaPorTempoEntregaView" style="stroke:#181818;stroke-width:1;"/><polygon fill="#181818" points="272.63,55.12,262.7827,55.2959,268.0979,57.232,266.1619,62.5472,272.63,55.12" style="stroke:#181818;stroke-width:1;"/></g><!--link bus to BuscaPorPrecoView--><g id="link_bus_BuscaPorPrecoView"><path d="M114.76,319.66 C138.65,366.17 184.11,442.65 244,488 C257.8,498.45 268.8777,504.3418 285.2177,510.3418 " fill="none" id="bus-to-BuscaPorPrecoView" style="stroke:#181818;stroke-width:1;"/><polygon fill="#181818" points="290.85,512.41,283.7803,505.5529,286.1564,510.6865,281.0228,513.0626,290.85,512.41" style="stroke:#181818;stroke-width:1;"/></g><!--link bus to AlertaDisponibilidadeView--><g id="link_bus_AlertaDisponibilidadeView"><path d="M184.14,307.87 C216.01,317.95 245.979,327.4216 276.729,337.1416 " fill="none" id="bus-to-AlertaDisponibilidadeView" style="stroke:#181818;stroke-width:1;"/><polygon fill="#181818" points="282.45,338.95,275.0741,332.4234,277.6825,337.443,272.6629,340.0514,282.45,338.95" style="stroke:#181818;stroke-width:1;"/></g><!--link bus to BuscaPorDimensoesView--><g id="link_bus_BuscaPorDimensoesView"><path d="M134.8,319.55 C163.05,346.57 203.34,381.58 244,405 C255.07,411.38 261.732,414.7946 273.962,419.7046 " fill="none" id="bus-to-BuscaPorDimensoesView" style="stroke:#181818;stroke-width:1;"/><polygon fill="#181818" points="279.53,421.94,272.6682,414.8749,274.89,420.0772,269.6877,422.2989,279.53,421.94" style="stroke:#181818;stroke-width:1;"/></g><!--link BuscaPorCategoriaView to BuscaPorCategoriaController--><g id="link_BuscaPorCategoriaView_BuscaPorCategoriaController"><path d="M442.77,197 C481.13,197 521.13,197 561.48,197 " fill="none" id="BuscaPorCategoriaView-to-BuscaPorCategoriaController" style="stroke:#181818;stroke-width:1;"/><polygon fill="#181818" points="567.48,197,558.48,193,562.48,197,558.48,201,567.48,197" style="stroke:#181818;stroke-width:1;"/></g><!--link BuscaPorMaterialView to BuscaPorMaterialController--><g id="link_BuscaPorMaterialView_BuscaPorMaterialController"><path d="M437.18,280 C478.29,280 523.31,280 566.88,280 " fill="none" id="BuscaPorMaterialView-to-BuscaPorMaterialController" style="stroke:#181818;stroke-width:1;"/><polygon fill="#181818" points="572.88,280,563.88,276,567.88,280,563.88,284,572.88,280" style="stroke:#181818;stroke-width:1;"/></g><!--link BuscaPorQuantidadeMinimaView to BuscaPorQuantidadeMinimaController--><g id="link_BuscaPorQuantidadeMinimaView_BuscaPorQuantidadeMinimaController"><path d="M475.25,114 C494.67,114 508.97,114 528.8,114 " fill="none" id="BuscaPorQuantidadeMinimaView-to-BuscaPorQuantidadeMinimaController" style="stroke:#181818;stroke-width:1;"/><polygon fill="#181818" points="534.8,114,525.8,110,529.8,114,525.8,118,534.8,114" style="stroke:#181818;stroke-width:1;"/></g><!--link BuscaPorTempoEntregaView to BuscaPorTempoEntregaController--><g id="link_BuscaPorTempoEntregaView_BuscaPorTempoEntregaController"><path d="M460.6,31 C489.12,31 514.45,31 543.91,31 " fill="none" id="BuscaPorTempoEntregaView-to-BuscaPorTempoEntregaController" style="stroke:#181818;stroke-width:1;"/><polygon fill="#181818" points="549.91,31,540.91,27,544.91,31,540.91,35,549.91,31" style="stroke:#181818;stroke-width:1;"/></g><!--link BuscaPorPrecoView to BuscaPorPrecoController--><g id="link_BuscaPorPrecoView_BuscaPorPrecoController"><path d="M428.25,529 C473.46,529 527.27,529 575.78,529 " fill="none" id="BuscaPorPrecoView-to-BuscaPorPrecoController" style="stroke:#181818;stroke-width:1;"/><polygon fill="#181818" points="581.78,529,572.78,525,576.78,529,572.78,533,581.78,529" style="stroke:#181818;stroke-width:1;"/></g><!--link AlertaDisponibilidadeView to AlertaDisponibilidadeController--><g id="link_AlertaDisponibilidadeView_AlertaDisponibilidadeController"><path d="M451.36,363 C485.13,363 517.79,363 552.98,363 " fill="none" id="AlertaDisponibilidadeView-to-AlertaDisponibilidadeController" style="stroke:#181818;stroke-width:1;"/><polygon fill="#181818" points="558.98,363,549.98,359,553.98,363,549.98,367,558.98,363" style="stroke:#181818;stroke-width:1;"/></g><!--link BuscaPorDimensoesView to BuscaPorDimensoesController--><g id="link_BuscaPorDimensoesView_BuscaPorDimensoesController"><path d="M447.65,446 C483.37,446 519.03,446 556.42,446 " fill="none" id="BuscaPorDimensoesView-to-BuscaPorDimensoesController" style="stroke:#181818;stroke-width:1;"/><polygon fill="#181818" points="562.42,446,553.42,442,557.42,446,553.42,450,562.42,446" style="stroke:#181818;stroke-width:1;"/></g><!--link BuscaPorCategoriaController to Produto--><g id="link_BuscaPorCategoriaController_Produto"><path d="M759.47,221.12 C774.01,226.26 788.66,232.22 802,239 C833.9,255.21 861.8162,276.3223 883.7362,294.6423 " fill="none" id="BuscaPorCategoriaController-to-Produto" style="stroke:#181818;stroke-width:1;"/><polygon fill="#181818" points="888.34,298.49,883.9994,289.6492,884.5035,295.2836,878.8691,295.7876,888.34,298.49" style="stroke:#181818;stroke-width:1;"/></g><!--link BuscaPorMaterialController to Produto--><g id="link_BuscaPorMaterialController_Produto"><path d="M764.07,296.18 C808.64,303.8 852.5458,311.3191 882.3258,316.4091 " fill="none" id="BuscaPorMaterialController-to-Produto" style="stroke:#181818;stroke-width:1;"/><polygon fill="#181818" points="888.24,317.42,880.0426,311.9609,883.3115,316.5776,878.6947,319.8465,888.24,317.42" style="stroke:#181818;stroke-width:1;"/></g><!--link BuscaPorQuantidadeMinimaController to Estoque--><g id="link_BuscaPorQuantidadeMinimaController_Estoque"><path d="M802.31,114 C834.62,114 860,114 881.4,114 " fill="none" id="BuscaPorQuantidadeMinimaController-to-Estoque" style="stroke:#181818;stroke-width:1;"/><polygon fill="#181818" points="887.4,114,878.4,110,882.4,114,878.4,118,887.4,114" style="stroke:#181818;stroke-width:1;"/></g><!--link BuscaPorQuantidadeMinimaController to Produto--><g id="link_BuscaPorQuantidadeMinimaController_Produto"><path d="M772.4,138.03 C782.91,142.73 793.01,148.33 802,155 C853.18,192.95 886.2517,255.8622 902.5117,292.2422 " fill="none" id="BuscaPorQuantidadeMinimaController-to-Produto" style="stroke:#181818;stroke-width:1;"/><polygon fill="#181818" points="904.96,297.72,904.9394,287.8712,902.9198,293.1552,897.6357,291.1355,904.96,297.72" style="stroke:#181818;stroke-width:1;"/></g><!--link BuscaPorTempoEntregaController to Transportadora--><g id="link_BuscaPorTempoEntregaController_Transportadora"><path d="M787.22,31 C813.43,31 833.95,31 855.98,31 " fill="none" id="BuscaPorTempoEntregaController-to-Transportadora" style="stroke:#181818;stroke-width:1;"/><polygon fill="#181818" points="861.98,31,852.98,27,856.98,31,852.98,35,861.98,31" style="stroke:#181818;stroke-width:1;"/></g><!--link BuscaPorPrecoController to Produto--><g id="link_BuscaPorPrecoController_Produto"><path d="M755.19,511.76 C771.71,505.95 788.16,498.23 802,488 C853.02,450.28 886.1425,387.7591 902.4525,351.6091 " fill="none" id="BuscaPorPrecoController-to-Produto" style="stroke:#181818;stroke-width:1;"/><polygon fill="#181818" points="904.92,346.14,897.5726,352.6987,902.8637,350.6976,904.8648,355.9887,904.92,346.14" style="stroke:#181818;stroke-width:1;"/></g><!--link BuscaPorDimensoesController to Produto--><g id="link_BuscaPorDimensoesController_Produto"><path d="M761.59,421.89 C775.44,417.02 789.31,411.39 802,405 C833.95,388.9 861.871,367.7735 883.771,349.4235 " fill="none" id="BuscaPorDimensoesController-to-Produto" style="stroke:#181818;stroke-width:1;"/><polygon fill="#181818" points="888.37,345.57,878.9025,348.2842,884.5375,348.7812,884.0405,354.4162,888.37,345.57" style="stroke:#181818;stroke-width:1;"/></g><!--link AlertaDisponibilidadeController to Produto--><g id="link_AlertaDisponibilidadeController_Produto"><path d="M778.25,344.84 C818.91,338.05 855.7219,331.8982 882.3719,327.4482 " fill="none" id="AlertaDisponibilidadeController-to-Produto" style="stroke:#181818;stroke-width:1;"/><polygon fill="#181818" points="888.29,326.46,878.7541,323.9969,883.3583,327.2835,880.0717,331.8877,888.29,326.46" style="stroke:#181818;stroke-width:1;"/></g><!--SRC=[ZLJBReCm4BpxAwnSUielL6eUnqYfbFQ-W4jM1MzY6qNv-wv8I8nPat8op7YMcR7Sc9-W0sc7zJ7e2fqf0v9L_XVj2HoqsX-XeWlQMWVN6QMW3EJqOjNvaW6dAwEtRG4DrCRwXGQlYyuhzQQNoQE_riiLVrzHPojmQBmgRikhxjNsvDOGJ4qEuHlDPGhl66QmaT7F3cp02YgpGujjHkDWsXDjRN2cpZ3s70ADeO_6k00Rz2UoM63JJv5tRx3b8CZu7cQ_Q-9XrB22L-LjFVNx94quW-aPIkfyXXhRdw7r6GYu6CICpYEDYAFuWF3fUC-rdg3ZqXDGxZmXJIjF257ZTsIcy6HlqhVeINORHI9v5KCGzaWHp6OaQAG9PUCJzZx2cqOQiRE1vkCMPet2bck83vfXt-6gzuwgBj3mklM1pdoLtLyF3YpFvVbydO7Gu5EndpYevQiPqTJh6dh-y5V_f4_avPPwRivXqf7eJiXrn7lHNCpz0m00]--></g></svg>