<svg xmlns="http://www.w3.org/2000/svg" xmlns:xlink="http://www.w3.org/1999/xlink" contentStyleType="text/css" height="553px" preserveAspectRatio="none" style="width:829px;height:553px;background:#FFFFFF;" version="1.1" viewBox="0 0 829 553" width="829px" zoomAndPan="magnify"><defs><filter height="300%" id="frj2u445e037k" width="300%" x="-1" y="-1"><feGaussianBlur result="blurOut" stdDeviation="2"/><feColorMatrix in="blurOut" result="blurOut2" type="matrix" values="0 0 0 0 0 0 0 0 0 0 0 0 0 0 0 0 0 0 .4 0"/><feOffset dx="4" dy="4" in="blurOut2" result="blurOut3"/><feBlend in="SourceGraphic" in2="blurOut3" mode="normal"/></filter></defs><g><!--entity Comprador--><g id="elem_Comprador"><ellipse cx="45.2041" cy="327" fill="#F1F1F1" filter="url(#frj2u445e037k)" rx="8" ry="8" style="stroke:#181818;stroke-width:0.5;"/><path d="M45.2041,335 L45.2041,362 M32.2041,343 L58.2041,343 M45.2041,362 L32.2041,377 M45.2041,362 L58.2041,377 " fill="none" filter="url(#frj2u445e037k)" style="stroke:#181818;stroke-width:0.5;"/><text fill="#000000" font-family="sans-serif" font-size="14" lengthAdjust="spacing" textLength="78.4082" x="6" y="394.4951">Comprador</text></g><!--entity AdicionaAoCarrinhoView--><g id="elem_AdicionaAoCarrinhoView"><path d="M224.8491,338 L224.8491,362 M224.8491,350 L241.8491,350 " fill="none" filter="url(#frj2u445e037k)" style="stroke:#181818;stroke-width:0.5;"/><ellipse cx="253.8491" cy="350" fill="#F1F1F1" filter="url(#frj2u445e037k)" rx="12" ry="12" style="stroke:#181818;stroke-width:0.5;"/><text fill="#000000" font-family="sans-serif" font-size="14" lengthAdjust="spacing" textLength="171.6982" x="159.5" y="378.9951">AdicionaAoCarrinhoView</text></g><!--entity RealizaPedidoView--><g id="elem_RealizaPedidoView"><path d="M225.2207,172 L225.2207,196 M225.2207,184 L242.2207,184 " fill="none" filter="url(#frj2u445e037k)" style="stroke:#181818;stroke-width:0.5;"/><ellipse cx="254.2207" cy="184" fill="#F1F1F1" filter="url(#frj2u445e037k)" rx="12" ry="12" style="stroke:#181818;stroke-width:0.5;"/><text fill="#000000" font-family="sans-serif" font-size="14" lengthAdjust="spacing" textLength="131.4414" x="180" y="212.9951">RealizaPedidoView</text></g><!--entity CriaCadastroCompradorView--><g id="elem_CriaCadastroCompradorView"><path d="M224.9316,255 L224.9316,279 M224.9316,267 L241.9316,267 " fill="none" filter="url(#frj2u445e037k)" style="stroke:#181818;stroke-width:0.5;"/><ellipse cx="253.9316" cy="267" fill="#F1F1F1" filter="url(#frj2u445e037k)" rx="12" ry="12" style="stroke:#181818;stroke-width:0.5;"/><text fill="#000000" font-family="sans-serif" font-size="14" lengthAdjust="spacing" textLength="202.8633" x="144" y="295.9951">CriaCadastroCompradorView</text></g><!--entity HistoricoPedidosView--><g id="elem_HistoricoPedidosView"><path d="M224.8911,504 L224.8911,528 M224.8911,516 L241.8911,516 " fill="none" filter="url(#frj2u445e037k)" style="stroke:#181818;stroke-width:0.5;"/><ellipse cx="253.8911" cy="516" fill="#F1F1F1" filter="url(#frj2u445e037k)" rx="12" ry="12" style="stroke:#181818;stroke-width:0.5;"/><text fill="#000000" font-family="sans-serif" font-size="14" lengthAdjust="spacing" textLength="149.7822" x="170.5" y="544.9951">HistoricoPedidosView</text></g><!--entity SugestoesAnunciosView--><g id="elem_SugestoesAnunciosView"><path d="M224.8442,421 L224.8442,445 M224.8442,433 L241.8442,433 " fill="none" filter="url(#frj2u445e037k)" style="stroke:#181818;stroke-width:0.5;"/><ellipse cx="253.8442" cy="433" fill="#F1F1F1" filter="url(#frj2u445e037k)" rx="12" ry="12" style="stroke:#181818;stroke-width:0.5;"/><text fill="#000000" font-family="sans-serif" font-size="14" lengthAdjust="spacing" textLength="169.6885" x="160.5" y="461.9951">SugestoesAnunciosView</text></g><!--entity AdicionaAoCarrinhoController--><g id="elem_AdicionaAoCarrinhoController"><ellipse cx="526.6704" cy="350" fill="#F1F1F1" filter="url(#frj2u445e037k)" rx="12" ry="12" style="stroke:#181818;stroke-width:0.5;"/><polygon fill="#181818" points="522.6704,338,528.6704,333,526.6704,338,528.6704,343,522.6704,338" style="stroke:#181818;stroke-width:1;"/><text fill="#000000" font-family="sans-serif" font-size="14" lengthAdjust="spacing" textLength="207.3408" x="423" y="378.9951">AdicionaAoCarrinhoController</text></g><!--entity RealizaPedidoController--><g id="elem_RealizaPedidoController"><ellipse cx="526.542" cy="184" fill="#F1F1F1" filter="url(#frj2u445e037k)" rx="12" ry="12" style="stroke:#181818;stroke-width:0.5;"/><polygon fill="#181818" points="522.542,172,528.542,167,526.542,172,528.542,177,522.542,172" style="stroke:#181818;stroke-width:1;"/><text fill="#000000" font-family="sans-serif" font-size="14" lengthAdjust="spacing" textLength="167.084" x="443" y="212.9951">RealizaPedidoController</text></g><!--entity CriaCadastroCompradorController--><g id="elem_CriaCadastroCompradorController"><ellipse cx="526.2529" cy="267" fill="#F1F1F1" filter="url(#frj2u445e037k)" rx="12" ry="12" style="stroke:#181818;stroke-width:0.5;"/><polygon fill="#181818" points="522.2529,255,528.2529,250,526.2529,255,528.2529,260,522.2529,255" style="stroke:#181818;stroke-width:1;"/><text fill="#000000" font-family="sans-serif" font-size="14" lengthAdjust="spacing" textLength="238.5059" x="407" y="295.9951">CriaCadastroCompradorController</text></g><!--entity HistoricoPedidosController--><g id="elem_HistoricoPedidosController"><ellipse cx="526.7124" cy="516" fill="#F1F1F1" filter="url(#frj2u445e037k)" rx="12" ry="12" style="stroke:#181818;stroke-width:0.5;"/><polygon fill="#181818" points="522.7124,504,528.7124,499,526.7124,504,528.7124,509,522.7124,504" style="stroke:#181818;stroke-width:1;"/><text fill="#000000" font-family="sans-serif" font-size="14" lengthAdjust="spacing" textLength="185.4248" x="434" y="544.9951">HistoricoPedidosController</text></g><!--entity SugestoesAnunciosController--><g id="elem_SugestoesAnunciosController"><ellipse cx="526.6655" cy="433" fill="#F1F1F1" filter="url(#frj2u445e037k)" rx="12" ry="12" style="stroke:#181818;stroke-width:0.5;"/><polygon fill="#181818" points="522.6655,421,528.6655,416,526.6655,421,528.6655,426,522.6655,421" style="stroke:#181818;stroke-width:1;"/><text fill="#000000" font-family="sans-serif" font-size="14" lengthAdjust="spacing" textLength="205.3311" x="424" y="461.9951">SugestoesAnunciosController</text></g><!--entity Carrinho--><g id="elem_Carrinho"><ellipse cx="764.0337" cy="350" fill="#F1F1F1" filter="url(#frj2u445e037k)" rx="12" ry="12" style="stroke:#181818;stroke-width:0.5;"/><line style="stroke:#181818;stroke-width:0.5;" x1="752.0337" x2="776.0337" y1="364" y2="364"/><text fill="#000000" font-family="sans-serif" font-size="14" lengthAdjust="spacing" textLength="60.0674" x="734" y="378.9951">Carrinho</text></g><!--entity Pedido--><g id="elem_Pedido"><ellipse cx="764.1421" cy="101" fill="#F1F1F1" filter="url(#frj2u445e037k)" rx="12" ry="12" style="stroke:#181818;stroke-width:0.5;"/><line style="stroke:#181818;stroke-width:0.5;" x1="752.1421" x2="776.1421" y1="115" y2="115"/><text fill="#000000" font-family="sans-serif" font-size="14" lengthAdjust="spacing" textLength="47.2842" x="740.5" y="129.9951">Pedido</text></g><!--entity Produto--><g id="elem_Produto"><ellipse cx="763.7891" cy="433" fill="#F1F1F1" filter="url(#frj2u445e037k)" rx="12" ry="12" style="stroke:#181818;stroke-width:0.5;"/><line style="stroke:#181818;stroke-width:0.5;" x1="751.7891" x2="775.7891" y1="447" y2="447"/><text fill="#000000" font-family="sans-serif" font-size="14" lengthAdjust="spacing" textLength="54.5781" x="736.5" y="461.9951">Produto</text></g><!--entity Endereco--><g id="elem_Endereco"><ellipse cx="763.9253" cy="184" fill="#F1F1F1" filter="url(#frj2u445e037k)" rx="12" ry="12" style="stroke:#181818;stroke-width:0.5;"/><line style="stroke:#181818;stroke-width:0.5;" x1="751.9253" x2="775.9253" y1="198" y2="198"/><text fill="#000000" font-family="sans-serif" font-size="14" lengthAdjust="spacing" textLength="65.8506" x="731" y="212.9951">Endereco</text></g><!--entity Pagamento--><g id="elem_Pagamento"><ellipse cx="763.833" cy="18" fill="#F1F1F1" filter="url(#frj2u445e037k)" rx="12" ry="12" style="stroke:#181818;stroke-width:0.5;"/><line style="stroke:#181818;stroke-width:0.5;" x1="751.833" x2="775.833" y1="32" y2="32"/><text fill="#000000" font-family="sans-serif" font-size="14" lengthAdjust="spacing" textLength="79.666" x="724" y="46.9951">Pagamento</text></g><!--entity comp--><g id="elem_comp"><ellipse cx="764.2041" cy="267" fill="#F1F1F1" filter="url(#frj2u445e037k)" rx="12" ry="12" style="stroke:#181818;stroke-width:0.5;"/><line style="stroke:#181818;stroke-width:0.5;" x1="752.2041" x2="776.2041" y1="281" y2="281"/><text fill="#000000" font-family="sans-serif" font-size="14" lengthAdjust="spacing" textLength="78.4082" x="725" y="295.9951">Comprador</text></g><!--entity HistoricoPedidos--><g id="elem_HistoricoPedidos"><ellipse cx="764.126" cy="516" fill="#F1F1F1" filter="url(#frj2u445e037k)" rx="12" ry="12" style="stroke:#181818;stroke-width:0.5;"/><line style="stroke:#181818;stroke-width:0.5;" x1="752.126" x2="776.126" y1="530" y2="530"/><text fill="#000000" font-family="sans-serif" font-size="14" lengthAdjust="spacing" textLength="116.252" x="706" y="544.9951">HistoricoPedidos</text></g><!--link Comprador to AdicionaAoCarrinhoView--><g id="link_Comprador_AdicionaAoCarrinhoView"><path d="M84.27,358 C105.68,358 127.26,358 153.49,358 " fill="none" id="Comprador-to-AdicionaAoCarrinhoView" style="stroke:#181818;stroke-width:1;"/><polygon fill="#181818" points="159.49,358,150.49,354,154.49,358,150.49,362,159.49,358" style="stroke:#181818;stroke-width:1;"/></g><!--link Comprador to RealizaPedidoView--><g id="link_Comprador_RealizaPedidoView"><path d="M69.34,318.3 C86.96,291.21 113.3,256.18 144,233 C154.75,224.88 161.8535,220.5287 174.4135,214.9687 " fill="none" id="Comprador-to-RealizaPedidoView" style="stroke:#181818;stroke-width:1;"/><polygon fill="#181818" points="179.9,212.54,170.0512,212.5254,175.3279,214.5639,173.2894,219.8407,179.9,212.54" style="stroke:#181818;stroke-width:1;"/></g><!--link Comprador to CriaCadastroCompradorView--><g id="link_Comprador_CriaCadastroCompradorView"><path d="M84.1,341.49 C102.21,333.69 124.19,324.28 144,316 C157.3,310.44 166.0657,306.8092 179.6257,301.2692 " fill="none" id="Comprador-to-CriaCadastroCompradorView" style="stroke:#181818;stroke-width:1;"/><polygon fill="#181818" points="185.18,299,175.3357,298.701,180.5514,300.891,178.3613,306.1068,185.18,299" style="stroke:#181818;stroke-width:1;"/></g><!--link Comprador to HistoricoPedidosView--><g id="link_Comprador_HistoricoPedidosView"><path d="M69.66,397.58 C87.33,424.37 113.61,458.95 144,482 C153.04,488.86 157.96,492.1948 168.47,497.2848 " fill="none" id="Comprador-to-HistoricoPedidosView" style="stroke:#181818;stroke-width:1;"/><polygon fill="#181818" points="173.87,499.9,167.5134,492.3771,169.37,497.7206,164.0264,499.5772,173.87,499.9" style="stroke:#181818;stroke-width:1;"/></g><!--link Comprador to SugestoesAnunciosView--><g id="link_Comprador_SugestoesAnunciosView"><path d="M84.16,373.97 C102.29,381.55 124.26,390.75 144,399 C157.87,404.8 167.2841,408.7361 181.3041,414.5961 " fill="none" id="Comprador-to-SugestoesAnunciosView" style="stroke:#181818;stroke-width:1;"/><polygon fill="#181818" points="186.84,416.91,180.0787,409.7486,182.2268,414.9818,176.9936,417.1298,186.84,416.91" style="stroke:#181818;stroke-width:1;"/></g><!--link AdicionaAoCarrinhoView to AdicionaAoCarrinhoController--><g id="link_AdicionaAoCarrinhoView_AdicionaAoCarrinhoController"><path d="M331.73,358 C360.49,358 386.9,358 416.87,358 " fill="none" id="AdicionaAoCarrinhoView-to-AdicionaAoCarrinhoController" style="stroke:#181818;stroke-width:1;"/><polygon fill="#181818" points="422.87,358,413.87,354,417.87,358,413.87,362,422.87,358" style="stroke:#181818;stroke-width:1;"/></g><!--link RealizaPedidoView to RealizaPedidoController--><g id="link_RealizaPedidoView_RealizaPedidoController"><path d="M311.21,192 C350.41,192 394.79,192 436.85,192 " fill="none" id="RealizaPedidoView-to-RealizaPedidoController" style="stroke:#181818;stroke-width:1;"/><polygon fill="#181818" points="442.85,192,433.85,188,437.85,192,433.85,196,442.85,192" style="stroke:#181818;stroke-width:1;"/></g><!--link CriaCadastroCompradorView to CriaCadastroCompradorController--><g id="link_CriaCadastroCompradorView_CriaCadastroCompradorController"><path d="M347.23,275 C366.58,275 381.02,275 400.88,275 " fill="none" id="CriaCadastroCompradorView-to-CriaCadastroCompradorController" style="stroke:#181818;stroke-width:1;"/><polygon fill="#181818" points="406.88,275,397.88,271,401.88,275,397.88,279,406.88,275" style="stroke:#181818;stroke-width:1;"/></g><!--link HistoricoPedidosView to HistoricoPedidosController--><g id="link_HistoricoPedidosView_HistoricoPedidosController"><path d="M320.53,524 C355.32,524 391.14,524 427.9,524 " fill="none" id="HistoricoPedidosView-to-HistoricoPedidosController" style="stroke:#181818;stroke-width:1;"/><polygon fill="#181818" points="433.9,524,424.9,520,428.9,524,424.9,528,433.9,524" style="stroke:#181818;stroke-width:1;"/></g><!--link SugestoesAnunciosView to SugestoesAnunciosController--><g id="link_SugestoesAnunciosView_SugestoesAnunciosController"><path d="M330.59,441 C359.95,441 387.22,441 417.86,441 " fill="none" id="SugestoesAnunciosView-to-SugestoesAnunciosController" style="stroke:#181818;stroke-width:1;"/><polygon fill="#181818" points="423.86,441,414.86,437,418.86,441,414.86,445,423.86,441" style="stroke:#181818;stroke-width:1;"/></g><!--link AdicionaAoCarrinhoController to Carrinho--><g id="link_AdicionaAoCarrinhoController_Carrinho"><path d="M630.11,358 C667.91,358 701.84,358 727.94,358 " fill="none" id="AdicionaAoCarrinhoController-to-Carrinho" style="stroke:#181818;stroke-width:1;"/><polygon fill="#181818" points="733.94,358,724.94,354,728.94,358,724.94,362,733.94,358" style="stroke:#181818;stroke-width:1;"/></g><!--link AdicionaAoCarrinhoController to Produto--><g id="link_AdicionaAoCarrinhoController_Produto"><path d="M597.41,382.04 C613.39,387.58 630.29,393.46 646,399 C676.94,409.9 706.7376,420.6297 730.4376,429.1997 " fill="none" id="AdicionaAoCarrinhoController-to-Produto" style="stroke:#181818;stroke-width:1;"/><polygon fill="#181818" points="736.08,431.24,728.9766,424.4179,731.378,429.5397,726.2561,431.9411,736.08,431.24" style="stroke:#181818;stroke-width:1;"/></g><!--link RealizaPedidoController to Pedido--><g id="link_RealizaPedidoController_Pedido"><path d="M595.62,167.99 C644.52,150.76 701.7411,130.5842 734.7711,118.9442 " fill="none" id="RealizaPedidoController-to-Pedido" style="stroke:#181818;stroke-width:1;"/><polygon fill="#181818" points="740.43,116.95,730.6122,116.1688,735.7143,118.6119,733.2712,123.7139,740.43,116.95" style="stroke:#181818;stroke-width:1;"/></g><!--link RealizaPedidoController to comp--><g id="link_RealizaPedidoController_comp"><path d="M597.41,216.04 C613.39,221.58 630.29,227.46 646,233 C672.36,242.29 696.3458,250.8946 719.1958,259.1346 " fill="none" id="RealizaPedidoController-to-comp" style="stroke:#181818;stroke-width:1;"/><polygon fill="#181818" points="724.84,261.17,717.7306,254.3541,720.1365,259.4739,715.0167,261.8797,724.84,261.17" style="stroke:#181818;stroke-width:1;"/></g><!--link RealizaPedidoController to Carrinho--><g id="link_RealizaPedidoController_Carrinho"><path d="M610.16,213.21 C622.83,218.5 635.25,225.02 646,233 C682.54,260.15 673.96,283.67 706,316 C714.31,324.38 719.5268,328.8798 728.8968,335.6098 " fill="none" id="RealizaPedidoController-to-Carrinho" style="stroke:#181818;stroke-width:1;"/><polygon fill="#181818" points="733.77,339.11,728.7936,330.6109,729.709,336.1932,724.1267,337.1085,733.77,339.11" style="stroke:#181818;stroke-width:1;"/></g><!--link RealizaPedidoController to Endereco--><g id="link_RealizaPedidoController_Endereco"><path d="M610.2,192 C651.81,192 693.86,192 724.79,192 " fill="none" id="RealizaPedidoController-to-Endereco" style="stroke:#181818;stroke-width:1;"/><polygon fill="#181818" points="730.79,192,721.79,188,725.79,192,721.79,196,730.79,192" style="stroke:#181818;stroke-width:1;"/></g><!--link RealizaPedidoController to Pagamento--><g id="link_RealizaPedidoController_Pagamento"><path d="M561.74,167.86 C606.39,136.39 679.1459,85.1068 723.8059,53.6268 " fill="none" id="RealizaPedidoController-to-Pagamento" style="stroke:#181818;stroke-width:1;"/><polygon fill="#181818" points="728.71,50.17,719.0493,52.0858,724.6232,53.0507,723.6584,58.6246,728.71,50.17" style="stroke:#181818;stroke-width:1;"/></g><!--link HistoricoPedidosController to HistoricoPedidos--><g id="link_HistoricoPedidosController_HistoricoPedidos"><path d="M619.22,524 C648.41,524 673.85,524 699.86,524 " fill="none" id="HistoricoPedidosController-to-HistoricoPedidos" style="stroke:#181818;stroke-width:1;"/><polygon fill="#181818" points="705.86,524,696.86,520,700.86,524,696.86,528,705.86,524" style="stroke:#181818;stroke-width:1;"/></g><!--link SugestoesAnunciosController to Produto--><g id="link_SugestoesAnunciosController_Produto"><path d="M629.08,441 C668.42,441 704.21,441 730.44,441 " fill="none" id="SugestoesAnunciosController-to-Produto" style="stroke:#181818;stroke-width:1;"/><polygon fill="#181818" points="736.44,441,727.44,437,731.44,441,727.44,445,736.44,441" style="stroke:#181818;stroke-width:1;"/></g><!--link CriaCadastroCompradorController to comp--><g id="link_CriaCadastroCompradorController_comp"><path d="M646.28,275 C674.75,275 697.13,275 718.78,275 " fill="none" id="CriaCadastroCompradorController-to-comp" style="stroke:#181818;stroke-width:1;"/><polygon fill="#181818" points="724.78,275,715.78,271,719.78,275,715.78,279,724.78,275" style="stroke:#181818;stroke-width:1;"/></g><!--SRC=[XPF1JiCm44Jl_WhVEFKNa8g5n161uBx49bsHsjNQKGLVpmeJ9qxMQKzsPkoycKq7zvbq2fgmFoLjaLoNC7WLlz1VWE2iumbikABlTQBHAGLT2gHDE5-81LBgJXzMF_rc3eQVFuJHMo1qKNtavRS-Mkpu1N0C1eZGdy8xkkkilpWOy0UUdKMxaWmX6B0G4uNo_jhoX97fi0lvVApLrx5thBjuzADdYYmpg0cUxnm6Hr5rUIs0pgvYgcW5NKGMV6jkmRA1NtXKkPjdST_gk3PjYwxrTjkrJwoyjZHwbp4R2HPfD-JRF0jtCqSxvUAqb4wClJWZnfMBMCxG-OI9l_B_mDC-trzs5EoOolRHMyT_sLc67iwyBW_cGK3K7MycOSqlZMEcorrDP3UT4wLg32MRSh0zon_mdg4WxPbAIRiqfJdL7gquUQLsnbhNSUDhAvb_0G00]--></g></svg>