<svg xmlns="http://www.w3.org/2000/svg" xmlns:xlink="http://www.w3.org/1999/xlink" contentStyleType="text/css" height="558px" preserveAspectRatio="none" style="width:977px;height:558px;background:#FFFFFF;" version="1.1" viewBox="0 0 977 558" width="977px" zoomAndPan="magnify"><defs><filter height="300%" id="f18mor75wvexe6" width="300%" x="-1" y="-1"><feGaussianBlur result="blurOut" stdDeviation="2"/><feColorMatrix in="blurOut" result="blurOut2" type="matrix" values="0 0 0 0 0 0 0 0 0 0 0 0 0 0 0 0 0 0 .4 0"/><feOffset dx="4" dy="4" in="blurOut2" result="blurOut3"/><feBlend in="SourceGraphic" in2="blurOut3" mode="normal"/></filter></defs><g><!--entity Destinat?rio--><g id="elem_Destinatário"><ellipse cx="48.8989" cy="249" fill="#F1F1F1" filter="url(#f18mor75wvexe6)" rx="8" ry="8" style="stroke:#181818;stroke-width:0.5;"/><path d="M48.8989,257 L48.8989,284 M35.8989,265 L61.8989,265 M48.8989,284 L35.8989,299 M48.8989,284 L61.8989,299 " fill="none" filter="url(#f18mor75wvexe6)" style="stroke:#181818;stroke-width:0.5;"/><text fill="#000000" font-family="sans-serif" font-size="14" lengthAdjust="spacing" textLength="85.7979" x="6" y="316.4951">Destinatário</text></g><!--entity NotificaStatusPedidoView--><g id="elem_NotificaStatusPedidoView"><path d="M269.9688,260 L269.9688,284 M269.9688,272 L286.9688,272 " fill="none" filter="url(#f18mor75wvexe6)" style="stroke:#181818;stroke-width:0.5;"/><ellipse cx="298.9688" cy="272" fill="#F1F1F1" filter="url(#f18mor75wvexe6)" rx="12" ry="12" style="stroke:#181818;stroke-width:0.5;"/><text fill="#000000" font-family="sans-serif" font-size="14" lengthAdjust="spacing" textLength="178.9375" x="201" y="300.9951">NotificaStatusPedidoView</text></g><!--entity RastreamentoEntregaView--><g id="elem_RastreamentoEntregaView"><path d="M269.895,343 L269.895,367 M269.895,355 L286.895,355 " fill="none" filter="url(#f18mor75wvexe6)" style="stroke:#181818;stroke-width:0.5;"/><ellipse cx="298.895" cy="355" fill="#F1F1F1" filter="url(#f18mor75wvexe6)" rx="12" ry="12" style="stroke:#181818;stroke-width:0.5;"/><text fill="#000000" font-family="sans-serif" font-size="14" lengthAdjust="spacing" textLength="187.79" x="196.5" y="383.9951">RastreamentoEntregaView</text></g><!--entity AgendaRecebimentoView--><g id="elem_AgendaRecebimentoView"><path d="M269.7764,426 L269.7764,450 M269.7764,438 L286.7764,438 " fill="none" filter="url(#f18mor75wvexe6)" style="stroke:#181818;stroke-width:0.5;"/><ellipse cx="298.7764" cy="438" fill="#F1F1F1" filter="url(#f18mor75wvexe6)" rx="12" ry="12" style="stroke:#181818;stroke-width:0.5;"/><text fill="#000000" font-family="sans-serif" font-size="14" lengthAdjust="spacing" textLength="179.5527" x="200.5" y="466.9951">AgendaRecebimentoView</text></g><!--entity RecebeNFDocumentosView--><g id="elem_RecebeNFDocumentosView"><path d="M269.7979,11 L269.7979,35 M269.7979,23 L286.7979,23 " fill="none" filter="url(#f18mor75wvexe6)" style="stroke:#181818;stroke-width:0.5;"/><ellipse cx="298.7979" cy="23" fill="#F1F1F1" filter="url(#f18mor75wvexe6)" rx="12" ry="12" style="stroke:#181818;stroke-width:0.5;"/><text fill="#000000" font-family="sans-serif" font-size="14" lengthAdjust="spacing" textLength="192.5957" x="194" y="51.9951">RecebeNFDocumentosView</text></g><!--entity AvaliacaoTransportadoraVendedorView--><g id="elem_AvaliacaoTransportadoraVendedorView"><path d="M270.0303,509 L270.0303,533 M270.0303,521 L287.0303,521 " fill="none" filter="url(#f18mor75wvexe6)" style="stroke:#181818;stroke-width:0.5;"/><ellipse cx="299.0303" cy="521" fill="#F1F1F1" filter="url(#f18mor75wvexe6)" rx="12" ry="12" style="stroke:#181818;stroke-width:0.5;"/><text fill="#000000" font-family="sans-serif" font-size="14" lengthAdjust="spacing" textLength="277.0605" x="152" y="549.9951">AvaliacaoTransportadoraVendedorView</text></g><!--entity AvaliacaoConformidadePedidoView--><g id="elem_AvaliacaoConformidadePedidoView"><path d="M270.2065,94 L270.2065,118 M270.2065,106 L287.2065,106 " fill="none" filter="url(#f18mor75wvexe6)" style="stroke:#181818;stroke-width:0.5;"/><ellipse cx="299.2065" cy="106" fill="#F1F1F1" filter="url(#f18mor75wvexe6)" rx="12" ry="12" style="stroke:#181818;stroke-width:0.5;"/><text fill="#000000" font-family="sans-serif" font-size="14" lengthAdjust="spacing" textLength="247.4131" x="167" y="134.9951">AvaliacaoConformidadePedidoView</text></g><!--entity AcionaSuporteView--><g id="elem_AcionaSuporteView"><path d="M269.8911,177 L269.8911,201 M269.8911,189 L286.8911,189 " fill="none" filter="url(#f18mor75wvexe6)" style="stroke:#181818;stroke-width:0.5;"/><ellipse cx="298.8911" cy="189" fill="#F1F1F1" filter="url(#f18mor75wvexe6)" rx="12" ry="12" style="stroke:#181818;stroke-width:0.5;"/><text fill="#000000" font-family="sans-serif" font-size="14" lengthAdjust="spacing" textLength="135.7822" x="222.5" y="217.9951">AcionaSuporteView</text></g><!--entity NotificaStatusPedidoController--><g id="elem_NotificaStatusPedidoController"><ellipse cx="645.29" cy="272" fill="#F1F1F1" filter="url(#f18mor75wvexe6)" rx="12" ry="12" style="stroke:#181818;stroke-width:0.5;"/><polygon fill="#181818" points="641.29,260,647.29,255,645.29,260,647.29,265,641.29,260" style="stroke:#181818;stroke-width:1;"/><text fill="#000000" font-family="sans-serif" font-size="14" lengthAdjust="spacing" textLength="214.5801" x="538" y="300.9951">NotificaStatusPedidoController</text></g><!--entity RastreamentoEntregaController--><g id="elem_RastreamentoEntregaController"><ellipse cx="645.7163" cy="355" fill="#F1F1F1" filter="url(#f18mor75wvexe6)" rx="12" ry="12" style="stroke:#181818;stroke-width:0.5;"/><polygon fill="#181818" points="641.7163,343,647.7163,338,645.7163,343,647.7163,348,641.7163,343" style="stroke:#181818;stroke-width:1;"/><text fill="#000000" font-family="sans-serif" font-size="14" lengthAdjust="spacing" textLength="223.4326" x="534" y="383.9951">RastreamentoEntregaController</text></g><!--entity AgendaRecebimentoController--><g id="elem_AgendaRecebimentoController"><ellipse cx="645.5977" cy="438" fill="#F1F1F1" filter="url(#f18mor75wvexe6)" rx="12" ry="12" style="stroke:#181818;stroke-width:0.5;"/><polygon fill="#181818" points="641.5977,426,647.5977,421,645.5977,426,647.5977,431,641.5977,426" style="stroke:#181818;stroke-width:1;"/><text fill="#000000" font-family="sans-serif" font-size="14" lengthAdjust="spacing" textLength="215.1953" x="538" y="466.9951">AgendaRecebimentoController</text></g><!--entity RecebeNFDocumentosController--><g id="elem_RecebeNFDocumentosController"><ellipse cx="645.6191" cy="23" fill="#F1F1F1" filter="url(#f18mor75wvexe6)" rx="12" ry="12" style="stroke:#181818;stroke-width:0.5;"/><polygon fill="#181818" points="641.6191,11,647.6191,6,645.6191,11,647.6191,16,641.6191,11" style="stroke:#181818;stroke-width:1;"/><text fill="#000000" font-family="sans-serif" font-size="14" lengthAdjust="spacing" textLength="228.2383" x="531.5" y="51.9951">RecebeNFDocumentosController</text></g><!--entity AvaliacaoTransportadoraVendedorController--><g id="elem_AvaliacaoTransportadoraVendedorController"><ellipse cx="645.3516" cy="521" fill="#F1F1F1" filter="url(#f18mor75wvexe6)" rx="12" ry="12" style="stroke:#181818;stroke-width:0.5;"/><polygon fill="#181818" points="641.3516,509,647.3516,504,645.3516,509,647.3516,514,641.3516,509" style="stroke:#181818;stroke-width:1;"/><text fill="#000000" font-family="sans-serif" font-size="14" lengthAdjust="spacing" textLength="312.7031" x="489" y="549.9951">AvaliacaoTransportadoraVendedorController</text></g><!--entity AvaliacaoConformidadePedidoController--><g id="elem_AvaliacaoConformidadePedidoController"><ellipse cx="645.5278" cy="106" fill="#F1F1F1" filter="url(#f18mor75wvexe6)" rx="12" ry="12" style="stroke:#181818;stroke-width:0.5;"/><polygon fill="#181818" points="641.5278,94,647.5278,89,645.5278,94,647.5278,99,641.5278,94" style="stroke:#181818;stroke-width:1;"/><text fill="#000000" font-family="sans-serif" font-size="14" lengthAdjust="spacing" textLength="283.0557" x="504" y="134.9951">AvaliacaoConformidadePedidoController</text></g><!--entity AcionaSuporteController--><g id="elem_AcionaSuporteController"><ellipse cx="645.7124" cy="189" fill="#F1F1F1" filter="url(#f18mor75wvexe6)" rx="12" ry="12" style="stroke:#181818;stroke-width:0.5;"/><polygon fill="#181818" points="641.7124,177,647.7124,172,645.7124,177,647.7124,182,641.7124,177" style="stroke:#181818;stroke-width:1;"/><text fill="#000000" font-family="sans-serif" font-size="14" lengthAdjust="spacing" textLength="171.4248" x="560" y="217.9951">AcionaSuporteController</text></g><!--entity Pedido--><g id="elem_Pedido"><ellipse cx="916.1421" cy="189" fill="#F1F1F1" filter="url(#f18mor75wvexe6)" rx="12" ry="12" style="stroke:#181818;stroke-width:0.5;"/><line style="stroke:#181818;stroke-width:0.5;" x1="904.1421" x2="928.1421" y1="203" y2="203"/><text fill="#000000" font-family="sans-serif" font-size="14" lengthAdjust="spacing" textLength="47.2842" x="892.5" y="217.9951">Pedido</text></g><!--entity Frete--><g id="elem_Frete"><ellipse cx="915.7622" cy="438" fill="#F1F1F1" filter="url(#f18mor75wvexe6)" rx="12" ry="12" style="stroke:#181818;stroke-width:0.5;"/><line style="stroke:#181818;stroke-width:0.5;" x1="903.7622" x2="927.7622" y1="452" y2="452"/><text fill="#000000" font-family="sans-serif" font-size="14" lengthAdjust="spacing" textLength="36.5244" x="897.5" y="466.9951">Frete</text></g><!--entity Transportadora--><g id="elem_Transportadora"><ellipse cx="916.0586" cy="355" fill="#F1F1F1" filter="url(#f18mor75wvexe6)" rx="12" ry="12" style="stroke:#181818;stroke-width:0.5;"/><line style="stroke:#181818;stroke-width:0.5;" x1="904.0586" x2="928.0586" y1="369" y2="369"/><text fill="#000000" font-family="sans-serif" font-size="14" lengthAdjust="spacing" textLength="108.1172" x="862" y="383.9951">Transportadora</text></g><!--entity Vendedor--><g id="elem_Vendedor"><ellipse cx="915.8857" cy="521" fill="#F1F1F1" filter="url(#f18mor75wvexe6)" rx="12" ry="12" style="stroke:#181818;stroke-width:0.5;"/><line style="stroke:#181818;stroke-width:0.5;" x1="903.8857" x2="927.8857" y1="535" y2="535"/><text fill="#000000" font-family="sans-serif" font-size="14" lengthAdjust="spacing" textLength="67.7715" x="882" y="549.9951">Vendedor</text></g><!--link Destinat?rio to NotificaStatusPedidoView--><g id="link_Destinatário_NotificaStatusPedidoView"><path d="M92.27,280 C122.21,280 157.49,280 194.54,280 " fill="none" id="Destinatário-to-NotificaStatusPedidoView" style="stroke:#181818;stroke-width:1;"/><polygon fill="#181818" points="200.54,280,191.54,276,195.54,280,191.54,284,200.54,280" style="stroke:#181818;stroke-width:1;"/></g><!--link Destinat?rio to RastreamentoEntregaView--><g id="link_Destinatário_RastreamentoEntregaView"><path d="M92.37,297.98 C110.59,305.46 132.2,314.01 152,321 C169.54,327.19 182.7783,331.5557 200.8683,337.1557 " fill="none" id="Destinatário-to-RastreamentoEntregaView" style="stroke:#181818;stroke-width:1;"/><polygon fill="#181818" points="206.6,338.93,199.1854,332.4474,201.8236,337.4514,196.8197,340.0896,206.6,338.93" style="stroke:#181818;stroke-width:1;"/></g><!--link Destinat?rio to AgendaRecebimentoView--><g id="link_Destinatário_AgendaRecebimentoView"><path d="M73.67,319.65 C91.9,347 119.44,382.23 152,404 C166.52,413.71 177.7216,419.2831 194.5516,425.1231 " fill="none" id="Destinatário-to-AgendaRecebimentoView" style="stroke:#181818;stroke-width:1;"/><polygon fill="#181818" points="200.22,427.09,193.0286,420.3606,195.4963,425.4509,190.4061,427.9185,200.22,427.09" style="stroke:#181818;stroke-width:1;"/></g><!--link Destinat?rio to RecebeNFDocumentosView--><g id="link_Destinatário_RecebeNFDocumentosView"><path d="M59.13,240.3 C71.95,193.4 99.81,116.17 152,72 C164.07,61.78 173.0169,56.2559 188.0569,50.4959 " fill="none" id="Destinatário-to-RecebeNFDocumentosView" style="stroke:#181818;stroke-width:1;"/><polygon fill="#181818" points="193.66,48.35,183.8247,47.8334,188.9907,50.1382,186.6859,55.3043,193.66,48.35" style="stroke:#181818;stroke-width:1;"/></g><!--link Destinat?rio to AvaliacaoTransportadoraVendedorView--><g id="link_Destinatário_AvaliacaoTransportadoraVendedorView"><path d="M59.35,319.86 C72.32,366.52 100.27,443.01 152,487 C160.37,494.11 164.5259,497.3925 174.6059,502.3025 " fill="none" id="Destinatário-to-AvaliacaoTransportadoraVendedorView" style="stroke:#181818;stroke-width:1;"/><polygon fill="#181818" points="180,504.93,173.6605,497.3927,175.5049,502.7404,170.1572,504.5848,180,504.93" style="stroke:#181818;stroke-width:1;"/></g><!--link Destinat?rio to AvaliacaoConformidadePedidoView--><g id="link_Destinatário_AvaliacaoConformidadePedidoView"><path d="M73.36,240.25 C91.54,212.6 119.14,176.91 152,155 C161.95,148.37 167.4536,145.0687 178.8436,140.3687 " fill="none" id="Destinatário-to-AvaliacaoConformidadePedidoView" style="stroke:#181818;stroke-width:1;"/><polygon fill="#181818" points="184.39,138.08,174.5447,137.8154,179.768,139.9872,177.5962,145.2106,184.39,138.08" style="stroke:#181818;stroke-width:1;"/></g><!--link Destinat?rio to AcionaSuporteView--><g id="link_Destinatário_AcionaSuporteView"><path d="M92.31,261.46 C110.52,253.77 132.14,245.03 152,238 C174.66,229.98 194.0235,223.8719 216.5135,217.2619 " fill="none" id="Destinatário-to-AcionaSuporteView" style="stroke:#181818;stroke-width:1;"/><polygon fill="#181818" points="222.27,215.57,212.5073,214.2702,217.4729,216.9799,214.7631,221.9455,222.27,215.57" style="stroke:#181818;stroke-width:1;"/></g><!--link NotificaStatusPedidoView to NotificaStatusPedidoController--><g id="link_NotificaStatusPedidoView_NotificaStatusPedidoController"><path d="M380.12,280 C428.01,280 481.49,280 531.9,280 " fill="none" id="NotificaStatusPedidoView-to-NotificaStatusPedidoController" style="stroke:#181818;stroke-width:1;"/><polygon fill="#181818" points="537.9,280,528.9,276,532.9,280,528.9,284,537.9,280" style="stroke:#181818;stroke-width:1;"/></g><!--link RastreamentoEntregaView to RastreamentoEntregaController--><g id="link_RastreamentoEntregaView_RastreamentoEntregaController"><path d="M384.71,363 C430.46,363 479.91,363 527.81,363 " fill="none" id="RastreamentoEntregaView-to-RastreamentoEntregaController" style="stroke:#181818;stroke-width:1;"/><polygon fill="#181818" points="533.81,363,524.81,359,528.81,363,524.81,367,533.81,363" style="stroke:#181818;stroke-width:1;"/></g><!--link AgendaRecebimentoView to AgendaRecebimentoController--><g id="link_AgendaRecebimentoView_AgendaRecebimentoController"><path d="M380.58,446 C428.37,446 481.6,446 531.84,446 " fill="none" id="AgendaRecebimentoView-to-AgendaRecebimentoController" style="stroke:#181818;stroke-width:1;"/><polygon fill="#181818" points="537.84,446,528.84,442,532.84,446,528.84,450,537.84,446" style="stroke:#181818;stroke-width:1;"/></g><!--link RecebeNFDocumentosView to RecebeNFDocumentosController--><g id="link_RecebeNFDocumentosView_RecebeNFDocumentosController"><path d="M387.03,31 C431.54,31 478.82,31 525.34,31 " fill="none" id="RecebeNFDocumentosView-to-RecebeNFDocumentosController" style="stroke:#181818;stroke-width:1;"/><polygon fill="#181818" points="531.34,31,522.34,27,526.34,31,522.34,35,531.34,31" style="stroke:#181818;stroke-width:1;"/></g><!--link AvaliacaoTransportadoraVendedorView to AvaliacaoTransportadoraVendedorController--><g id="link_AvaliacaoTransportadoraVendedorView_AvaliacaoTransportadoraVendedorController"><path d="M429.24,529 C448.78,529 462.99,529 482.84,529 " fill="none" id="AvaliacaoTransportadoraVendedorView-to-AvaliacaoTransportadoraVendedorController" style="stroke:#181818;stroke-width:1;"/><polygon fill="#181818" points="488.84,529,479.84,525,483.84,529,479.84,533,488.84,529" style="stroke:#181818;stroke-width:1;"/></g><!--link AvaliacaoConformidadePedidoView to AvaliacaoConformidadePedidoController--><g id="link_AvaliacaoConformidadePedidoView_AvaliacaoConformidadePedidoController"><path d="M414.47,114 C443.32,114 468.28,114 497.84,114 " fill="none" id="AvaliacaoConformidadePedidoView-to-AvaliacaoConformidadePedidoController" style="stroke:#181818;stroke-width:1;"/><polygon fill="#181818" points="503.84,114,494.84,110,498.84,114,494.84,118,503.84,114" style="stroke:#181818;stroke-width:1;"/></g><!--link AcionaSuporteView to AcionaSuporteController--><g id="link_AcionaSuporteView_AcionaSuporteController"><path d="M358.73,197 C415.84,197 492.11,197 553.73,197 " fill="none" id="AcionaSuporteView-to-AcionaSuporteController" style="stroke:#181818;stroke-width:1;"/><polygon fill="#181818" points="559.73,197,550.73,193,554.73,197,550.73,201,559.73,197" style="stroke:#181818;stroke-width:1;"/></g><!--link NotificaStatusPedidoController to Pedido--><g id="link_NotificaStatusPedidoController_Pedido"><path d="M740.61,255.95 C760.95,250.37 782.27,244.23 802,238 C833.64,228.01 863.9697,216.7632 886.6497,208.0432 " fill="none" id="NotificaStatusPedidoController-to-Pedido" style="stroke:#181818;stroke-width:1;"/><polygon fill="#181818" points="892.25,205.89,882.414,205.3863,887.5831,207.6843,885.285,212.8534,892.25,205.89" style="stroke:#181818;stroke-width:1;"/></g><!--link NotificaStatusPedidoController to Transportadora--><g id="link_NotificaStatusPedidoController_Transportadora"><path d="M743.56,304.02 C763.01,309.27 783.24,315.06 802,321 C821.75,327.26 837.5167,332.8408 856.2967,339.9308 " fill="none" id="NotificaStatusPedidoController-to-Transportadora" style="stroke:#181818;stroke-width:1;"/><polygon fill="#181818" points="861.91,342.05,854.9028,335.129,857.2323,340.284,852.0773,342.6134,861.91,342.05" style="stroke:#181818;stroke-width:1;"/></g><!--link RastreamentoEntregaController to Transportadora--><g id="link_RastreamentoEntregaController_Transportadora"><path d="M757.26,363 C793.37,363 825.83,363 855.73,363 " fill="none" id="RastreamentoEntregaController-to-Transportadora" style="stroke:#181818;stroke-width:1;"/><polygon fill="#181818" points="861.73,363,852.73,359,856.73,363,852.73,367,861.73,363" style="stroke:#181818;stroke-width:1;"/></g><!--link RastreamentoEntregaController to Pedido--><g id="link_RastreamentoEntregaController_Pedido"><path d="M757.23,341.51 C772.87,336.11 788.27,329.37 802,321 C844.02,295.36 876.4002,254.4769 895.8702,226.2869 " fill="none" id="RastreamentoEntregaController-to-Pedido" style="stroke:#181818;stroke-width:1;"/><polygon fill="#181818" points="899.28,221.35,890.874,226.4822,896.4385,225.4641,897.4566,231.0286,899.28,221.35" style="stroke:#181818;stroke-width:1;"/></g><!--link AgendaRecebimentoController to Frete--><g id="link_AgendaRecebimentoController_Frete"><path d="M753,446 C807.18,446 861.65,446 891.03,446 " fill="none" id="AgendaRecebimentoController-to-Frete" style="stroke:#181818;stroke-width:1;"/><polygon fill="#181818" points="897.03,446,888.03,442,892.03,446,888.03,450,897.03,446" style="stroke:#181818;stroke-width:1;"/></g><!--link AgendaRecebimentoController to Transportadora--><g id="link_AgendaRecebimentoController_Transportadora"><path d="M740.61,421.95 C760.95,416.37 782.27,410.23 802,404 C821.7,397.78 837.4284,392.3099 856.2284,385.3999 " fill="none" id="AgendaRecebimentoController-to-Transportadora" style="stroke:#181818;stroke-width:1;"/><polygon fill="#181818" points="861.86,383.33,852.0326,382.6805,857.167,385.0549,854.7925,390.1893,861.86,383.33" style="stroke:#181818;stroke-width:1;"/></g><!--link RecebeNFDocumentosController to Pedido--><g id="link_RecebeNFDocumentosController_Pedido"><path d="M759.7,52.51 C774.49,57.69 789,64.09 802,72 C844.48,97.86 876.996,139.5385 896.316,167.9485 " fill="none" id="RecebeNFDocumentosController-to-Pedido" style="stroke:#181818;stroke-width:1;"/><polygon fill="#181818" points="899.69,172.91,897.9366,163.2185,896.8783,168.7754,891.3214,167.7171,899.69,172.91" style="stroke:#181818;stroke-width:1;"/></g><!--link AvaliacaoTransportadoraVendedorController to Transportadora--><g id="link_AvaliacaoTransportadoraVendedorController_Transportadora"><path d="M768.57,504.84 C780.38,499.95 791.76,494.07 802,487 C839.46,461.14 830.34,436.7 862,404 C867.66,398.15 869.5118,396.1869 876.0118,390.9669 " fill="none" id="AvaliacaoTransportadoraVendedorController-to-Transportadora" style="stroke:#181818;stroke-width:1;"/><polygon fill="#181818" points="880.69,387.21,871.1681,389.7266,876.7915,390.3408,876.1774,395.9642,880.69,387.21" style="stroke:#181818;stroke-width:1;"/></g><!--link AvaliacaoTransportadoraVendedorController to Vendedor--><g id="link_AvaliacaoTransportadoraVendedorController_Vendedor"><path d="M802.3,529 C832.37,529 854.97,529 875.83,529 " fill="none" id="AvaliacaoTransportadoraVendedorController-to-Vendedor" style="stroke:#181818;stroke-width:1;"/><polygon fill="#181818" points="881.83,529,872.83,525,876.83,529,872.83,533,881.83,529" style="stroke:#181818;stroke-width:1;"/></g><!--link AvaliacaoConformidadePedidoController to Pedido--><g id="link_AvaliacaoConformidadePedidoController_Pedido"><path d="M743.56,138.02 C763.01,143.27 783.24,149.06 802,155 C833.72,165.05 864.0529,176.6074 886.7129,185.5974 " fill="none" id="AvaliacaoConformidadePedidoController-to-Pedido" style="stroke:#181818;stroke-width:1;"/><polygon fill="#181818" points="892.29,187.81,885.3994,180.773,887.6424,185.9661,882.4492,188.2091,892.29,187.81" style="stroke:#181818;stroke-width:1;"/></g><!--link AcionaSuporteController to Pedido--><g id="link_AcionaSuporteController_Pedido"><path d="M731.09,197 C787.35,197 851.15,197 886.39,197 " fill="none" id="AcionaSuporteController-to-Pedido" style="stroke:#181818;stroke-width:1;"/><polygon fill="#181818" points="892.39,197,883.39,193,887.39,197,883.39,201,892.39,197" style="stroke:#181818;stroke-width:1;"/></g><!--SRC=[bP9BSi8m38RtFeLtNN65pb0UIwP3M_R24S7JO3EsKeRZz2ozM4r26YUHGyfAGRyU_lGNU219LZgT7qbcsg4YROtmdzgSmS59-YDazg9DBicLA0GeiaukqPCsG3_VJbiXdkIizvCVYzbo5H8ljZGPE8rUxElmAZUMz44hU2EWqhzYfZExqtXf5Llmv11EQCYkJ0Xpw0hcEOPWYmhtkbBrwcy9tAoNLfLLslVAlw3GeC2-Ep3-R1s5LphOXQOOWeHuOSt1kfFE84DkwxaAxE2jlFN3AXK0X29ojYZGUQ7gc0NGwlva30L6DK31THhmu1gDGnch69BXr36UA2ywRWfMUauxP2XDMMMev3t3TEJDmpISuAAHgeITc8gXhrA0alGYtWbYAPfH9KkGPnlFOtacKCVJ7kETSWQk8u_-qNdYJlsJ30yLEpmyJTDLrcsQhxL3mkQZktlpR_C6_k3jX6hwlVi4PM-O6BqwL_6uuBwC6356fQiXF58D5XxnJNVyL6zmO_vNtDvgaeMwQ_B6YJI_]--></g></svg>