<svg xmlns="http://www.w3.org/2000/svg" xmlns:xlink="http://www.w3.org/1999/xlink" contentStyleType="text/css" height="309px" preserveAspectRatio="none" style="width:805px;height:309px;background:#FFFFFF;" version="1.1" viewBox="0 0 805 309" width="805px" zoomAndPan="magnify"><defs><filter height="300%" id="fdb54lc3ck0jn" width="300%" x="-1" y="-1"><feGaussianBlur result="blurOut" stdDeviation="2"/><feColorMatrix in="blurOut" result="blurOut2" type="matrix" values="0 0 0 0 0 0 0 0 0 0 0 0 0 0 0 0 0 0 .4 0"/><feOffset dx="4" dy="4" in="blurOut2" result="blurOut3"/><feBlend in="SourceGraphic" in2="blurOut3" mode="normal"/></filter></defs><g><!--entity Distribuidor--><g id="elem_Distribuidor"><ellipse cx="46.978" cy="125" fill="#F1F1F1" filter="url(#fdb54lc3ck0jn)" rx="8" ry="8" style="stroke:#181818;stroke-width:0.5;"/><path d="M46.978,133 L46.978,160 M33.978,141 L59.978,141 M46.978,160 L33.978,175 M46.978,160 L59.978,175 " fill="none" filter="url(#fdb54lc3ck0jn)" style="stroke:#181818;stroke-width:0.5;"/><text fill="#000000" font-family="sans-serif" font-size="14" lengthAdjust="spacing" textLength="81.9561" x="6" y="192.4951">Distribuidor</text></g><!--entity GerenciaDevolucoesView--><g id="elem_GerenciaDevolucoesView"><path d="M223.7886,11 L223.7886,35 M223.7886,23 L240.7886,23 " fill="none" filter="url(#fdb54lc3ck0jn)" style="stroke:#181818;stroke-width:0.5;"/><ellipse cx="252.7886" cy="23" fill="#F1F1F1" filter="url(#fdb54lc3ck0jn)" rx="12" ry="12" style="stroke:#181818;stroke-width:0.5;"/><text fill="#000000" font-family="sans-serif" font-size="14" lengthAdjust="spacing" textLength="177.5771" x="155.5" y="51.9951">GerenciaDevolucoesView</text></g><!--entity OrganizaEntregasView--><g id="elem_OrganizaEntregasView"><path d="M223.8994,260 L223.8994,284 M223.8994,272 L240.8994,272 " fill="none" filter="url(#fdb54lc3ck0jn)" style="stroke:#181818;stroke-width:0.5;"/><ellipse cx="252.8994" cy="272" fill="#F1F1F1" filter="url(#fdb54lc3ck0jn)" rx="12" ry="12" style="stroke:#181818;stroke-width:0.5;"/><text fill="#000000" font-family="sans-serif" font-size="14" lengthAdjust="spacing" textLength="158.7988" x="165" y="300.9951">OrganizaEntregasView</text></g><!--entity LogisticaPersonalizadaView--><g id="elem_LogisticaPersonalizadaView"><path d="M223.9585,94 L223.9585,118 M223.9585,106 L240.9585,106 " fill="none" filter="url(#fdb54lc3ck0jn)" style="stroke:#181818;stroke-width:0.5;"/><ellipse cx="252.9585" cy="106" fill="#F1F1F1" filter="url(#fdb54lc3ck0jn)" rx="12" ry="12" style="stroke:#181818;stroke-width:0.5;"/><text fill="#000000" font-family="sans-serif" font-size="14" lengthAdjust="spacing" textLength="192.917" x="148" y="134.9951">LogisticaPersonalizadaView</text></g><!--entity NotificaNovosPedidosView--><g id="elem_NotificaNovosPedidosView"><path d="M223.9014,177 L223.9014,201 M223.9014,189 L240.9014,189 " fill="none" filter="url(#fdb54lc3ck0jn)" style="stroke:#181818;stroke-width:0.5;"/><ellipse cx="252.9014" cy="189" fill="#F1F1F1" filter="url(#fdb54lc3ck0jn)" rx="12" ry="12" style="stroke:#181818;stroke-width:0.5;"/><text fill="#000000" font-family="sans-serif" font-size="14" lengthAdjust="spacing" textLength="184.8027" x="152" y="217.9951">NotificaNovosPedidosView</text></g><!--entity GerenciaDevolucoesController--><g id="elem_GerenciaDevolucoesController"><ellipse cx="515.6099" cy="23" fill="#F1F1F1" filter="url(#fdb54lc3ck0jn)" rx="12" ry="12" style="stroke:#181818;stroke-width:0.5;"/><polygon fill="#181818" points="511.6099,11,517.6099,6,515.6099,11,517.6099,16,511.6099,11" style="stroke:#181818;stroke-width:1;"/><text fill="#000000" font-family="sans-serif" font-size="14" lengthAdjust="spacing" textLength="213.2197" x="409" y="51.9951">GerenciaDevolucoesController</text></g><!--entity OrganizaEntregasController--><g id="elem_OrganizaEntregasController"><ellipse cx="515.7207" cy="272" fill="#F1F1F1" filter="url(#fdb54lc3ck0jn)" rx="12" ry="12" style="stroke:#181818;stroke-width:0.5;"/><polygon fill="#181818" points="511.7207,260,517.7207,255,515.7207,260,517.7207,265,511.7207,260" style="stroke:#181818;stroke-width:1;"/><text fill="#000000" font-family="sans-serif" font-size="14" lengthAdjust="spacing" textLength="194.4414" x="418.5" y="300.9951">OrganizaEntregasController</text></g><!--entity LogisticaPersonalizadaController--><g id="elem_LogisticaPersonalizadaController"><ellipse cx="515.2798" cy="106" fill="#F1F1F1" filter="url(#fdb54lc3ck0jn)" rx="12" ry="12" style="stroke:#181818;stroke-width:0.5;"/><polygon fill="#181818" points="511.2798,94,517.2798,89,515.2798,94,517.2798,99,511.2798,94" style="stroke:#181818;stroke-width:1;"/><text fill="#000000" font-family="sans-serif" font-size="14" lengthAdjust="spacing" textLength="228.5596" x="401" y="134.9951">LogisticaPersonalizadaController</text></g><!--entity NotificaNovosPedidosController--><g id="elem_NotificaNovosPedidosController"><ellipse cx="515.7227" cy="189" fill="#F1F1F1" filter="url(#fdb54lc3ck0jn)" rx="12" ry="12" style="stroke:#181818;stroke-width:0.5;"/><polygon fill="#181818" points="511.7227,177,517.7227,172,515.7227,177,517.7227,182,511.7227,177" style="stroke:#181818;stroke-width:1;"/><text fill="#000000" font-family="sans-serif" font-size="14" lengthAdjust="spacing" textLength="220.4453" x="405.5" y="217.9951">NotificaNovosPedidosController</text></g><!--entity Estoque--><g id="elem_Estoque"><ellipse cx="743.7837" cy="23" fill="#F1F1F1" filter="url(#fdb54lc3ck0jn)" rx="12" ry="12" style="stroke:#181818;stroke-width:0.5;"/><line style="stroke:#181818;stroke-width:0.5;" x1="731.7837" x2="755.7837" y1="37" y2="37"/><text fill="#000000" font-family="sans-serif" font-size="14" lengthAdjust="spacing" textLength="56.5674" x="715.5" y="51.9951">Estoque</text></g><!--entity Pedido--><g id="elem_Pedido"><ellipse cx="744.1421" cy="189" fill="#F1F1F1" filter="url(#fdb54lc3ck0jn)" rx="12" ry="12" style="stroke:#181818;stroke-width:0.5;"/><line style="stroke:#181818;stroke-width:0.5;" x1="732.1421" x2="756.1421" y1="203" y2="203"/><text fill="#000000" font-family="sans-serif" font-size="14" lengthAdjust="spacing" textLength="47.2842" x="720.5" y="217.9951">Pedido</text></g><!--entity Endereco--><g id="elem_Endereco"><ellipse cx="743.9253" cy="272" fill="#F1F1F1" filter="url(#fdb54lc3ck0jn)" rx="12" ry="12" style="stroke:#181818;stroke-width:0.5;"/><line style="stroke:#181818;stroke-width:0.5;" x1="731.9253" x2="755.9253" y1="286" y2="286"/><text fill="#000000" font-family="sans-serif" font-size="14" lengthAdjust="spacing" textLength="65.8506" x="711" y="300.9951">Endereco</text></g><!--entity Transportadora--><g id="elem_Transportadora"><ellipse cx="744.0586" cy="106" fill="#F1F1F1" filter="url(#fdb54lc3ck0jn)" rx="12" ry="12" style="stroke:#181818;stroke-width:0.5;"/><line style="stroke:#181818;stroke-width:0.5;" x1="732.0586" x2="756.0586" y1="120" y2="120"/><text fill="#000000" font-family="sans-serif" font-size="14" lengthAdjust="spacing" textLength="108.1172" x="690" y="134.9951">Transportadora</text></g><!--link Distribuidor to GerenciaDevolucoesView--><g id="link_Distribuidor_GerenciaDevolucoesView"><path d="M88.24,117.54 C105.71,102.11 126.96,84.96 148,72 C158.06,65.8 163.7775,62.594 174.8175,57.524 " fill="none" id="Distribuidor-to-GerenciaDevolucoesView" style="stroke:#181818;stroke-width:1;"/><polygon fill="#181818" points="180.27,55.02,170.4219,55.141,175.7262,57.1067,173.7606,62.411,180.27,55.02" style="stroke:#181818;stroke-width:1;"/></g><!--link Distribuidor to OrganizaEntregasView--><g id="link_Distribuidor_OrganizaEntregasView"><path d="M88.42,193.4 C105.92,208.43 127.14,225.2 148,238 C158.65,244.54 165.0553,248.0791 176.6753,253.4591 " fill="none" id="Distribuidor-to-OrganizaEntregasView" style="stroke:#181818;stroke-width:1;"/><polygon fill="#181818" points="182.12,255.98,175.6335,248.5689,177.5827,253.8793,172.2723,255.8285,182.12,255.98" style="stroke:#181818;stroke-width:1;"/></g><!--link Distribuidor to LogisticaPersonalizadaView--><g id="link_Distribuidor_LogisticaPersonalizadaView"><path d="M88.03,147.4 C105.46,143.66 120.8336,140.3489 141.9436,135.8189 " fill="none" id="Distribuidor-to-LogisticaPersonalizadaView" style="stroke:#181818;stroke-width:1;"/><polygon fill="#181818" points="147.81,134.56,138.1711,132.5374,142.9213,135.6091,139.8496,140.3593,147.81,134.56" style="stroke:#181818;stroke-width:1;"/></g><!--link Distribuidor to NotificaNovosPedidosView--><g id="link_Distribuidor_NotificaNovosPedidosView"><path d="M88.03,164.4 C106.58,168.28 123.5675,171.8495 145.9975,176.5495 " fill="none" id="Distribuidor-to-NotificaNovosPedidosView" style="stroke:#181818;stroke-width:1;"/><polygon fill="#181818" points="151.87,177.78,143.8817,172.0192,146.9763,176.7546,142.241,179.8492,151.87,177.78" style="stroke:#181818;stroke-width:1;"/></g><!--link GerenciaDevolucoesView to GerenciaDevolucoesController--><g id="link_GerenciaDevolucoesView_GerenciaDevolucoesController"><path d="M333.58,31 C357.64,31 377.95,31 402.88,31 " fill="none" id="GerenciaDevolucoesView-to-GerenciaDevolucoesController" style="stroke:#181818;stroke-width:1;"/><polygon fill="#181818" points="408.88,31,399.88,27,403.88,31,399.88,35,408.88,31" style="stroke:#181818;stroke-width:1;"/></g><!--link OrganizaEntregasView to OrganizaEntregasController--><g id="link_OrganizaEntregasView_OrganizaEntregasController"><path d="M324.03,280 C353.49,280 381.32,280 412.21,280 " fill="none" id="OrganizaEntregasView-to-OrganizaEntregasController" style="stroke:#181818;stroke-width:1;"/><polygon fill="#181818" points="418.21,280,409.21,276,413.21,280,409.21,284,418.21,280" style="stroke:#181818;stroke-width:1;"/></g><!--link LogisticaPersonalizadaView to LogisticaPersonalizadaController--><g id="link_LogisticaPersonalizadaView_LogisticaPersonalizadaController"><path d="M341.1,114 C360.43,114 374.93,114 394.81,114 " fill="none" id="LogisticaPersonalizadaView-to-LogisticaPersonalizadaController" style="stroke:#181818;stroke-width:1;"/><polygon fill="#181818" points="400.81,114,391.81,110,395.81,114,391.81,118,400.81,114" style="stroke:#181818;stroke-width:1;"/></g><!--link NotificaNovosPedidosView to NotificaNovosPedidosController--><g id="link_NotificaNovosPedidosView_NotificaNovosPedidosController"><path d="M337.32,197 C359.24,197 376.84,197 399.45,197 " fill="none" id="NotificaNovosPedidosView-to-NotificaNovosPedidosController" style="stroke:#181818;stroke-width:1;"/><polygon fill="#181818" points="405.45,197,396.45,193,400.45,197,396.45,201,405.45,197" style="stroke:#181818;stroke-width:1;"/></g><!--link GerenciaDevolucoesController to Estoque--><g id="link_GerenciaDevolucoesController_Estoque"><path d="M622.12,31 C656.49,31 685.8,31 709.31,31 " fill="none" id="GerenciaDevolucoesController-to-Estoque" style="stroke:#181818;stroke-width:1;"/><polygon fill="#181818" points="715.31,31,706.31,27,710.31,31,706.31,35,715.31,31" style="stroke:#181818;stroke-width:1;"/></g><!--link GerenciaDevolucoesController to Transportadora--><g id="link_GerenciaDevolucoesController_Transportadora"><path d="M583.46,55.07 C598.76,60.61 614.95,66.49 630,72 C649.55,79.17 665.3571,85.0163 684.2371,92.0463 " fill="none" id="GerenciaDevolucoesController-to-Transportadora" style="stroke:#181818;stroke-width:1;"/><polygon fill="#181818" points="689.86,94.14,682.8215,87.2509,685.1743,92.3953,680.0299,94.7481,689.86,94.14" style="stroke:#181818;stroke-width:1;"/></g><!--link OrganizaEntregasController to Pedido--><g id="link_OrganizaEntregasController_Pedido"><path d="M582.01,255.99 C628.66,238.9 682.886,219.0236 714.856,207.3136 " fill="none" id="OrganizaEntregasController-to-Pedido" style="stroke:#181818;stroke-width:1;"/><polygon fill="#181818" points="720.49,205.25,710.6633,204.5894,715.795,206.9697,713.4148,212.1014,720.49,205.25" style="stroke:#181818;stroke-width:1;"/></g><!--link OrganizaEntregasController to Endereco--><g id="link_OrganizaEntregasController_Endereco"><path d="M612.56,280 C647.76,280 679.24,280 704.95,280 " fill="none" id="OrganizaEntregasController-to-Endereco" style="stroke:#181818;stroke-width:1;"/><polygon fill="#181818" points="710.95,280,701.95,276,705.95,280,701.95,284,710.95,280" style="stroke:#181818;stroke-width:1;"/></g><!--link LogisticaPersonalizadaController to Pedido--><g id="link_LogisticaPersonalizadaController_Pedido"><path d="M583.46,138.07 C598.76,143.61 614.95,149.49 630,155 C661.25,166.45 691.6501,177.7784 714.4601,186.3084 " fill="none" id="LogisticaPersonalizadaController-to-Pedido" style="stroke:#181818;stroke-width:1;"/><polygon fill="#181818" points="720.08,188.41,713.0512,181.511,715.3968,186.6587,710.2491,189.0042,720.08,188.41" style="stroke:#181818;stroke-width:1;"/></g><!--link LogisticaPersonalizadaController to Transportadora--><g id="link_LogisticaPersonalizadaController_Transportadora"><path d="M630.08,114 C650.94,114 665.79,114 683.79,114 " fill="none" id="LogisticaPersonalizadaController-to-Transportadora" style="stroke:#181818;stroke-width:1;"/><polygon fill="#181818" points="689.79,114,680.79,110,684.79,114,680.79,118,689.79,114" style="stroke:#181818;stroke-width:1;"/></g><!--link NotificaNovosPedidosController to Pedido--><g id="link_NotificaNovosPedidosController_Pedido"><path d="M625.77,197 C661.52,197 691.79,197 714.33,197 " fill="none" id="NotificaNovosPedidosController-to-Pedido" style="stroke:#181818;stroke-width:1;"/><polygon fill="#181818" points="720.33,197,711.33,193,715.33,197,711.33,201,720.33,197" style="stroke:#181818;stroke-width:1;"/></g><!--SRC=[ZPF1JW8n48RlVOhUFF4A7WHYJ0noKEz3EomJrmvEPo7uz3OiBdLfmJsrcQ_JR_vDMrohLRP2pKQj9q6dnC743mfR4FYqSGEUznGQgzAXCU2KnSuegj2g8yzYp9sTZ3xxDftCdbBXWRlWGGYZMVNBWtr4mU08PhZZjdECyPrmVww_I0E1lc4ULB21KVMPctGvELYYH0xG9jB3NsR1Ikk4B7Z7SOa-QVPTaj6KKrjkstJQk7vTC3fJ0pJMAY1bjm9O4imma-URmhslPNR15RExeAvaUC7MiomxLNIpwKgEHVdiJDtuoa3P-TeKrH7plu51IGzs7fM_qXiuRNjmA0QVPdR3_bKWn2sBfkSZK0hhVCDHuhVxJN3SkPxQ4Jzftg06VNChohpflzYnx_Mqi_O_]--></g></svg>