<svg xmlns="http://www.w3.org/2000/svg" xmlns:xlink="http://www.w3.org/1999/xlink" contentStyleType="text/css" height="475px" preserveAspectRatio="none" style="width:867px;height:475px;background:#FFFFFF;" version="1.1" viewBox="0 0 867 475" width="867px" zoomAndPan="magnify"><defs><filter height="300%" id="fmfp2p2wy4pi6" width="300%" x="-1" y="-1"><feGaussianBlur result="blurOut" stdDeviation="2"/><feColorMatrix in="blurOut" result="blurOut2" type="matrix" values="0 0 0 0 0 0 0 0 0 0 0 0 0 0 0 0 0 0 .4 0"/><feOffset dx="4" dy="4" in="blurOut2" result="blurOut3"/><feBlend in="SourceGraphic" in2="blurOut3" mode="normal"/></filter></defs><g><!--entity Vendedor--><g id="elem_Vendedor"><ellipse cx="39.8857" cy="208" fill="#F1F1F1" filter="url(#fmfp2p2wy4pi6)" rx="8" ry="8" style="stroke:#181818;stroke-width:0.5;"/><path d="M39.8857,216 L39.8857,243 M26.8857,224 L52.8857,224 M39.8857,243 L26.8857,258 M39.8857,243 L52.8857,258 " fill="none" filter="url(#fmfp2p2wy4pi6)" style="stroke:#181818;stroke-width:0.5;"/><text fill="#000000" font-family="sans-serif" font-size="14" lengthAdjust="spacing" textLength="67.7715" x="6" y="275.4951">Vendedor</text></g><!--entity GerenciaContaBancariaView--><g id="elem_GerenciaContaBancariaView"><path d="M227.1201,11 L227.1201,35 M227.1201,23 L244.1201,23 " fill="none" filter="url(#fmfp2p2wy4pi6)" style="stroke:#181818;stroke-width:0.5;"/><ellipse cx="256.1201" cy="23" fill="#F1F1F1" filter="url(#fmfp2p2wy4pi6)" rx="12" ry="12" style="stroke:#181818;stroke-width:0.5;"/><text fill="#000000" font-family="sans-serif" font-size="14" lengthAdjust="spacing" textLength="199.2402" x="148" y="51.9951">GerenciaContaBancariaView</text></g><!--entity GerenciaEnderecoColetaView--><g id="elem_GerenciaEnderecoColetaView"><path d="M227.0815,94 L227.0815,118 M227.0815,106 L244.0815,106 " fill="none" filter="url(#fmfp2p2wy4pi6)" style="stroke:#181818;stroke-width:0.5;"/><ellipse cx="256.0815" cy="106" fill="#F1F1F1" filter="url(#fmfp2p2wy4pi6)" rx="12" ry="12" style="stroke:#181818;stroke-width:0.5;"/><text fill="#000000" font-family="sans-serif" font-size="14" lengthAdjust="spacing" textLength="207.1631" x="144" y="134.9951">GerenciaEnderecoColetaView</text></g><!--entity GerenciaCadastroVendedorView--><g id="elem_GerenciaCadastroVendedorView"><path d="M227.0483,177 L227.0483,201 M227.0483,189 L244.0483,189 " fill="none" filter="url(#fmfp2p2wy4pi6)" style="stroke:#181818;stroke-width:0.5;"/><ellipse cx="256.0483" cy="189" fill="#F1F1F1" filter="url(#fmfp2p2wy4pi6)" rx="12" ry="12" style="stroke:#181818;stroke-width:0.5;"/><text fill="#000000" font-family="sans-serif" font-size="14" lengthAdjust="spacing" textLength="227.0967" x="134" y="217.9951">GerenciaCadastroVendedorView</text></g><!--entity RelatorioVendasView--><g id="elem_RelatorioVendasView"><path d="M227.2144,260 L227.2144,284 M227.2144,272 L244.2144,272 " fill="none" filter="url(#fmfp2p2wy4pi6)" style="stroke:#181818;stroke-width:0.5;"/><ellipse cx="256.2144" cy="272" fill="#F1F1F1" filter="url(#fmfp2p2wy4pi6)" rx="12" ry="12" style="stroke:#181818;stroke-width:0.5;"/><text fill="#000000" font-family="sans-serif" font-size="14" lengthAdjust="spacing" textLength="148.4287" x="173.5" y="300.9951">RelatorioVendasView</text></g><!--entity DescontosPromocionaisView--><g id="elem_DescontosPromocionaisView"><path d="M227.2285,343 L227.2285,367 M227.2285,355 L244.2285,355 " fill="none" filter="url(#fmfp2p2wy4pi6)" style="stroke:#181818;stroke-width:0.5;"/><ellipse cx="256.2285" cy="355" fill="#F1F1F1" filter="url(#fmfp2p2wy4pi6)" rx="12" ry="12" style="stroke:#181818;stroke-width:0.5;"/><text fill="#000000" font-family="sans-serif" font-size="14" lengthAdjust="spacing" textLength="200.457" x="147.5" y="383.9951">DescontosPromocionaisView</text></g><!--entity RespostasDuvidasView--><g id="elem_RespostasDuvidasView"><path d="M226.9307,426 L226.9307,450 M226.9307,438 L243.9307,438 " fill="none" filter="url(#fmfp2p2wy4pi6)" style="stroke:#181818;stroke-width:0.5;"/><ellipse cx="255.9307" cy="438" fill="#F1F1F1" filter="url(#fmfp2p2wy4pi6)" rx="12" ry="12" style="stroke:#181818;stroke-width:0.5;"/><text fill="#000000" font-family="sans-serif" font-size="14" lengthAdjust="spacing" textLength="161.8613" x="166.5" y="466.9951">RespostasDuvidasView</text></g><!--entity GerenciaContaBancariaController--><g id="elem_GerenciaContaBancariaController"><ellipse cx="552.4414" cy="23" fill="#F1F1F1" filter="url(#fmfp2p2wy4pi6)" rx="12" ry="12" style="stroke:#181818;stroke-width:0.5;"/><polygon fill="#181818" points="548.4414,11,554.4414,6,552.4414,11,554.4414,16,548.4414,11" style="stroke:#181818;stroke-width:1;"/><text fill="#000000" font-family="sans-serif" font-size="14" lengthAdjust="spacing" textLength="234.8828" x="435" y="51.9951">GerenciaContaBancariaController</text></g><!--entity GerenciaEnderecoColetaController--><g id="elem_GerenciaEnderecoColetaController"><ellipse cx="552.4028" cy="106" fill="#F1F1F1" filter="url(#fmfp2p2wy4pi6)" rx="12" ry="12" style="stroke:#181818;stroke-width:0.5;"/><polygon fill="#181818" points="548.4028,94,554.4028,89,552.4028,94,554.4028,99,548.4028,94" style="stroke:#181818;stroke-width:1;"/><text fill="#000000" font-family="sans-serif" font-size="14" lengthAdjust="spacing" textLength="242.8057" x="431" y="134.9951">GerenciaEnderecoColetaController</text></g><!--entity GerenciaCadastroVendedorController--><g id="elem_GerenciaCadastroVendedorController"><ellipse cx="552.3696" cy="189" fill="#F1F1F1" filter="url(#fmfp2p2wy4pi6)" rx="12" ry="12" style="stroke:#181818;stroke-width:0.5;"/><polygon fill="#181818" points="548.3696,177,554.3696,172,552.3696,177,554.3696,182,548.3696,177" style="stroke:#181818;stroke-width:1;"/><text fill="#000000" font-family="sans-serif" font-size="14" lengthAdjust="spacing" textLength="262.7393" x="421" y="217.9951">GerenciaCadastroVendedorController</text></g><!--entity RelatorioVendasController--><g id="elem_RelatorioVendasController"><ellipse cx="552.5356" cy="272" fill="#F1F1F1" filter="url(#fmfp2p2wy4pi6)" rx="12" ry="12" style="stroke:#181818;stroke-width:0.5;"/><polygon fill="#181818" points="548.5356,260,554.5356,255,552.5356,260,554.5356,265,548.5356,260" style="stroke:#181818;stroke-width:1;"/><text fill="#000000" font-family="sans-serif" font-size="14" lengthAdjust="spacing" textLength="184.0713" x="460.5" y="300.9951">RelatorioVendasController</text></g><!--entity DescontosPromocionaisController--><g id="elem_DescontosPromocionaisController"><ellipse cx="552.5498" cy="355" fill="#F1F1F1" filter="url(#fmfp2p2wy4pi6)" rx="12" ry="12" style="stroke:#181818;stroke-width:0.5;"/><polygon fill="#181818" points="548.5498,343,554.5498,338,552.5498,343,554.5498,348,548.5498,343" style="stroke:#181818;stroke-width:1;"/><text fill="#000000" font-family="sans-serif" font-size="14" lengthAdjust="spacing" textLength="236.0996" x="434.5" y="383.9951">DescontosPromocionaisController</text></g><!--entity RespostasDuvidasController--><g id="elem_RespostasDuvidasController"><ellipse cx="552.252" cy="438" fill="#F1F1F1" filter="url(#fmfp2p2wy4pi6)" rx="12" ry="12" style="stroke:#181818;stroke-width:0.5;"/><polygon fill="#181818" points="548.252,426,554.252,421,552.252,426,554.252,431,548.252,426" style="stroke:#181818;stroke-width:1;"/><text fill="#000000" font-family="sans-serif" font-size="14" lengthAdjust="spacing" textLength="197.5039" x="453.5" y="466.9951">RespostasDuvidasController</text></g><!--entity Produto--><g id="elem_Produto"><ellipse cx="801.7891" cy="438" fill="#F1F1F1" filter="url(#fmfp2p2wy4pi6)" rx="12" ry="12" style="stroke:#181818;stroke-width:0.5;"/><line style="stroke:#181818;stroke-width:0.5;" x1="789.7891" x2="813.7891" y1="452" y2="452"/><text fill="#000000" font-family="sans-serif" font-size="14" lengthAdjust="spacing" textLength="54.5781" x="774.5" y="466.9951">Produto</text></g><!--entity HistoricoPedidos--><g id="elem_HistoricoPedidos"><ellipse cx="802.126" cy="272" fill="#F1F1F1" filter="url(#fmfp2p2wy4pi6)" rx="12" ry="12" style="stroke:#181818;stroke-width:0.5;"/><line style="stroke:#181818;stroke-width:0.5;" x1="790.126" x2="814.126" y1="286" y2="286"/><text fill="#000000" font-family="sans-serif" font-size="14" lengthAdjust="spacing" textLength="116.252" x="744" y="300.9951">HistoricoPedidos</text></g><!--entity ven--><g id="elem_ven"><ellipse cx="801.8857" cy="106" fill="#F1F1F1" filter="url(#fmfp2p2wy4pi6)" rx="12" ry="12" style="stroke:#181818;stroke-width:0.5;"/><line style="stroke:#181818;stroke-width:0.5;" x1="789.8857" x2="813.8857" y1="120" y2="120"/><text fill="#000000" font-family="sans-serif" font-size="14" lengthAdjust="spacing" textLength="67.7715" x="768" y="134.9951">Vendedor</text></g><!--entity Cupom--><g id="elem_Cupom"><ellipse cx="801.8691" cy="355" fill="#F1F1F1" filter="url(#fmfp2p2wy4pi6)" rx="12" ry="12" style="stroke:#181818;stroke-width:0.5;"/><line style="stroke:#181818;stroke-width:0.5;" x1="789.8691" x2="813.8691" y1="369" y2="369"/><text fill="#000000" font-family="sans-serif" font-size="14" lengthAdjust="spacing" textLength="49.7383" x="777" y="383.9951">Cupom</text></g><!--link Vendedor to GerenciaContaBancariaView--><g id="link_Vendedor_GerenciaContaBancariaView"><path d="M53.91,199.28 C68.03,161.66 94.1,106.02 134,72 C141.75,65.39 145.3038,62.5139 154.6338,57.8039 " fill="none" id="Vendedor-to-GerenciaContaBancariaView" style="stroke:#181818;stroke-width:1;"/><polygon fill="#181818" points="159.99,55.1,150.1531,55.5851,155.5265,57.3533,153.7583,62.7267,159.99,55.1" style="stroke:#181818;stroke-width:1;"/></g><!--link Vendedor to GerenciaEnderecoColetaView--><g id="link_Vendedor_GerenciaEnderecoColetaView"><path d="M74.19,203.21 C90.89,186.81 112.19,168.13 134,155 C144.6,148.62 150.7954,145.283 162.5954,140.403 " fill="none" id="Vendedor-to-GerenciaEnderecoColetaView" style="stroke:#181818;stroke-width:1;"/><polygon fill="#181818" points="168.14,138.11,158.2945,137.8531,163.5195,140.0208,161.3518,145.2459,168.14,138.11" style="stroke:#181818;stroke-width:1;"/></g><!--link Vendedor to GerenciaCadastroVendedorView--><g id="link_Vendedor_GerenciaCadastroVendedorView"><path d="M74.02,232.25 C90.7,228.84 106.1314,225.6909 128.0614,221.2109 " fill="none" id="Vendedor-to-GerenciaCadastroVendedorView" style="stroke:#181818;stroke-width:1;"/><polygon fill="#181818" points="133.94,220.01,124.3215,217.8923,129.0412,221.0108,125.9227,225.7304,133.94,220.01" style="stroke:#181818;stroke-width:1;"/></g><!--link Vendedor to RelatorioVendasView--><g id="link_Vendedor_RelatorioVendasView"><path d="M74.02,245.59 C100.68,250.91 133.316,257.416 167.196,264.176 " fill="none" id="Vendedor-to-RelatorioVendasView" style="stroke:#181818;stroke-width:1;"/><polygon fill="#181818" points="173.08,265.35,165.0367,259.6663,168.1767,264.3716,163.4713,267.5116,173.08,265.35" style="stroke:#181818;stroke-width:1;"/></g><!--link Vendedor to DescontosPromocionaisView--><g id="link_Vendedor_DescontosPromocionaisView"><path d="M74.37,273.82 C91.12,289.81 112.4,308.05 134,321 C145.27,327.75 152.2555,331.4268 164.7555,336.5968 " fill="none" id="Vendedor-to-DescontosPromocionaisView" style="stroke:#181818;stroke-width:1;"/><polygon fill="#181818" points="170.3,338.89,163.5121,331.7539,165.6796,336.979,160.4545,339.1465,170.3,338.89" style="stroke:#181818;stroke-width:1;"/></g><!--link Vendedor to RespostasDuvidasView--><g id="link_Vendedor_RespostasDuvidasView"><path d="M54.23,278.54 C68.51,315.64 94.64,370.34 134,404 C143.51,412.13 149.2971,416.2253 160.9171,421.6153 " fill="none" id="Vendedor-to-RespostasDuvidasView" style="stroke:#181818;stroke-width:1;"/><polygon fill="#181818" points="166.36,424.14,159.8787,416.7243,161.8242,422.036,156.5124,423.9815,166.36,424.14" style="stroke:#181818;stroke-width:1;"/></g><!--link GerenciaContaBancariaView to GerenciaContaBancariaController--><g id="link_GerenciaContaBancariaView_GerenciaContaBancariaController"><path d="M347.29,31 C375.27,31 399.99,31 428.91,31 " fill="none" id="GerenciaContaBancariaView-to-GerenciaContaBancariaController" style="stroke:#181818;stroke-width:1;"/><polygon fill="#181818" points="434.91,31,425.91,27,429.91,31,425.91,35,434.91,31" style="stroke:#181818;stroke-width:1;"/></g><!--link GerenciaEnderecoColetaView to GerenciaEnderecoColetaController--><g id="link_GerenciaEnderecoColetaView_GerenciaEnderecoColetaController"><path d="M351.08,114 C376.75,114 398.51,114 424.96,114 " fill="none" id="GerenciaEnderecoColetaView-to-GerenciaEnderecoColetaController" style="stroke:#181818;stroke-width:1;"/><polygon fill="#181818" points="430.96,114,421.96,110,425.96,114,421.96,118,430.96,114" style="stroke:#181818;stroke-width:1;"/></g><!--link GerenciaCadastroVendedorView to GerenciaCadastroVendedorController--><g id="link_GerenciaCadastroVendedorView_GerenciaCadastroVendedorController"><path d="M361.33,197 C380.76,197 395.1,197 414.96,197 " fill="none" id="GerenciaCadastroVendedorView-to-GerenciaCadastroVendedorController" style="stroke:#181818;stroke-width:1;"/><polygon fill="#181818" points="420.96,197,411.96,193,415.96,197,411.96,201,420.96,197" style="stroke:#181818;stroke-width:1;"/></g><!--link RelatorioVendasView to RelatorioVendasController--><g id="link_RelatorioVendasView_RelatorioVendasController"><path d="M321.85,280 C363.53,280 410.09,280 454.4,280 " fill="none" id="RelatorioVendasView-to-RelatorioVendasController" style="stroke:#181818;stroke-width:1;"/><polygon fill="#181818" points="460.4,280,451.4,276,455.4,280,451.4,284,460.4,280" style="stroke:#181818;stroke-width:1;"/></g><!--link DescontosPromocionaisView to DescontosPromocionaisController--><g id="link_DescontosPromocionaisView_DescontosPromocionaisController"><path d="M347.71,363 C375.41,363 399.77,363 428.4,363 " fill="none" id="DescontosPromocionaisView-to-DescontosPromocionaisController" style="stroke:#181818;stroke-width:1;"/><polygon fill="#181818" points="434.4,363,425.4,359,429.4,363,425.4,367,434.4,363" style="stroke:#181818;stroke-width:1;"/></g><!--link RespostasDuvidasView to RespostasDuvidasController--><g id="link_RespostasDuvidasView_RespostasDuvidasController"><path d="M328.51,446 C366.82,446 407.04,446 447.45,446 " fill="none" id="RespostasDuvidasView-to-RespostasDuvidasController" style="stroke:#181818;stroke-width:1;"/><polygon fill="#181818" points="453.45,446,444.45,442,448.45,446,444.45,450,453.45,446" style="stroke:#181818;stroke-width:1;"/></g><!--link GerenciaContaBancariaController to ven--><g id="link_GerenciaContaBancariaController_ven"><path d="M631.99,55.1 C649.17,60.53 667.23,66.36 684,72 C712.43,81.57 738.8463,91.0656 762.2063,99.6256 " fill="none" id="GerenciaContaBancariaController-to-ven" style="stroke:#181818;stroke-width:1;"/><polygon fill="#181818" points="767.84,101.69,760.7658,94.8376,763.1453,99.9697,758.0132,102.3492,767.84,101.69" style="stroke:#181818;stroke-width:1;"/></g><!--link GerenciaEnderecoColetaController to ven--><g id="link_GerenciaEnderecoColetaController_ven"><path d="M674.35,114 C708.83,114 737.61,114 761.98,114 " fill="none" id="GerenciaEnderecoColetaController-to-ven" style="stroke:#181818;stroke-width:1;"/><polygon fill="#181818" points="767.98,114,758.98,110,762.98,114,758.98,118,767.98,114" style="stroke:#181818;stroke-width:1;"/></g><!--link GerenciaCadastroVendedorController to ven--><g id="link_GerenciaCadastroVendedorController_ven"><path d="M629.51,172.9 C647.41,167.12 666.4,160.91 684,155 C712.36,145.47 738.7668,136.2102 762.1368,127.9002 " fill="none" id="GerenciaCadastroVendedorController-to-ven" style="stroke:#181818;stroke-width:1;"/><polygon fill="#181818" points="767.79,125.89,757.97,125.1365,763.079,127.5652,760.6503,132.6741,767.79,125.89" style="stroke:#181818;stroke-width:1;"/></g><!--link RelatorioVendasController to HistoricoPedidos--><g id="link_RelatorioVendasController_HistoricoPedidos"><path d="M644.61,280 C677.82,280 708.42,280 737.86,280 " fill="none" id="RelatorioVendasController-to-HistoricoPedidos" style="stroke:#181818;stroke-width:1;"/><polygon fill="#181818" points="743.86,280,734.86,276,738.86,280,734.86,284,743.86,280" style="stroke:#181818;stroke-width:1;"/></g><!--link DescontosPromocionaisController to Produto--><g id="link_DescontosPromocionaisController_Produto"><path d="M631.99,387.1 C649.17,392.53 667.23,398.36 684,404 C715.09,414.46 744.88,425.2357 768.52,433.9457 " fill="none" id="DescontosPromocionaisController-to-Produto" style="stroke:#181818;stroke-width:1;"/><polygon fill="#181818" points="774.15,436.02,767.0879,429.1551,769.4583,434.2914,764.3221,436.6618,774.15,436.02" style="stroke:#181818;stroke-width:1;"/></g><!--link DescontosPromocionaisController to Cupom--><g id="link_DescontosPromocionaisController_Cupom"><path d="M670.73,363 C710.71,363 745.6,363 770.65,363 " fill="none" id="DescontosPromocionaisController-to-Cupom" style="stroke:#181818;stroke-width:1;"/><polygon fill="#181818" points="776.65,363,767.65,359,771.65,363,767.65,367,776.65,363" style="stroke:#181818;stroke-width:1;"/></g><!--link RespostasDuvidasController to Produto--><g id="link_RespostasDuvidasController_Produto"><path d="M651.67,446 C696.08,446 739.07,446 768.42,446 " fill="none" id="RespostasDuvidasController-to-Produto" style="stroke:#181818;stroke-width:1;"/><polygon fill="#181818" points="774.42,446,765.42,442,769.42,446,765.42,450,774.42,446" style="stroke:#181818;stroke-width:1;"/></g><!--SRC=[ZPB1Si8W48RlF0Mtddo57eoTzkXqfjvNs2hJo3eiqV7jYx5eI9ROd0Zyk-p__RJu7NKa7Tnk7xLr0Krqv1N_E7-400VDUx1qTdwdO-XGAJ2HWjwWjsWfAFMY5wDFVpMBJTfVKkSj18UijhVbHRzZG6ySDEGZBC6RT0uRX-Ufv2tTaCQXXbgC5Kq35ZW6okEKgazi8Gth-cFWyd25RD8GnEj01pB9D3WUr_EHE0AlkfFB3PAnw_21sXO3AtDRoyOUmeckT3SZ75iKf2EVWa8qAtOg7GyaAW-GydwToL6K2LdAxQGy2wMKQI6evphg8sLRjLKtFK1KTpi3GwYNACnY6lGG-4ZS1XLLO7MSnNrJZYBWuLD27rsywDJITf7oxuVZwuI6rcYT9Sxxzzo0zGbztcww8nqgaJqkwsUvLZsZVnUgvvGVsYhMNZ9nf9xWxAioblze_o3KOGyx_W80]--></g></svg>