<svg xmlns="http://www.w3.org/2000/svg" xmlns:xlink="http://www.w3.org/1999/xlink" contentStyleType="text/css" height="537px" preserveAspectRatio="none" style="width:1100px;height:537px;background:#FFFFFF;" version="1.1" viewBox="0 0 1100 537" width="1100px" zoomAndPan="magnify"><defs><filter height="300%" id="f12f3lgdf14h1g" width="300%" x="-1" y="-1"><feGaussianBlur result="blurOut" stdDeviation="2"/><feColorMatrix in="blurOut" result="blurOut2" type="matrix" values="0 0 0 0 0 0 0 0 0 0 0 0 0 0 0 0 0 0 .4 0"/><feOffset dx="4" dy="4" in="blurOut2" result="blurOut3"/><feBlend in="SourceGraphic" in2="blurOut3" mode="normal"/></filter></defs><g><rect fill="#FFFFFF" filter="url(#f12f3lgdf14h1g)" height="345.2656" style="stroke:#181818;stroke-width:1;" width="10" x="285.4204" y="174.8594"/><rect fill="#FFFFFF" filter="url(#f12f3lgdf14h1g)" height="316.1328" style="stroke:#181818;stroke-width:1;" width="10" x="560.5679" y="203.9922"/><rect fill="#FFFFFF" filter="url(#f12f3lgdf14h1g)" height="29.1328" style="stroke:#181818;stroke-width:1;" width="10" x="796.3999" y="315.5234"/><rect fill="#FFFFFF" filter="url(#f12f3lgdf14h1g)" height="29.1328" style="stroke:#181818;stroke-width:1;" width="10" x="796.3999" y="417.7266"/><rect fill="#FFFFFF" filter="url(#f12f3lgdf14h1g)" height="287" style="stroke:#181818;stroke-width:1;" width="10" x="1012.7617" y="233.125"/><rect fill="none" filter="url(#f12f3lgdf14h1g)" height="265" style="stroke:#000000;stroke-width:1.5;" width="873.0352" x="210.8589" y="248.125"/><line style="stroke:#181818;stroke-width:0.5;stroke-dasharray:5.0,5.0;" x1="47" x2="47" y1="100.5938" y2="530.125"/><line style="stroke:#181818;stroke-width:0.5;stroke-dasharray:5.0,5.0;" x1="289.8589" x2="289.8589" y1="100.5938" y2="530.125"/><line style="stroke:#181818;stroke-width:0.5;stroke-dasharray:5.0,5.0;" x1="565.4331" x2="565.4331" y1="100.5938" y2="530.125"/><line style="stroke:#181818;stroke-width:0.5;stroke-dasharray:5.0,5.0;" x1="801.2651" x2="801.2651" y1="100.5938" y2="530.125"/><line style="stroke:#181818;stroke-width:0.5;stroke-dasharray:5.0,5.0;" x1="911.5347" x2="911.5347" y1="100.5938" y2="530.125"/><line style="stroke:#181818;stroke-width:0.5;stroke-dasharray:5.0,5.0;" x1="1017.6294" x2="1017.6294" y1="100.5938" y2="530.125"/><text fill="#000000" font-family="sans-serif" font-size="14" font-style="italic" lengthAdjust="spacing" textLength="53.3682" x="17.52" y="80.9951">«actor»</text><text fill="#000000" font-family="sans-serif" font-size="14" lengthAdjust="spacing" textLength="78.4082" x="5" y="97.292">Comprador</text><ellipse cx="47.2041" cy="13.5" fill="#E2E2F0" filter="url(#f12f3lgdf14h1g)" rx="8" ry="8" style="stroke:#181818;stroke-width:0.5;"/><path d="M47.2041,21.5 L47.2041,48.5 M34.2041,29.5 L60.2041,29.5 M47.2041,48.5 L34.2041,63.5 M47.2041,48.5 L60.2041,63.5 " fill="none" filter="url(#f12f3lgdf14h1g)" style="stroke:#181818;stroke-width:0.5;"/><text fill="#000000" font-family="sans-serif" font-size="14" font-style="italic" lengthAdjust="spacing" textLength="83.9863" x="245.4272" y="80.9951">«boundary»</text><text fill="#000000" font-family="sans-serif" font-size="14" lengthAdjust="spacing" textLength="133.123" x="220.8589" y="97.292">Checkout Interface</text><path d="M269.9204,40 L269.9204,64 M269.9204,52 L286.9204,52 " fill="none" filter="url(#f12f3lgdf14h1g)" style="stroke:#181818;stroke-width:0.5;"/><ellipse cx="298.9204" cy="52" fill="#E2E2F0" filter="url(#f12f3lgdf14h1g)" rx="12" ry="12" style="stroke:#181818;stroke-width:0.5;"/><text fill="#000000" font-family="sans-serif" font-size="14" font-style="italic" lengthAdjust="spacing" textLength="114.2695" x="505.4331" y="80.9951">«microsservice»</text><text fill="#000000" font-family="sans-serif" font-size="14" lengthAdjust="spacing" textLength="110.7695" x="507.1831" y="97.292">Pedidos Service</text><ellipse cx="565.5679" cy="52" fill="#E2E2F0" filter="url(#f12f3lgdf14h1g)" rx="12" ry="12" style="stroke:#181818;stroke-width:0.5;"/><polygon fill="#181818" points="561.5679,40,567.5679,35,565.5679,40,567.5679,45,561.5679,40" style="stroke:#181818;stroke-width:1;"/><text fill="#000000" font-family="sans-serif" font-size="14" font-style="italic" lengthAdjust="spacing" textLength="114.2695" x="741.2651" y="80.9951">«microsservice»</text><text fill="#000000" font-family="sans-serif" font-size="14" lengthAdjust="spacing" textLength="112.7588" x="742.0205" y="97.292">Estoque Service</text><ellipse cx="801.3999" cy="52" fill="#E2E2F0" filter="url(#f12f3lgdf14h1g)" rx="12" ry="12" style="stroke:#181818;stroke-width:0.5;"/><polygon fill="#181818" points="797.3999,40,803.3999,35,801.3999,40,803.3999,45,797.3999,40" style="stroke:#181818;stroke-width:1;"/><text fill="#000000" font-family="sans-serif" font-size="14" lengthAdjust="spacing" textLength="74.0947" x="871.5347" y="97.292">Databases</text><path d="M893.582,48.2969 C893.582,38.2969 911.582,38.2969 911.582,38.2969 C911.582,38.2969 929.582,38.2969 929.582,48.2969 L929.582,74.2969 C929.582,84.2969 911.582,84.2969 911.582,84.2969 C911.582,84.2969 893.582,84.2969 893.582,74.2969 L893.582,48.2969 " fill="#E2E2F0" filter="url(#f12f3lgdf14h1g)" style="stroke:#181818;stroke-width:1.5;"/><path d="M893.582,48.2969 C893.582,58.2969 911.582,58.2969 911.582,58.2969 C911.582,58.2969 929.582,58.2969 929.582,48.2969 " fill="none" style="stroke:#181818;stroke-width:1.5;"/><text fill="#000000" font-family="sans-serif" font-size="14" font-style="italic" lengthAdjust="spacing" textLength="77.1641" x="976.1797" y="80.9951">«gateway»</text><text fill="#000000" font-family="sans-serif" font-size="14" lengthAdjust="spacing" textLength="106.2646" x="961.6294" y="97.292">API Pagamento</text><path d="M997.2617,40 L997.2617,64 M997.2617,52 L1014.2617,52 " fill="none" filter="url(#f12f3lgdf14h1g)" style="stroke:#181818;stroke-width:0.5;"/><ellipse cx="1026.2617" cy="52" fill="#E2E2F0" filter="url(#f12f3lgdf14h1g)" rx="12" ry="12" style="stroke:#181818;stroke-width:0.5;"/><rect fill="#FFFFFF" filter="url(#f12f3lgdf14h1g)" height="345.2656" style="stroke:#181818;stroke-width:1;" width="10" x="285.4204" y="174.8594"/><rect fill="#FFFFFF" filter="url(#f12f3lgdf14h1g)" height="316.1328" style="stroke:#181818;stroke-width:1;" width="10" x="560.5679" y="203.9922"/><rect fill="#FFFFFF" filter="url(#f12f3lgdf14h1g)" height="29.1328" style="stroke:#181818;stroke-width:1;" width="10" x="796.3999" y="315.5234"/><rect fill="#FFFFFF" filter="url(#f12f3lgdf14h1g)" height="29.1328" style="stroke:#181818;stroke-width:1;" width="10" x="796.3999" y="417.7266"/><rect fill="#FFFFFF" filter="url(#f12f3lgdf14h1g)" height="287" style="stroke:#181818;stroke-width:1;" width="10" x="1012.7617" y="233.125"/><rect fill="#EEEEEE" filter="url(#f12f3lgdf14h1g)" height="3" style="stroke:#EEEEEE;stroke-width:1;" width="1093.894" x="0" y="131.1602"/><line style="stroke:#000000;stroke-width:1;" x1="0" x2="1093.894" y1="131.1602" y2="131.1602"/><line style="stroke:#000000;stroke-width:1;" x1="0" x2="1093.894" y1="134.1602" y2="134.1602"/><rect fill="#EEEEEE" filter="url(#f12f3lgdf14h1g)" height="23.1328" style="stroke:#000000;stroke-width:2;" width="268.0142" x="412.9399" y="120.5938"/><text fill="#000000" font-family="sans-serif" font-size="13" font-weight="bold" lengthAdjust="spacing" textLength="249.4883" x="418.9399" y="136.6606">Seleção de Método de Pagamento</text><polygon fill="#181818" points="273.4204,170.8594,283.4204,174.8594,273.4204,178.8594,277.4204,174.8594" style="stroke:#181818;stroke-width:1;"/><line style="stroke:#181818;stroke-width:1;" x1="47.2041" x2="279.4204" y1="174.8594" y2="174.8594"/><text fill="#000000" font-family="sans-serif" font-size="13" lengthAdjust="spacing" textLength="219.2163" x="54.2041" y="169.7935">Selecionar Método de Pagamento</text><polygon fill="#181818" points="548.5679,199.9922,558.5679,203.9922,548.5679,207.9922,552.5679,203.9922" style="stroke:#181818;stroke-width:1;"/><line style="stroke:#181818;stroke-width:1;stroke-dasharray:2.0,2.0;" x1="295.4204" x2="554.5679" y1="203.9922" y2="203.9922"/><text fill="#000000" font-family="sans-serif" font-size="13" lengthAdjust="spacing" textLength="215.8711" x="302.4204" y="198.9263">Confirmar Método de Pagamento</text><polygon fill="#181818" points="1000.7617,229.125,1010.7617,233.125,1000.7617,237.125,1004.7617,233.125" style="stroke:#181818;stroke-width:1;"/><line style="stroke:#181818;stroke-width:1;stroke-dasharray:2.0,2.0;" x1="570.5679" x2="1006.7617" y1="233.125" y2="233.125"/><text fill="#000000" font-family="sans-serif" font-size="13" lengthAdjust="spacing" textLength="141.248" x="577.5679" y="228.0591">Processar Pagamento</text><path d="M210.8589,248.125 L275.3018,248.125 L275.3018,255.2578 L265.3018,265.2578 L210.8589,265.2578 L210.8589,248.125 " fill="#EEEEEE" style="stroke:#000000;stroke-width:1.5;"/><rect fill="none" height="265" style="stroke:#000000;stroke-width:1.5;" width="873.0352" x="210.8589" y="248.125"/><text fill="#000000" font-family="sans-serif" font-size="13" font-weight="bold" lengthAdjust="spacing" textLength="19.4429" x="225.8589" y="261.1919">alt</text><text fill="#000000" font-family="sans-serif" font-size="11" font-weight="bold" lengthAdjust="spacing" textLength="172.917" x="290.3018" y="260.3354">[Pagamento Bem-Sucedido]</text><polygon fill="#181818" points="581.5679,282.3906,571.5679,286.3906,581.5679,290.3906,577.5679,286.3906" style="stroke:#181818;stroke-width:1;"/><line style="stroke:#181818;stroke-width:1;stroke-dasharray:2.0,2.0;" x1="575.5679" x2="1011.7617" y1="286.3906" y2="286.3906"/><text fill="#000000" font-family="sans-serif" font-size="13" lengthAdjust="spacing" textLength="180.9463" x="587.5679" y="281.3247">Confirmação do Pagamento</text><polygon fill="#181818" points="784.3999,311.5234,794.3999,315.5234,784.3999,319.5234,788.3999,315.5234" style="stroke:#181818;stroke-width:1;"/><line style="stroke:#181818;stroke-width:1;stroke-dasharray:2.0,2.0;" x1="570.5679" x2="790.3999" y1="315.5234" y2="315.5234"/><text fill="#000000" font-family="sans-serif" font-size="13" lengthAdjust="spacing" textLength="206.832" x="577.5679" y="310.4575">Atualizar Estoque com Redução</text><polygon fill="#181818" points="306.4204,340.6563,296.4204,344.6563,306.4204,348.6563,302.4204,344.6563" style="stroke:#181818;stroke-width:1;"/><line style="stroke:#181818;stroke-width:1;stroke-dasharray:2.0,2.0;" x1="300.4204" x2="559.5679" y1="344.6563" y2="344.6563"/><text fill="#000000" font-family="sans-serif" font-size="13" lengthAdjust="spacing" textLength="204.2993" x="312.4204" y="339.5903">Exibir Resumo Final da Compra</text><line style="stroke:#000000;stroke-width:1;stroke-dasharray:2.0,2.0;" x1="210.8589" x2="1083.894" y1="353.6563" y2="353.6563"/><text fill="#000000" font-family="sans-serif" font-size="11" font-weight="bold" lengthAdjust="spacing" textLength="137.4141" x="215.8589" y="363.8667">[Falha no Pagamento]</text><polygon fill="#181818" points="581.5679,384.5938,571.5679,388.5938,581.5679,392.5938,577.5679,388.5938" style="stroke:#181818;stroke-width:1;"/><line style="stroke:#181818;stroke-width:1;stroke-dasharray:2.0,2.0;" x1="575.5679" x2="1011.7617" y1="388.5938" y2="388.5938"/><text fill="#000000" font-family="sans-serif" font-size="13" lengthAdjust="spacing" textLength="124.1284" x="587.5679" y="383.5278">Notificação de Erro</text><polygon fill="#181818" points="784.3999,413.7266,794.3999,417.7266,784.3999,421.7266,788.3999,417.7266" style="stroke:#181818;stroke-width:1;"/><line style="stroke:#181818;stroke-width:1;stroke-dasharray:2.0,2.0;" x1="570.5679" x2="790.3999" y1="417.7266" y2="417.7266"/><text fill="#000000" font-family="sans-serif" font-size="13" lengthAdjust="spacing" textLength="179.6831" x="577.5679" y="412.6606">Liberar Reserva no Estoque</text><polygon fill="#181818" points="899.582,442.8594,909.582,446.8594,899.582,450.8594,903.582,446.8594" style="stroke:#181818;stroke-width:1;"/><line style="stroke:#181818;stroke-width:1;stroke-dasharray:2.0,2.0;" x1="570.5679" x2="905.582" y1="446.8594" y2="446.8594"/><text fill="#000000" font-family="sans-serif" font-size="13" lengthAdjust="spacing" textLength="212.9004" x="577.5679" y="441.7935">Reverter Atualização no Estoque</text><polygon fill="#181818" points="306.4204,471.9922,296.4204,475.9922,306.4204,479.9922,302.4204,475.9922" style="stroke:#181818;stroke-width:1;"/><line style="stroke:#181818;stroke-width:1;stroke-dasharray:2.0,2.0;" x1="300.4204" x2="559.5679" y1="475.9922" y2="475.9922"/><text fill="#000000" font-family="sans-serif" font-size="13" lengthAdjust="spacing" textLength="192.8608" x="312.4204" y="470.9263">Notificar Falha no Pagamento</text><polygon fill="#181818" points="306.4204,501.125,296.4204,505.125,306.4204,509.125,302.4204,505.125" style="stroke:#181818;stroke-width:1;"/><line style="stroke:#181818;stroke-width:1;stroke-dasharray:2.0,2.0;" x1="300.4204" x2="559.5679" y1="505.125" y2="505.125"/><text fill="#000000" font-family="sans-serif" font-size="13" lengthAdjust="spacing" textLength="241.1475" x="312.4204" y="500.0591">Solicitar Novo Método de Pagamento</text><!--SRC=[XPDHRjim38RVTGgYxxv0a0HeknG8i1L1Wnw0bXY7g2rcafoskyuUXfqZ5nkjs9cnUAsVP4lVJ_u_vJqxWfr8AkNDn1Vs1mpOGDoZarVs5QJGaZ5eamIub-OGT2C0Hh0raqymd-UzvTAKqdg7uHsUrzt-pVsUx8kq2TO-KTYXfHizFPnIm8fFGMeua6CdCKERVhsbSEGpqR0D4kFvmmYZcEHxInbRzUiFC8S9Ium4N_f5BkZAltqViCfYjvirRB32Hlr99rLXebViMZQBXTQewVJhz5D0e_js-ft4vUK5WSN2zEaKoowDMMOiYySmINJvyb6hw6cZGA7SaCfCO_Sx3isdR4-OWSmgwca6co2MObI5AGmh7N2THWRkg2cshSqw1lJfPAQRwfEGaN86HZqCWvh1RMgnvX_Qnp0mAmqyaMkpJ2OlVVNObLmETFN69GT5Ozi8FB376XpsDpGZZgwKgDRnFs2zH_1N3LyvV9J4ExPucVKgX8_CVUMI0kQUzDBb4gkHXKzzkL95dkX8GN-NIrJdwlzeJNYRJ6cm4FxdMa_DYs9aUYirMqvAFCfHfYySUMVCg8Nk0erV-siu-lIy_WC0]--></g></svg>