<svg xmlns="http://www.w3.org/2000/svg" xmlns:xlink="http://www.w3.org/1999/xlink" contentStyleType="text/css" height="581px" preserveAspectRatio="none" style="width:1051px;height:581px;background:#FFFFFF;" version="1.1" viewBox="0 0 1051 581" width="1051px" zoomAndPan="magnify"><defs><filter height="300%" id="f1w8w1y1rum32h" width="300%" x="-1" y="-1"><feGaussianBlur result="blurOut" stdDeviation="2"/><feColorMatrix in="blurOut" result="blurOut2" type="matrix" values="0 0 0 0 0 0 0 0 0 0 0 0 0 0 0 0 0 0 .4 0"/><feOffset dx="4" dy="4" in="blurOut2" result="blurOut3"/><feBlend in="SourceGraphic" in2="blurOut3" mode="normal"/></filter></defs><g><rect fill="#FFFFFF" filter="url(#f1w8w1y1rum32h)" height="433.6641" style="stroke:#181818;stroke-width:1;" width="10" x="330.0366" y="131.7266"/><rect fill="#FFFFFF" filter="url(#f1w8w1y1rum32h)" height="160.6641" style="stroke:#181818;stroke-width:1;" width="10" x="335.0366" y="403.7266"/><rect fill="#FFFFFF" filter="url(#f1w8w1y1rum32h)" height="213.7344" style="stroke:#181818;stroke-width:1;" width="10" x="601.9912" y="160.8594"/><rect fill="#FFFFFF" filter="url(#f1w8w1y1rum32h)" height="29.1328" style="stroke:#181818;stroke-width:1;" width="10" x="841.981" y="272.3906"/><rect fill="#FFFFFF" filter="url(#f1w8w1y1rum32h)" height="29.1328" style="stroke:#181818;stroke-width:1;" width="10" x="841.981" y="520.2578"/><rect fill="#FFFFFF" filter="url(#f1w8w1y1rum32h)" height="374.3984" style="stroke:#181818;stroke-width:1;" width="10" x="968.248" y="189.9922"/><rect fill="none" filter="url(#f1w8w1y1rum32h)" height="352.3984" style="stroke:#000000;stroke-width:1.5;" width="1029.3804" x="10" y="204.9922"/><line style="stroke:#181818;stroke-width:0.5;stroke-dasharray:5.0,5.0;" x1="62" x2="62" y1="100.5938" y2="574.3906"/><line style="stroke:#181818;stroke-width:0.5;stroke-dasharray:5.0,5.0;" x1="334.4751" x2="334.4751" y1="100.5938" y2="574.3906"/><line style="stroke:#181818;stroke-width:0.5;stroke-dasharray:5.0,5.0;" x1="606.8564" x2="606.8564" y1="100.5938" y2="574.3906"/><line style="stroke:#181818;stroke-width:0.5;stroke-dasharray:5.0,5.0;" x1="846.8462" x2="846.8462" y1="100.5938" y2="574.3906"/><line style="stroke:#181818;stroke-width:0.5;stroke-dasharray:5.0,5.0;" x1="973.1157" x2="973.1157" y1="100.5938" y2="574.3906"/><text fill="#000000" font-family="sans-serif" font-size="14" font-style="italic" lengthAdjust="spacing" textLength="53.3682" x="32.52" y="80.9951">«actor»</text><text fill="#000000" font-family="sans-serif" font-size="14" lengthAdjust="spacing" textLength="78.4082" x="20" y="97.292">Comprador</text><ellipse cx="62.2041" cy="13.5" fill="#E2E2F0" filter="url(#f1w8w1y1rum32h)" rx="8" ry="8" style="stroke:#181818;stroke-width:0.5;"/><path d="M62.2041,21.5 L62.2041,48.5 M49.2041,29.5 L75.2041,29.5 M62.2041,48.5 L49.2041,63.5 M62.2041,48.5 L75.2041,63.5 " fill="none" filter="url(#f1w8w1y1rum32h)" style="stroke:#181818;stroke-width:0.5;"/><text fill="#000000" font-family="sans-serif" font-size="14" font-style="italic" lengthAdjust="spacing" textLength="83.9863" x="290.0435" y="80.9951">«boundary»</text><text fill="#000000" font-family="sans-serif" font-size="14" lengthAdjust="spacing" textLength="133.123" x="265.4751" y="97.292">Checkout Interface</text><path d="M314.5366,40 L314.5366,64 M314.5366,52 L331.5366,52 " fill="none" filter="url(#f1w8w1y1rum32h)" style="stroke:#181818;stroke-width:0.5;"/><ellipse cx="343.5366" cy="52" fill="#E2E2F0" filter="url(#f1w8w1y1rum32h)" rx="12" ry="12" style="stroke:#181818;stroke-width:0.5;"/><text fill="#000000" font-family="sans-serif" font-size="14" font-style="italic" lengthAdjust="spacing" textLength="114.2695" x="546.8564" y="80.9951">«microsservice»</text><text fill="#000000" font-family="sans-serif" font-size="14" lengthAdjust="spacing" textLength="110.7695" x="548.6064" y="97.292">Pedidos Service</text><ellipse cx="606.9912" cy="52" fill="#E2E2F0" filter="url(#f1w8w1y1rum32h)" rx="12" ry="12" style="stroke:#181818;stroke-width:0.5;"/><polygon fill="#181818" points="602.9912,40,608.9912,35,606.9912,40,608.9912,45,602.9912,40" style="stroke:#181818;stroke-width:1;"/><text fill="#000000" font-family="sans-serif" font-size="14" font-style="italic" lengthAdjust="spacing" textLength="114.2695" x="786.8462" y="80.9951">«microsservice»</text><text fill="#000000" font-family="sans-serif" font-size="14" lengthAdjust="spacing" textLength="112.7588" x="787.6016" y="97.292">Estoque Service</text><ellipse cx="846.981" cy="52" fill="#E2E2F0" filter="url(#f1w8w1y1rum32h)" rx="12" ry="12" style="stroke:#181818;stroke-width:0.5;"/><polygon fill="#181818" points="842.981,40,848.981,35,846.981,40,848.981,45,842.981,40" style="stroke:#181818;stroke-width:1;"/><text fill="#000000" font-family="sans-serif" font-size="14" font-style="italic" lengthAdjust="spacing" textLength="77.1641" x="931.666" y="80.9951">«gateway»</text><text fill="#000000" font-family="sans-serif" font-size="14" lengthAdjust="spacing" textLength="106.2646" x="917.1157" y="97.292">API Pagamento</text><path d="M952.748,40 L952.748,64 M952.748,52 L969.748,52 " fill="none" filter="url(#f1w8w1y1rum32h)" style="stroke:#181818;stroke-width:0.5;"/><ellipse cx="981.748" cy="52" fill="#E2E2F0" filter="url(#f1w8w1y1rum32h)" rx="12" ry="12" style="stroke:#181818;stroke-width:0.5;"/><rect fill="#FFFFFF" filter="url(#f1w8w1y1rum32h)" height="433.6641" style="stroke:#181818;stroke-width:1;" width="10" x="330.0366" y="131.7266"/><rect fill="#FFFFFF" filter="url(#f1w8w1y1rum32h)" height="160.6641" style="stroke:#181818;stroke-width:1;" width="10" x="335.0366" y="403.7266"/><rect fill="#FFFFFF" filter="url(#f1w8w1y1rum32h)" height="213.7344" style="stroke:#181818;stroke-width:1;" width="10" x="601.9912" y="160.8594"/><rect fill="#FFFFFF" filter="url(#f1w8w1y1rum32h)" height="29.1328" style="stroke:#181818;stroke-width:1;" width="10" x="841.981" y="272.3906"/><rect fill="#FFFFFF" filter="url(#f1w8w1y1rum32h)" height="29.1328" style="stroke:#181818;stroke-width:1;" width="10" x="841.981" y="520.2578"/><rect fill="#FFFFFF" filter="url(#f1w8w1y1rum32h)" height="374.3984" style="stroke:#181818;stroke-width:1;" width="10" x="968.248" y="189.9922"/><polygon fill="#181818" points="318.0366,127.7266,328.0366,131.7266,318.0366,135.7266,322.0366,131.7266" style="stroke:#181818;stroke-width:1;"/><line style="stroke:#181818;stroke-width:1;" x1="62.2041" x2="324.0366" y1="131.7266" y2="131.7266"/><text fill="#000000" font-family="sans-serif" font-size="13" lengthAdjust="spacing" textLength="219.2163" x="69.2041" y="126.6606">Selecionar Método de Pagamento</text><polygon fill="#181818" points="589.9912,156.8594,599.9912,160.8594,589.9912,164.8594,593.9912,160.8594" style="stroke:#181818;stroke-width:1;"/><line style="stroke:#181818;stroke-width:1;stroke-dasharray:2.0,2.0;" x1="340.0366" x2="595.9912" y1="160.8594" y2="160.8594"/><text fill="#000000" font-family="sans-serif" font-size="13" lengthAdjust="spacing" textLength="200.4971" x="347.0366" y="155.7935">Confirmar Método Selecionado</text><polygon fill="#181818" points="956.248,185.9922,966.248,189.9922,956.248,193.9922,960.248,189.9922" style="stroke:#181818;stroke-width:1;"/><line style="stroke:#181818;stroke-width:1;stroke-dasharray:2.0,2.0;" x1="611.9912" x2="962.248" y1="189.9922" y2="189.9922"/><text fill="#000000" font-family="sans-serif" font-size="13" lengthAdjust="spacing" textLength="141.248" x="618.9912" y="184.9263">Processar Pagamento</text><path d="M10,204.9922 L74.4429,204.9922 L74.4429,212.125 L64.4429,222.125 L10,222.125 L10,204.9922 " fill="#EEEEEE" style="stroke:#000000;stroke-width:1.5;"/><rect fill="none" height="352.3984" style="stroke:#000000;stroke-width:1.5;" width="1029.3804" x="10" y="204.9922"/><text fill="#000000" font-family="sans-serif" font-size="13" font-weight="bold" lengthAdjust="spacing" textLength="19.4429" x="25" y="218.0591">alt</text><text fill="#000000" font-family="sans-serif" font-size="11" font-weight="bold" lengthAdjust="spacing" textLength="155.9927" x="89.4429" y="217.2026">[Pagamento Confirmado]</text><polygon fill="#181818" points="622.9912,239.2578,612.9912,243.2578,622.9912,247.2578,618.9912,243.2578" style="stroke:#181818;stroke-width:1;"/><line style="stroke:#181818;stroke-width:1;stroke-dasharray:2.0,2.0;" x1="616.9912" x2="967.248" y1="243.2578" y2="243.2578"/><text fill="#000000" font-family="sans-serif" font-size="13" lengthAdjust="spacing" textLength="180.9907" x="628.9912" y="238.1919">Confirmação de Pagamento</text><polygon fill="#181818" points="829.981,268.3906,839.981,272.3906,829.981,276.3906,833.981,272.3906" style="stroke:#181818;stroke-width:1;"/><line style="stroke:#181818;stroke-width:1;stroke-dasharray:2.0,2.0;" x1="611.9912" x2="835.981" y1="272.3906" y2="272.3906"/><text fill="#000000" font-family="sans-serif" font-size="13" lengthAdjust="spacing" textLength="210.9897" x="618.9912" y="267.3247">Atualizar Estoque (Confirmação)</text><polygon fill="#181818" points="351.0366,297.5234,341.0366,301.5234,351.0366,305.5234,347.0366,301.5234" style="stroke:#181818;stroke-width:1;"/><line style="stroke:#181818;stroke-width:1;stroke-dasharray:2.0,2.0;" x1="345.0366" x2="600.9912" y1="301.5234" y2="301.5234"/><text fill="#000000" font-family="sans-serif" font-size="13" lengthAdjust="spacing" textLength="169.2603" x="357.0366" y="296.4575">Exibir Resumo da Compra</text><line style="stroke:#000000;stroke-width:1;stroke-dasharray:2.0,2.0;" x1="10" x2="1039.3804" y1="310.5234" y2="310.5234"/><text fill="#000000" font-family="sans-serif" font-size="11" font-weight="bold" lengthAdjust="spacing" textLength="136.0874" x="15" y="320.7339">[Método Indisponível]</text><polygon fill="#181818" points="622.9912,341.4609,612.9912,345.4609,622.9912,349.4609,618.9912,345.4609" style="stroke:#181818;stroke-width:1;"/><line style="stroke:#181818;stroke-width:1;stroke-dasharray:2.0,2.0;" x1="616.9912" x2="967.248" y1="345.4609" y2="345.4609"/><text fill="#000000" font-family="sans-serif" font-size="13" lengthAdjust="spacing" textLength="207.5938" x="628.9912" y="340.395">Notificação de Indisponibilidade</text><polygon fill="#181818" points="351.0366,370.5938,341.0366,374.5938,351.0366,378.5938,347.0366,374.5938" style="stroke:#181818;stroke-width:1;"/><line style="stroke:#181818;stroke-width:1;stroke-dasharray:2.0,2.0;" x1="345.0366" x2="605.9912" y1="374.5938" y2="374.5938"/><text fill="#000000" font-family="sans-serif" font-size="13" lengthAdjust="spacing" textLength="190.728" x="357.0366" y="369.5278">Informar Método Indisponível</text><polygon fill="#181818" points="323.0366,399.7266,333.0366,403.7266,323.0366,407.7266,327.0366,403.7266" style="stroke:#181818;stroke-width:1;"/><line style="stroke:#181818;stroke-width:1;" x1="62.2041" x2="329.0366" y1="403.7266" y2="403.7266"/><text fill="#000000" font-family="sans-serif" font-size="13" lengthAdjust="spacing" textLength="243.8325" x="69.2041" y="398.6606">Escolher Novo Método de Pagamento</text><polygon fill="#181818" points="594.9912,428.8594,604.9912,432.8594,594.9912,436.8594,598.9912,432.8594" style="stroke:#181818;stroke-width:1;"/><line style="stroke:#181818;stroke-width:1;stroke-dasharray:2.0,2.0;" x1="345.0366" x2="600.9912" y1="432.8594" y2="432.8594"/><text fill="#000000" font-family="sans-serif" font-size="13" lengthAdjust="spacing" textLength="237.9546" x="352.0366" y="427.7935">Confirmar Novo Método Selecionado</text><polygon fill="#181818" points="956.248,457.9922,966.248,461.9922,956.248,465.9922,960.248,461.9922" style="stroke:#181818;stroke-width:1;"/><line style="stroke:#181818;stroke-width:1;stroke-dasharray:2.0,2.0;" x1="606.9912" x2="962.248" y1="461.9922" y2="461.9922"/><text fill="#000000" font-family="sans-serif" font-size="13" lengthAdjust="spacing" textLength="178.7056" x="613.9912" y="456.9263">Processar Novo Pagamento</text><polygon fill="#181818" points="617.9912,487.125,607.9912,491.125,617.9912,495.125,613.9912,491.125" style="stroke:#181818;stroke-width:1;"/><line style="stroke:#181818;stroke-width:1;stroke-dasharray:2.0,2.0;" x1="611.9912" x2="967.248" y1="491.125" y2="491.125"/><text fill="#000000" font-family="sans-serif" font-size="13" lengthAdjust="spacing" textLength="218.4038" x="623.9912" y="486.0591">Confirmação do Novo Pagamento</text><polygon fill="#181818" points="829.981,516.2578,839.981,520.2578,829.981,524.2578,833.981,520.2578" style="stroke:#181818;stroke-width:1;"/><line style="stroke:#181818;stroke-width:1;stroke-dasharray:2.0,2.0;" x1="606.9912" x2="835.981" y1="520.2578" y2="520.2578"/><text fill="#000000" font-family="sans-serif" font-size="13" lengthAdjust="spacing" textLength="210.9897" x="613.9912" y="515.1919">Atualizar Estoque (Confirmação)</text><polygon fill="#181818" points="356.0366,545.3906,346.0366,549.3906,356.0366,553.3906,352.0366,549.3906" style="stroke:#181818;stroke-width:1;"/><line style="stroke:#181818;stroke-width:1;stroke-dasharray:2.0,2.0;" x1="350.0366" x2="605.9912" y1="549.3906" y2="549.3906"/><text fill="#000000" font-family="sans-serif" font-size="13" lengthAdjust="spacing" textLength="169.2603" x="362.0366" y="544.3247">Exibir Resumo da Compra</text><!--SRC=[pPFFJkCm4CRlVeeH9pZm0XMgX50FEO2gHJo0Qq_Q4OudQpk5tTVXW3Zm57qn9YO9QHhOw-QKsFFxvfi_sP55A9dJXfzLV2HVww0hY3jj-Ody5b9eK2bj4WUuuQeESX50Hp2Eq2UukiftowNQSEEj3d_WeMZlpsvsQ1wvIL3uXA7K1iyakeyImB1FWHtKQCbopD2wUx_7iATFeY8JECRFWn66CV7l1ZEswjv_m0PxjTvcvdfTm5flTILbS4jiTS8dtJfJNN6NoxQOXSWwDCHU1xWzl2Ms3DAs0MxRGtkX9Le9S2bSNzH2kkPB2jM87UJi2Eq0rODPHAmkO1tOO8mYC9DHGcGyBdtT3Gb57UHfHUOT7LuFBvDACZ1oq3Tv0TUfqOx-Yek-sUT7EXUP7Nnru8bWxkVgcJOKu1V6fX83kjki76pnH0DTnA5vXRSKQ_Q7zpswRmgyuqGbcQy2UqZIEhBQVkEhy2KVJUeqsSXUFx7sUB8mgsZOxJ28aptFxynHjsHlskyVTkT8QBn0qqAcEvF1oO3_jH4yI_rtQ-6jKkDvoAymCvxHqKFn0G00]--></g></svg>