<svg xmlns="http://www.w3.org/2000/svg" xmlns:xlink="http://www.w3.org/1999/xlink" contentStyleType="text/css" height="752px" preserveAspectRatio="none" style="width:1008px;height:752px;background:#FFFFFF;" version="1.1" viewBox="0 0 1008 752" width="1008px" zoomAndPan="magnify"><defs><filter height="300%" id="f75goks7vravc" width="300%" x="-1" y="-1"><feGaussianBlur result="blurOut" stdDeviation="2"/><feColorMatrix in="blurOut" result="blurOut2" type="matrix" values="0 0 0 0 0 0 0 0 0 0 0 0 0 0 0 0 0 0 .4 0"/><feOffset dx="4" dy="4" in="blurOut2" result="blurOut3"/><feBlend in="SourceGraphic" in2="blurOut3" mode="normal"/></filter></defs><g><rect fill="#FFFFFF" filter="url(#f75goks7vravc)" height="116.5313" style="stroke:#181818;stroke-width:1;" width="10" x="285.4204" y="174.8594"/><rect fill="#FFFFFF" filter="url(#f75goks7vravc)" height="270.8672" style="stroke:#181818;stroke-width:1;" width="10" x="285.4204" y="392.7891"/><rect fill="#FFFFFF" filter="url(#f75goks7vravc)" height="87.3984" style="stroke:#181818;stroke-width:1;" width="10" x="545.6572" y="203.9922"/><rect fill="#FFFFFF" filter="url(#f75goks7vravc)" height="241.7344" style="stroke:#181818;stroke-width:1;" width="10" x="545.6572" y="421.9219"/><rect fill="#FFFFFF" filter="url(#f75goks7vravc)" height="29.1328" style="stroke:#181818;stroke-width:1;" width="10" x="936.0083" y="233.125"/><rect fill="#FFFFFF" filter="url(#f75goks7vravc)" height="212.6016" style="stroke:#181818;stroke-width:1;" width="10" x="936.0083" y="451.0547"/><rect fill="none" filter="url(#f75goks7vravc)" height="190.6016" style="stroke:#000000;stroke-width:1.5;" width="780.1968" x="210.8589" y="466.0547"/><line style="stroke:#181818;stroke-width:0.5;stroke-dasharray:5.0,5.0;" x1="47" x2="47" y1="100.5938" y2="745.9219"/><line style="stroke:#181818;stroke-width:0.5;stroke-dasharray:5.0,5.0;" x1="289.8589" x2="289.8589" y1="100.5938" y2="745.9219"/><line style="stroke:#181818;stroke-width:0.5;stroke-dasharray:5.0,5.0;" x1="550.5225" x2="550.5225" y1="100.5938" y2="745.9219"/><line style="stroke:#181818;stroke-width:0.5;stroke-dasharray:5.0,5.0;" x1="940.9609" x2="940.9609" y1="100.5938" y2="745.9219"/><text fill="#000000" font-family="sans-serif" font-size="14" font-style="italic" lengthAdjust="spacing" textLength="53.3682" x="17.52" y="80.9951">«actor»</text><text fill="#000000" font-family="sans-serif" font-size="14" lengthAdjust="spacing" textLength="78.4082" x="5" y="97.292">Comprador</text><ellipse cx="47.2041" cy="13.5" fill="#E2E2F0" filter="url(#f75goks7vravc)" rx="8" ry="8" style="stroke:#181818;stroke-width:0.5;"/><path d="M47.2041,21.5 L47.2041,48.5 M34.2041,29.5 L60.2041,29.5 M47.2041,48.5 L34.2041,63.5 M47.2041,48.5 L60.2041,63.5 " fill="none" filter="url(#f75goks7vravc)" style="stroke:#181818;stroke-width:0.5;"/><text fill="#000000" font-family="sans-serif" font-size="14" font-style="italic" lengthAdjust="spacing" textLength="83.9863" x="245.4272" y="80.9951">«boundary»</text><text fill="#000000" font-family="sans-serif" font-size="14" lengthAdjust="spacing" textLength="133.123" x="220.8589" y="97.292">Checkout Interface</text><path d="M269.9204,40 L269.9204,64 M269.9204,52 L286.9204,52 " fill="none" filter="url(#f75goks7vravc)" style="stroke:#181818;stroke-width:0.5;"/><ellipse cx="298.9204" cy="52" fill="#E2E2F0" filter="url(#f75goks7vravc)" rx="12" ry="12" style="stroke:#181818;stroke-width:0.5;"/><text fill="#000000" font-family="sans-serif" font-size="14" font-style="italic" lengthAdjust="spacing" textLength="114.2695" x="490.5225" y="80.9951">«microsservice»</text><text fill="#000000" font-family="sans-serif" font-size="14" lengthAdjust="spacing" textLength="110.7695" x="492.2725" y="97.292">Pedidos Service</text><ellipse cx="550.6572" cy="52" fill="#E2E2F0" filter="url(#f75goks7vravc)" rx="12" ry="12" style="stroke:#181818;stroke-width:0.5;"/><polygon fill="#181818" points="546.6572,40,552.6572,35,550.6572,40,552.6572,45,546.6572,40" style="stroke:#181818;stroke-width:1;"/><text fill="#000000" font-family="sans-serif" font-size="14" lengthAdjust="spacing" textLength="74.0947" x="900.9609" y="97.292">Databases</text><path d="M923.0083,48.2969 C923.0083,38.2969 941.0083,38.2969 941.0083,38.2969 C941.0083,38.2969 959.0083,38.2969 959.0083,48.2969 L959.0083,74.2969 C959.0083,84.2969 941.0083,84.2969 941.0083,84.2969 C941.0083,84.2969 923.0083,84.2969 923.0083,74.2969 L923.0083,48.2969 " fill="#E2E2F0" filter="url(#f75goks7vravc)" style="stroke:#181818;stroke-width:1.5;"/><path d="M923.0083,48.2969 C923.0083,58.2969 941.0083,58.2969 941.0083,58.2969 C941.0083,58.2969 959.0083,58.2969 959.0083,48.2969 " fill="none" style="stroke:#181818;stroke-width:1.5;"/><rect fill="#FFFFFF" filter="url(#f75goks7vravc)" height="116.5313" style="stroke:#181818;stroke-width:1;" width="10" x="285.4204" y="174.8594"/><rect fill="#FFFFFF" filter="url(#f75goks7vravc)" height="270.8672" style="stroke:#181818;stroke-width:1;" width="10" x="285.4204" y="392.7891"/><rect fill="#FFFFFF" filter="url(#f75goks7vravc)" height="87.3984" style="stroke:#181818;stroke-width:1;" width="10" x="545.6572" y="203.9922"/><rect fill="#FFFFFF" filter="url(#f75goks7vravc)" height="241.7344" style="stroke:#181818;stroke-width:1;" width="10" x="545.6572" y="421.9219"/><rect fill="#FFFFFF" filter="url(#f75goks7vravc)" height="29.1328" style="stroke:#181818;stroke-width:1;" width="10" x="936.0083" y="233.125"/><rect fill="#FFFFFF" filter="url(#f75goks7vravc)" height="212.6016" style="stroke:#181818;stroke-width:1;" width="10" x="936.0083" y="451.0547"/><rect fill="#EEEEEE" filter="url(#f75goks7vravc)" height="3" style="stroke:#EEEEEE;stroke-width:1;" width="1001.0557" x="0" y="131.1602"/><line style="stroke:#000000;stroke-width:1;" x1="0" x2="1001.0557" y1="131.1602" y2="131.1602"/><line style="stroke:#000000;stroke-width:1;" x1="0" x2="1001.0557" y1="134.1602" y2="134.1602"/><rect fill="#EEEEEE" filter="url(#f75goks7vravc)" height="23.1328" style="stroke:#000000;stroke-width:2;" width="191.7153" x="404.6702" y="120.5938"/><text fill="#000000" font-family="sans-serif" font-size="13" font-weight="bold" lengthAdjust="spacing" textLength="173.1895" x="410.6702" y="136.6606">Métodos de Pagamento</text><polygon fill="#181818" points="273.4204,170.8594,283.4204,174.8594,273.4204,178.8594,277.4204,174.8594" style="stroke:#181818;stroke-width:1;"/><line style="stroke:#181818;stroke-width:1;" x1="47.2041" x2="279.4204" y1="174.8594" y2="174.8594"/><text fill="#000000" font-family="sans-serif" font-size="13" lengthAdjust="spacing" textLength="210.4629" x="54.2041" y="169.7935">Solicitar Métodos de Pagamento</text><polygon fill="#181818" points="533.6572,199.9922,543.6572,203.9922,533.6572,207.9922,537.6572,203.9922" style="stroke:#181818;stroke-width:1;"/><line style="stroke:#181818;stroke-width:1;stroke-dasharray:2.0,2.0;" x1="295.4204" x2="539.6572" y1="203.9922" y2="203.9922"/><text fill="#000000" font-family="sans-serif" font-size="13" lengthAdjust="spacing" textLength="205.8799" x="302.4204" y="198.9263">Consultar Dados de Pagamento</text><polygon fill="#181818" points="924.0083,229.125,934.0083,233.125,924.0083,237.125,928.0083,233.125" style="stroke:#181818;stroke-width:1;"/><line style="stroke:#181818;stroke-width:1;stroke-dasharray:2.0,2.0;" x1="555.6572" x2="930.0083" y1="233.125" y2="233.125"/><text fill="#000000" font-family="sans-serif" font-size="13" lengthAdjust="spacing" textLength="282.2231" x="562.6572" y="228.0591">Recuperar Carteira ou Métodos Disponíveis</text><polygon fill="#181818" points="566.6572,258.2578,556.6572,262.2578,566.6572,266.2578,562.6572,262.2578" style="stroke:#181818;stroke-width:1;"/><line style="stroke:#181818;stroke-width:1;stroke-dasharray:2.0,2.0;" x1="560.6572" x2="940.0083" y1="262.2578" y2="262.2578"/><text fill="#000000" font-family="sans-serif" font-size="13" lengthAdjust="spacing" textLength="139.4453" x="572.6572" y="257.1919">Dados de Pagamento</text><polygon fill="#181818" points="301.4204,287.3906,291.4204,291.3906,301.4204,295.3906,297.4204,291.3906" style="stroke:#181818;stroke-width:1;"/><line style="stroke:#181818;stroke-width:1;stroke-dasharray:2.0,2.0;" x1="295.4204" x2="549.6572" y1="291.3906" y2="291.3906"/><text fill="#000000" font-family="sans-serif" font-size="13" lengthAdjust="spacing" textLength="194.5938" x="307.4204" y="286.3247">Exibir Métodos de Pagamento</text><rect fill="#EEEEEE" filter="url(#f75goks7vravc)" height="3" style="stroke:#EEEEEE;stroke-width:1;" width="1001.0557" x="0" y="319.957"/><line style="stroke:#000000;stroke-width:1;" x1="0" x2="1001.0557" y1="319.957" y2="319.957"/><line style="stroke:#000000;stroke-width:1;" x1="0" x2="1001.0557" y1="322.957" y2="322.957"/><rect fill="#EEEEEE" filter="url(#f75goks7vravc)" height="23.1328" style="stroke:#000000;stroke-width:2;" width="124.7983" x="438.1287" y="309.3906"/><text fill="#000000" font-family="sans-serif" font-size="13" font-weight="bold" lengthAdjust="spacing" textLength="106.2725" x="444.1287" y="325.4575">Aplicar Cupom</text><polygon fill="#181818" points="278.4204,359.6563,288.4204,363.6563,278.4204,367.6563,282.4204,363.6563" style="stroke:#181818;stroke-width:1;"/><line style="stroke:#181818;stroke-width:1;" x1="47.2041" x2="284.4204" y1="363.6563" y2="363.6563"/><text fill="#000000" font-family="sans-serif" font-size="13" lengthAdjust="spacing" textLength="163.8267" x="54.2041" y="358.5903">Digitar Código de Cupom</text><polygon fill="#181818" points="273.4204,388.7891,283.4204,392.7891,273.4204,396.7891,277.4204,392.7891" style="stroke:#181818;stroke-width:1;"/><line style="stroke:#181818;stroke-width:1;" x1="47.2041" x2="279.4204" y1="392.7891" y2="392.7891"/><text fill="#000000" font-family="sans-serif" font-size="13" lengthAdjust="spacing" textLength="95.145" x="54.2041" y="387.7231">Aplicar Cupom</text><polygon fill="#181818" points="533.6572,417.9219,543.6572,421.9219,533.6572,425.9219,537.6572,421.9219" style="stroke:#181818;stroke-width:1;"/><line style="stroke:#181818;stroke-width:1;stroke-dasharray:2.0,2.0;" x1="295.4204" x2="539.6572" y1="421.9219" y2="421.9219"/><text fill="#000000" font-family="sans-serif" font-size="13" lengthAdjust="spacing" textLength="166.7212" x="302.4204" y="416.856">Verificar e Validar Cupom</text><polygon fill="#181818" points="924.0083,447.0547,934.0083,451.0547,924.0083,455.0547,928.0083,451.0547" style="stroke:#181818;stroke-width:1;"/><line style="stroke:#181818;stroke-width:1;stroke-dasharray:2.0,2.0;" x1="555.6572" x2="930.0083" y1="451.0547" y2="451.0547"/><text fill="#000000" font-family="sans-serif" font-size="13" lengthAdjust="spacing" textLength="165.5786" x="562.6572" y="445.9888">Validar Código de Cupom</text><path d="M210.8589,466.0547 L275.3018,466.0547 L275.3018,473.1875 L265.3018,483.1875 L210.8589,483.1875 L210.8589,466.0547 " fill="#EEEEEE" style="stroke:#000000;stroke-width:1.5;"/><rect fill="none" height="190.6016" style="stroke:#000000;stroke-width:1.5;" width="780.1968" x="210.8589" y="466.0547"/><text fill="#000000" font-family="sans-serif" font-size="13" font-weight="bold" lengthAdjust="spacing" textLength="19.4429" x="225.8589" y="479.1216">alt</text><text fill="#000000" font-family="sans-serif" font-size="11" font-weight="bold" lengthAdjust="spacing" textLength="95.5894" x="290.3018" y="478.2651">[Cupom Válido]</text><polygon fill="#181818" points="566.6572,500.3203,556.6572,504.3203,566.6572,508.3203,562.6572,504.3203" style="stroke:#181818;stroke-width:1;"/><line style="stroke:#181818;stroke-width:1;stroke-dasharray:2.0,2.0;" x1="560.6572" x2="935.0083" y1="504.3203" y2="504.3203"/><text fill="#000000" font-family="sans-serif" font-size="13" lengthAdjust="spacing" textLength="91.019" x="572.6572" y="499.2544">Cupom Aceito</text><line style="stroke:#181818;stroke-width:1;stroke-dasharray:2.0,2.0;" x1="555.6572" x2="597.6572" y1="533.4531" y2="533.4531"/><line style="stroke:#181818;stroke-width:1;stroke-dasharray:2.0,2.0;" x1="597.6572" x2="597.6572" y1="533.4531" y2="546.4531"/><line style="stroke:#181818;stroke-width:1;stroke-dasharray:2.0,2.0;" x1="556.6572" x2="597.6572" y1="546.4531" y2="546.4531"/><polygon fill="#181818" points="566.6572,542.4531,556.6572,546.4531,566.6572,550.4531,562.6572,546.4531" style="stroke:#181818;stroke-width:1;"/><text fill="#000000" font-family="sans-serif" font-size="13" lengthAdjust="spacing" textLength="356.3511" x="562.6572" y="528.3872">Calcular Resumo Atualizado (Total + Frete - Desconto)</text><polygon fill="#181818" points="306.4204,571.5859,296.4204,575.5859,306.4204,579.5859,302.4204,575.5859" style="stroke:#181818;stroke-width:1;"/><line style="stroke:#181818;stroke-width:1;stroke-dasharray:2.0,2.0;" x1="300.4204" x2="544.6572" y1="575.5859" y2="575.5859"/><text fill="#000000" font-family="sans-serif" font-size="13" lengthAdjust="spacing" textLength="166.0674" x="312.4204" y="570.52">Exibir Resumo Atualizado</text><line style="stroke:#000000;stroke-width:1;stroke-dasharray:2.0,2.0;" x1="210.8589" x2="991.0557" y1="584.5859" y2="584.5859"/><text fill="#000000" font-family="sans-serif" font-size="11" font-weight="bold" lengthAdjust="spacing" textLength="106.1704" x="215.8589" y="594.7964">[Cupom Inválido]</text><polygon fill="#181818" points="566.6572,615.5234,556.6572,619.5234,566.6572,623.5234,562.6572,619.5234" style="stroke:#181818;stroke-width:1;"/><line style="stroke:#181818;stroke-width:1;stroke-dasharray:2.0,2.0;" x1="560.6572" x2="935.0083" y1="619.5234" y2="619.5234"/><text fill="#000000" font-family="sans-serif" font-size="13" lengthAdjust="spacing" textLength="101.48" x="572.6572" y="614.4575">Cupom Inválido</text><polygon fill="#181818" points="306.4204,644.6563,296.4204,648.6563,306.4204,652.6563,302.4204,648.6563" style="stroke:#181818;stroke-width:1;"/><line style="stroke:#181818;stroke-width:1;stroke-dasharray:2.0,2.0;" x1="300.4204" x2="544.6572" y1="648.6563" y2="648.6563"/><text fill="#000000" font-family="sans-serif" font-size="13" lengthAdjust="spacing" textLength="226.2368" x="312.4204" y="643.5903">Notificar Erro no Código do Cupom</text><rect fill="#EEEEEE" filter="url(#f75goks7vravc)" height="3" style="stroke:#EEEEEE;stroke-width:1;" width="1001.0557" x="0" y="684.2227"/><line style="stroke:#000000;stroke-width:1;" x1="0" x2="1001.0557" y1="684.2227" y2="684.2227"/><line style="stroke:#000000;stroke-width:1;" x1="0" x2="1001.0557" y1="687.2227" y2="687.2227"/><rect fill="#EEEEEE" filter="url(#f75goks7vravc)" height="23.1328" style="stroke:#000000;stroke-width:2;" width="268.0142" x="366.5208" y="673.6563"/><text fill="#000000" font-family="sans-serif" font-size="13" font-weight="bold" lengthAdjust="spacing" textLength="249.4883" x="372.5208" y="689.7231">Seleção de Método de Pagamento</text><polygon fill="#181818" points="278.4204,723.9219,288.4204,727.9219,278.4204,731.9219,282.4204,727.9219" style="stroke:#181818;stroke-width:1;"/><line style="stroke:#181818;stroke-width:1;" x1="47.2041" x2="284.4204" y1="727.9219" y2="727.9219"/><text fill="#000000" font-family="sans-serif" font-size="13" lengthAdjust="spacing" textLength="219.2163" x="54.2041" y="722.856">Selecionar Método de Pagamento</text><!--SRC=[ZPDDRjim48NtFCKWgnQ5Bn3O1Wmx1R9e4SIjznGvjWUXE099kMblKtHHTD5LZw2BTIZBaVpNL2j2VD_CcqToInPXpPmAVbRnYNobWouXRhNbB-Gta4ADIccJEC2Sooh8HW0TmJX2ds0yRlUcKrLmxQqEN-7pVTw_cM_HF76TuDud36jjy4RK1vK0XdqAxA12IvPZ2prqwoM67Us9aapW6FS_1BCwwK97X4MtQ4bRA3MPm8VcL-9SGCPwq1jTYaU6oKHrTaVJREyMbkp8KDBXCf47ffrEA6ebm4YuWyrRoS77scLueQ-JdLuTk5p35e8_egah38BFTKX8GGFNlOy5nOfzytk75FjgCj-Xq7WqsXUwqDtYa13dMTmxltkcWgxDF60FtWU_98WSyAoIuBBrkkBoGh0BshInpfi_bZQSExJIKzrHdN_7lS90wrQCiDAEx3bsDUiN_QcTOKnAkzGDj6g-2y0Av9C29-VUIcO6AUqLmtO3cNQcTjBq4MDTCinIBIw-oM71cq-Sj8Dty3wWz1x10cD-1loshNVjlCuAANIncqIUr-vrqyUYipuVENKHtuN0uBaFZBl0qDkJs_LVzsM93fkVpOys-kxUlVeuXJ74ld-THyHV]--></g></svg>