<svg xmlns="http://www.w3.org/2000/svg" xmlns:xlink="http://www.w3.org/1999/xlink" contentStyleType="text/css" height="873px" preserveAspectRatio="none" style="width:849px;height:873px;background:#FFFFFF;" version="1.1" viewBox="0 0 849 873" width="849px" zoomAndPan="magnify"><defs><filter height="300%" id="f1qmtj5g65sq5l" width="300%" x="-1" y="-1"><feGaussianBlur result="blurOut" stdDeviation="2"/><feColorMatrix in="blurOut" result="blurOut2" type="matrix" values="0 0 0 0 0 0 0 0 0 0 0 0 0 0 0 0 0 0 .4 0"/><feOffset dx="4" dy="4" in="blurOut2" result="blurOut3"/><feBlend in="SourceGraphic" in2="blurOut3" mode="normal"/></filter></defs><g><rect fill="#FFFFFF" filter="url(#f1qmtj5g65sq5l)" height="158.6641" style="stroke:#181818;stroke-width:1;" width="10" x="309.2715" y="174.8594"/><rect fill="#FFFFFF" filter="url(#f1qmtj5g65sq5l)" height="129.5313" style="stroke:#181818;stroke-width:1;" width="10" x="530.9292" y="203.9922"/><rect fill="#FFFFFF" filter="url(#f1qmtj5g65sq5l)" height="158.6641" style="stroke:#181818;stroke-width:1;" width="10" x="530.9292" y="610.7188"/><rect fill="#FFFFFF" filter="url(#f1qmtj5g65sq5l)" height="29.1328" style="stroke:#181818;stroke-width:1;" width="10" x="777.7046" y="233.125"/><rect fill="#FFFFFF" filter="url(#f1qmtj5g65sq5l)" height="29.1328" style="stroke:#181818;stroke-width:1;" width="10" x="777.7046" y="668.9844"/><rect fill="none" filter="url(#f1qmtj5g65sq5l)" height="385.7266" style="stroke:#000000;stroke-width:1.5;" width="822.752" x="10" y="391.6563"/><rect fill="none" filter="url(#f1qmtj5g65sq5l)" height="46.2656" style="stroke:#000000;stroke-width:1.5;" width="373.833" x="20" y="415.7891"/><rect fill="none" filter="url(#f1qmtj5g65sq5l)" height="46.2656" style="stroke:#000000;stroke-width:1.5;" width="373.833" x="20" y="476.0547"/><rect fill="none" filter="url(#f1qmtj5g65sq5l)" height="46.2656" style="stroke:#000000;stroke-width:1.5;" width="373.833" x="20" y="536.3203"/><line style="stroke:#181818;stroke-width:0.5;stroke-dasharray:5.0,5.0;" x1="72" x2="72" y1="100.5938" y2="866.6484"/><line style="stroke:#181818;stroke-width:0.5;stroke-dasharray:5.0,5.0;" x1="313.71" x2="313.71" y1="100.5938" y2="866.6484"/><line style="stroke:#181818;stroke-width:0.5;stroke-dasharray:5.0,5.0;" x1="535.7944" x2="535.7944" y1="100.5938" y2="866.6484"/><line style="stroke:#181818;stroke-width:0.5;stroke-dasharray:5.0,5.0;" x1="782.6572" x2="782.6572" y1="100.5938" y2="866.6484"/><text fill="#000000" font-family="sans-serif" font-size="14" font-style="italic" lengthAdjust="spacing" textLength="53.3682" x="42.52" y="80.9951">«actor»</text><text fill="#000000" font-family="sans-serif" font-size="14" lengthAdjust="spacing" textLength="78.4082" x="30" y="97.292">Comprador</text><ellipse cx="72.2041" cy="13.5" fill="#E2E2F0" filter="url(#f1qmtj5g65sq5l)" rx="8" ry="8" style="stroke:#181818;stroke-width:0.5;"/><path d="M72.2041,21.5 L72.2041,48.5 M59.2041,29.5 L85.2041,29.5 M72.2041,48.5 L59.2041,63.5 M72.2041,48.5 L85.2041,63.5 " fill="none" filter="url(#f1qmtj5g65sq5l)" style="stroke:#181818;stroke-width:0.5;"/><text fill="#000000" font-family="sans-serif" font-size="14" font-style="italic" lengthAdjust="spacing" textLength="83.9863" x="269.2783" y="80.9951">«boundary»</text><text fill="#000000" font-family="sans-serif" font-size="14" lengthAdjust="spacing" textLength="133.123" x="244.71" y="97.292">Checkout Interface</text><path d="M293.7715,40 L293.7715,64 M293.7715,52 L310.7715,52 " fill="none" filter="url(#f1qmtj5g65sq5l)" style="stroke:#181818;stroke-width:0.5;"/><ellipse cx="322.7715" cy="52" fill="#E2E2F0" filter="url(#f1qmtj5g65sq5l)" rx="12" ry="12" style="stroke:#181818;stroke-width:0.5;"/><text fill="#000000" font-family="sans-serif" font-size="14" font-style="italic" lengthAdjust="spacing" textLength="114.2695" x="475.7944" y="80.9951">«microsservice»</text><text fill="#000000" font-family="sans-serif" font-size="14" lengthAdjust="spacing" textLength="110.7695" x="477.5444" y="97.292">Pedidos Service</text><ellipse cx="535.9292" cy="52" fill="#E2E2F0" filter="url(#f1qmtj5g65sq5l)" rx="12" ry="12" style="stroke:#181818;stroke-width:0.5;"/><polygon fill="#181818" points="531.9292,40,537.9292,35,535.9292,40,537.9292,45,531.9292,40" style="stroke:#181818;stroke-width:1;"/><text fill="#000000" font-family="sans-serif" font-size="14" lengthAdjust="spacing" textLength="74.0947" x="742.6572" y="97.292">Databases</text><path d="M764.7046,48.2969 C764.7046,38.2969 782.7046,38.2969 782.7046,38.2969 C782.7046,38.2969 800.7046,38.2969 800.7046,48.2969 L800.7046,74.2969 C800.7046,84.2969 782.7046,84.2969 782.7046,84.2969 C782.7046,84.2969 764.7046,84.2969 764.7046,74.2969 L764.7046,48.2969 " fill="#E2E2F0" filter="url(#f1qmtj5g65sq5l)" style="stroke:#181818;stroke-width:1.5;"/><path d="M764.7046,48.2969 C764.7046,58.2969 782.7046,58.2969 782.7046,58.2969 C782.7046,58.2969 800.7046,58.2969 800.7046,48.2969 " fill="none" style="stroke:#181818;stroke-width:1.5;"/><rect fill="#FFFFFF" filter="url(#f1qmtj5g65sq5l)" height="158.6641" style="stroke:#181818;stroke-width:1;" width="10" x="309.2715" y="174.8594"/><rect fill="#FFFFFF" filter="url(#f1qmtj5g65sq5l)" height="129.5313" style="stroke:#181818;stroke-width:1;" width="10" x="530.9292" y="203.9922"/><rect fill="#FFFFFF" filter="url(#f1qmtj5g65sq5l)" height="158.6641" style="stroke:#181818;stroke-width:1;" width="10" x="530.9292" y="610.7188"/><rect fill="#FFFFFF" filter="url(#f1qmtj5g65sq5l)" height="29.1328" style="stroke:#181818;stroke-width:1;" width="10" x="777.7046" y="233.125"/><rect fill="#FFFFFF" filter="url(#f1qmtj5g65sq5l)" height="29.1328" style="stroke:#181818;stroke-width:1;" width="10" x="777.7046" y="668.9844"/><rect fill="#EEEEEE" filter="url(#f1qmtj5g65sq5l)" height="3" style="stroke:#EEEEEE;stroke-width:1;" width="842.752" x="0" y="131.1602"/><line style="stroke:#000000;stroke-width:1;" x1="0" x2="842.752" y1="131.1602" y2="131.1602"/><line style="stroke:#000000;stroke-width:1;" x1="0" x2="842.752" y1="134.1602" y2="134.1602"/><rect fill="#EEEEEE" filter="url(#f1qmtj5g65sq5l)" height="23.1328" style="stroke:#000000;stroke-width:2;" width="158.0283" x="342.3618" y="120.5938"/><text fill="#000000" font-family="sans-serif" font-size="13" font-weight="bold" lengthAdjust="spacing" textLength="139.5024" x="348.3618" y="136.6606">Visualizar Carrinho</text><polygon fill="#181818" points="297.2715,170.8594,307.2715,174.8594,297.2715,178.8594,301.2715,174.8594" style="stroke:#181818;stroke-width:1;"/><line style="stroke:#181818;stroke-width:1;" x1="72.2041" x2="303.2715" y1="174.8594" y2="174.8594"/><text fill="#000000" font-family="sans-serif" font-size="13" lengthAdjust="spacing" textLength="189.6362" x="79.2041" y="169.7935">Solicitar Resumo do Carrinho</text><polygon fill="#181818" points="518.9292,199.9922,528.9292,203.9922,518.9292,207.9922,522.9292,203.9922" style="stroke:#181818;stroke-width:1;"/><line style="stroke:#181818;stroke-width:1;stroke-dasharray:2.0,2.0;" x1="319.2715" x2="524.9292" y1="203.9922" y2="203.9922"/><text fill="#000000" font-family="sans-serif" font-size="13" lengthAdjust="spacing" textLength="192.6577" x="326.2715" y="198.9263">Recuperar Dados do Carrinho</text><polygon fill="#181818" points="765.7046,229.125,775.7046,233.125,765.7046,237.125,769.7046,233.125" style="stroke:#181818;stroke-width:1;"/><line style="stroke:#181818;stroke-width:1;stroke-dasharray:2.0,2.0;" x1="540.9292" x2="771.7046" y1="233.125" y2="233.125"/><text fill="#000000" font-family="sans-serif" font-size="13" lengthAdjust="spacing" textLength="187.6367" x="547.9292" y="228.0591">Consultar Dados do Carrinho</text><polygon fill="#181818" points="551.9292,258.2578,541.9292,262.2578,551.9292,266.2578,547.9292,262.2578" style="stroke:#181818;stroke-width:1;"/><line style="stroke:#181818;stroke-width:1;stroke-dasharray:2.0,2.0;" x1="545.9292" x2="781.7046" y1="262.2578" y2="262.2578"/><text fill="#000000" font-family="sans-serif" font-size="13" lengthAdjust="spacing" textLength="121.2021" x="557.9292" y="257.1919">Dados do Carrinho</text><line style="stroke:#181818;stroke-width:1;" x1="540.9292" x2="582.9292" y1="291.3906" y2="291.3906"/><line style="stroke:#181818;stroke-width:1;" x1="582.9292" x2="582.9292" y1="291.3906" y2="304.3906"/><line style="stroke:#181818;stroke-width:1;" x1="541.9292" x2="582.9292" y1="304.3906" y2="304.3906"/><polygon fill="#181818" points="551.9292,300.3906,541.9292,304.3906,551.9292,308.3906,547.9292,304.3906" style="stroke:#181818;stroke-width:1;"/><text fill="#000000" font-family="sans-serif" font-size="13" lengthAdjust="spacing" textLength="190.0044" x="547.9292" y="286.3247">Calcular Resumo do Carrinho</text><polygon fill="#181818" points="325.2715,329.5234,315.2715,333.5234,325.2715,337.5234,321.2715,333.5234" style="stroke:#181818;stroke-width:1;"/><line style="stroke:#181818;stroke-width:1;stroke-dasharray:2.0,2.0;" x1="319.2715" x2="534.9292" y1="333.5234" y2="333.5234"/><text fill="#000000" font-family="sans-serif" font-size="13" lengthAdjust="spacing" textLength="173.7671" x="331.2715" y="328.4575">Exibir Resumo do Carrinho</text><rect fill="#EEEEEE" filter="url(#f1qmtj5g65sq5l)" height="3" style="stroke:#EEEEEE;stroke-width:1;" width="842.752" x="0" y="362.0898"/><line style="stroke:#000000;stroke-width:1;" x1="0" x2="842.752" y1="362.0898" y2="362.0898"/><line style="stroke:#000000;stroke-width:1;" x1="0" x2="842.752" y1="365.0898" y2="365.0898"/><rect fill="#EEEEEE" filter="url(#f1qmtj5g65sq5l)" height="23.1328" style="stroke:#000000;stroke-width:2;" width="223.4346" x="309.6587" y="351.5234"/><text fill="#000000" font-family="sans-serif" font-size="13" font-weight="bold" lengthAdjust="spacing" textLength="204.9087" x="315.6587" y="367.5903">Alterar Quantidade de Itens</text><path d="M10,391.6563 L74.4429,391.6563 L74.4429,398.7891 L64.4429,408.7891 L10,408.7891 L10,391.6563 " fill="#EEEEEE" style="stroke:#000000;stroke-width:1.5;"/><rect fill="none" height="385.7266" style="stroke:#000000;stroke-width:1.5;" width="822.752" x="10" y="391.6563"/><text fill="#000000" font-family="sans-serif" font-size="13" font-weight="bold" lengthAdjust="spacing" textLength="19.4429" x="25" y="404.7231">alt</text><text fill="#000000" font-family="sans-serif" font-size="11" font-weight="bold" lengthAdjust="spacing" textLength="144.0527" x="89.4429" y="403.8667">[Modificar Quantidade]</text><path d="M20,415.7891 L89.4512,415.7891 L89.4512,422.9219 L79.4512,432.9219 L20,432.9219 L20,415.7891 " fill="#EEEEEE" style="stroke:#000000;stroke-width:1.5;"/><rect fill="none" height="46.2656" style="stroke:#000000;stroke-width:1.5;" width="373.833" x="20" y="415.7891"/><text fill="#000000" font-family="sans-serif" font-size="13" font-weight="bold" lengthAdjust="spacing" textLength="24.4512" x="35" y="428.856">opt</text><text fill="#000000" font-family="sans-serif" font-size="11" font-weight="bold" lengthAdjust="spacing" textLength="161.7183" x="104.4512" y="427.9995">[Inserir Nova Quantidade]</text><polygon fill="#181818" points="302.2715,450.0547,312.2715,454.0547,302.2715,458.0547,306.2715,454.0547" style="stroke:#181818;stroke-width:1;"/><line style="stroke:#181818;stroke-width:1;" x1="72.2041" x2="308.2715" y1="454.0547" y2="454.0547"/><text fill="#000000" font-family="sans-serif" font-size="13" lengthAdjust="spacing" textLength="194.6128" x="79.2041" y="448.9888">Alterar Quantidade no Campo</text><path d="M20,476.0547 L89.4512,476.0547 L89.4512,483.1875 L79.4512,493.1875 L20,493.1875 L20,476.0547 " fill="#EEEEEE" style="stroke:#000000;stroke-width:1.5;"/><rect fill="none" height="46.2656" style="stroke:#000000;stroke-width:1.5;" width="373.833" x="20" y="476.0547"/><text fill="#000000" font-family="sans-serif" font-size="13" font-weight="bold" lengthAdjust="spacing" textLength="24.4512" x="35" y="489.1216">opt</text><text fill="#000000" font-family="sans-serif" font-size="11" font-weight="bold" lengthAdjust="spacing" textLength="118.3467" x="104.4512" y="488.2651">[Incrementar Item]</text><polygon fill="#181818" points="302.2715,510.3203,312.2715,514.3203,302.2715,518.3203,306.2715,514.3203" style="stroke:#181818;stroke-width:1;"/><line style="stroke:#181818;stroke-width:1;" x1="72.2041" x2="308.2715" y1="514.3203" y2="514.3203"/><text fill="#000000" font-family="sans-serif" font-size="13" lengthAdjust="spacing" textLength="192.1753" x="79.2041" y="509.2544">Incrementar Quantidade ('+')</text><path d="M20,536.3203 L89.4512,536.3203 L89.4512,543.4531 L79.4512,553.4531 L20,553.4531 L20,536.3203 " fill="#EEEEEE" style="stroke:#000000;stroke-width:1.5;"/><rect fill="none" height="46.2656" style="stroke:#000000;stroke-width:1.5;" width="373.833" x="20" y="536.3203"/><text fill="#000000" font-family="sans-serif" font-size="13" font-weight="bold" lengthAdjust="spacing" textLength="24.4512" x="35" y="549.3872">opt</text><text fill="#000000" font-family="sans-serif" font-size="11" font-weight="bold" lengthAdjust="spacing" textLength="123.0142" x="104.4512" y="548.5308">[Decrementar Item]</text><polygon fill="#181818" points="302.2715,570.5859,312.2715,574.5859,302.2715,578.5859,306.2715,574.5859" style="stroke:#181818;stroke-width:1;"/><line style="stroke:#181818;stroke-width:1;" x1="72.2041" x2="308.2715" y1="574.5859" y2="574.5859"/><text fill="#000000" font-family="sans-serif" font-size="13" lengthAdjust="spacing" textLength="191.9087" x="79.2041" y="569.52">Decrementar Quantidade ('-')</text><polygon fill="#181818" points="518.9292,606.7188,528.9292,610.7188,518.9292,614.7188,522.9292,610.7188" style="stroke:#181818;stroke-width:1;"/><line style="stroke:#181818;stroke-width:1;stroke-dasharray:2.0,2.0;" x1="314.2715" x2="524.9292" y1="610.7188" y2="610.7188"/><text fill="#000000" font-family="sans-serif" font-size="13" lengthAdjust="spacing" textLength="191.604" x="321.2715" y="605.6528">Atualizar Quantidade do Item</text><polygon fill="#181818" points="770.7046,635.8516,780.7046,639.8516,770.7046,643.8516,774.7046,639.8516" style="stroke:#181818;stroke-width:1;"/><line style="stroke:#181818;stroke-width:1;stroke-dasharray:2.0,2.0;" x1="540.9292" x2="776.7046" y1="639.8516" y2="639.8516"/><text fill="#000000" font-family="sans-serif" font-size="13" lengthAdjust="spacing" textLength="217.7754" x="547.9292" y="634.7856">Atualizar Quantidade no Carrinho</text><polygon fill="#181818" points="765.7046,664.9844,775.7046,668.9844,765.7046,672.9844,769.7046,668.9844" style="stroke:#181818;stroke-width:1;"/><line style="stroke:#181818;stroke-width:1;stroke-dasharray:2.0,2.0;" x1="540.9292" x2="771.7046" y1="668.9844" y2="668.9844"/><text fill="#000000" font-family="sans-serif" font-size="13" lengthAdjust="spacing" textLength="209.8599" x="547.9292" y="663.9185">Reconsultar Carrinho Atualizado</text><polygon fill="#181818" points="551.9292,694.1172,541.9292,698.1172,551.9292,702.1172,547.9292,698.1172" style="stroke:#181818;stroke-width:1;"/><line style="stroke:#181818;stroke-width:1;stroke-dasharray:2.0,2.0;" x1="545.9292" x2="781.7046" y1="698.1172" y2="698.1172"/><text fill="#000000" font-family="sans-serif" font-size="13" lengthAdjust="spacing" textLength="200.5225" x="557.9292" y="693.0513">Dados Atualizados do Carrinho</text><line style="stroke:#181818;stroke-width:1;" x1="540.9292" x2="582.9292" y1="727.25" y2="727.25"/><line style="stroke:#181818;stroke-width:1;" x1="582.9292" x2="582.9292" y1="727.25" y2="740.25"/><line style="stroke:#181818;stroke-width:1;" x1="541.9292" x2="582.9292" y1="740.25" y2="740.25"/><polygon fill="#181818" points="551.9292,736.25,541.9292,740.25,551.9292,744.25,547.9292,740.25" style="stroke:#181818;stroke-width:1;"/><text fill="#000000" font-family="sans-serif" font-size="13" lengthAdjust="spacing" textLength="205.1055" x="547.9292" y="722.1841">Recalcular Resumo do Carrinho</text><polygon fill="#181818" points="325.2715,765.3828,315.2715,769.3828,325.2715,773.3828,321.2715,769.3828" style="stroke:#181818;stroke-width:1;"/><line style="stroke:#181818;stroke-width:1;stroke-dasharray:2.0,2.0;" x1="319.2715" x2="534.9292" y1="769.3828" y2="769.3828"/><text fill="#000000" font-family="sans-serif" font-size="13" lengthAdjust="spacing" textLength="169.1841" x="331.2715" y="764.3169">Exibir Carrinho Atualizado</text><rect fill="#EEEEEE" filter="url(#f1qmtj5g65sq5l)" height="3" style="stroke:#EEEEEE;stroke-width:1;" width="842.752" x="0" y="804.9492"/><line style="stroke:#000000;stroke-width:1;" x1="0" x2="842.752" y1="804.9492" y2="804.9492"/><line style="stroke:#000000;stroke-width:1;" x1="0" x2="842.752" y1="807.9492" y2="807.9492"/><rect fill="#EEEEEE" filter="url(#f1qmtj5g65sq5l)" height="23.1328" style="stroke:#000000;stroke-width:2;" width="123.2368" x="359.7576" y="794.3828"/><text fill="#000000" font-family="sans-serif" font-size="13" font-weight="bold" lengthAdjust="spacing" textLength="104.7109" x="365.7576" y="810.4497">Fechar Pedido</text><polygon fill="#181818" points="302.2715,844.6484,312.2715,848.6484,302.2715,852.6484,306.2715,848.6484" style="stroke:#181818;stroke-width:1;"/><line style="stroke:#181818;stroke-width:1;" x1="72.2041" x2="308.2715" y1="848.6484" y2="848.6484"/><text fill="#000000" font-family="sans-serif" font-size="13" lengthAdjust="spacing" textLength="218.0674" x="79.2041" y="843.5825">Confirmar Fechamento do Pedido</text><!--SRC=[ZLJBRjim4BppAuXSqgBG3mIsWS1k0HzQj0tQ-ugagqKeha1IRjglxr8FcxAOe88E13ap-ngoGMtaYIZMz2B2CxeEFBGoDA3fDxfVClhU204gafTxQZlF1rv2aCgYSL5kDiFPRYTgwfq6_qV-EARpktrZr3FrKHvTDFu4ojmnUaOnGP6BdgpiZ4PDOI1zdTPFnfznPBIeF8KmRZ1DGuGQWf67QJ4mTIt4TYj_OkZ1ub_WRC5xT0t9xLPCoLQxbDo3V2AB2YE3lflGjoGrNU2fLZn3D0mLZAwOD6Vum7ZLTyOpym1ffqYSu6Ac9GbTCtjFBlGslitcIcRYfgf6uXgkJOcmo7KFLlMsN2GNbiIlu8ylM6CHcaMQ2yksk4cfxuys3btvreEBg85TnVyn6XTI_y56-Paqdb0jG4BoHrto20-Out-XCzoUf-zcW8LmBgNSTZHGZDEPjFAcPJRZEQ7sDSqSb-c-k_zm_tubUZ3_9vhZ5g9L9ZeiLbPxZBEJywRIDTngB6bpvRcYZClcMsInpozUlLoaMKhJCZuRC1UvSUsLjNHmeYnTlCZavjQzuUMfUqK_lvPxmTJ39DZAdungED3u4XKU3xx49_GjGmPa6kwGpqZu1m00]--></g></svg>