<svg xmlns="http://www.w3.org/2000/svg" xmlns:xlink="http://www.w3.org/1999/xlink" contentStyleType="text/css" height="478px" preserveAspectRatio="none" style="width:800px;height:478px;background:#FFFFFF;" version="1.1" viewBox="0 0 800 478" width="800px" zoomAndPan="magnify"><defs><filter height="300%" id="f25jtilbyz6u7" width="300%" x="-1" y="-1"><feGaussianBlur result="blurOut" stdDeviation="2"/><feColorMatrix in="blurOut" result="blurOut2" type="matrix" values="0 0 0 0 0 0 0 0 0 0 0 0 0 0 0 0 0 0 .4 0"/><feOffset dx="4" dy="4" in="blurOut2" result="blurOut3"/><feBlend in="SourceGraphic" in2="blurOut3" mode="normal"/></filter></defs><g><rect fill="#FFFFFF" filter="url(#f25jtilbyz6u7)" height="58.2656" style="stroke:#181818;stroke-width:1;" width="10" x="253.6694" y="131.7266"/><rect fill="#FFFFFF" filter="url(#f25jtilbyz6u7)" height="242.6016" style="stroke:#181818;stroke-width:1;" width="10" x="253.6694" y="219.125"/><rect fill="#FFFFFF" filter="url(#f25jtilbyz6u7)" height="29.1328" style="stroke:#181818;stroke-width:1;" width="10" x="542.5151" y="160.8594"/><rect fill="#FFFFFF" filter="url(#f25jtilbyz6u7)" height="213.4688" style="stroke:#181818;stroke-width:1;" width="10" x="542.5151" y="248.2578"/><rect fill="#FFFFFF" filter="url(#f25jtilbyz6u7)" height="30" style="stroke:#181818;stroke-width:1;" width="10" x="733.6724" y="343.6563"/><rect fill="none" filter="url(#f25jtilbyz6u7)" height="149.3359" style="stroke:#000000;stroke-width:1.5;" width="609.6118" x="179.1079" y="305.3906"/><line style="stroke:#181818;stroke-width:0.5;stroke-dasharray:5.0,5.0;" x1="47" x2="47" y1="100.5938" y2="471.7266"/><line style="stroke:#181818;stroke-width:0.5;stroke-dasharray:5.0,5.0;" x1="258.1079" x2="258.1079" y1="100.5938" y2="471.7266"/><line style="stroke:#181818;stroke-width:0.5;stroke-dasharray:5.0,5.0;" x1="546.957" x2="546.957" y1="100.5938" y2="471.7266"/><line style="stroke:#181818;stroke-width:0.5;stroke-dasharray:5.0,5.0;" x1="738.625" x2="738.625" y1="100.5938" y2="471.7266"/><text fill="#000000" font-family="sans-serif" font-size="14" font-style="italic" lengthAdjust="spacing" textLength="53.3682" x="17.52" y="80.9951">«actor»</text><text fill="#000000" font-family="sans-serif" font-size="14" lengthAdjust="spacing" textLength="78.4082" x="5" y="97.292">Comprador</text><ellipse cx="47.2041" cy="13.5" fill="#E2E2F0" filter="url(#f25jtilbyz6u7)" rx="8" ry="8" style="stroke:#181818;stroke-width:0.5;"/><path d="M47.2041,21.5 L47.2041,48.5 M34.2041,29.5 L60.2041,29.5 M47.2041,48.5 L34.2041,63.5 M47.2041,48.5 L60.2041,63.5 " fill="none" filter="url(#f25jtilbyz6u7)" style="stroke:#181818;stroke-width:0.5;"/><text fill="#000000" font-family="sans-serif" font-size="14" font-style="italic" lengthAdjust="spacing" textLength="83.9863" x="213.6763" y="80.9951">«boundary»</text><text fill="#000000" font-family="sans-serif" font-size="14" lengthAdjust="spacing" textLength="133.123" x="189.1079" y="97.292">Checkout Interface</text><path d="M238.1694,40 L238.1694,64 M238.1694,52 L255.1694,52 " fill="none" filter="url(#f25jtilbyz6u7)" style="stroke:#181818;stroke-width:0.5;"/><ellipse cx="267.1694" cy="52" fill="#E2E2F0" filter="url(#f25jtilbyz6u7)" rx="12" ry="12" style="stroke:#181818;stroke-width:0.5;"/><text fill="#000000" font-family="sans-serif" font-size="14" font-style="italic" lengthAdjust="spacing" textLength="114.2695" x="487.3804" y="80.9951">«microsservice»</text><text fill="#000000" font-family="sans-serif" font-size="14" lengthAdjust="spacing" textLength="119.1162" x="484.957" y="97.292">Cadastro Service</text><ellipse cx="547.5151" cy="52" fill="#E2E2F0" filter="url(#f25jtilbyz6u7)" rx="12" ry="12" style="stroke:#181818;stroke-width:0.5;"/><polygon fill="#181818" points="543.5151,40,549.5151,35,547.5151,40,549.5151,45,543.5151,40" style="stroke:#181818;stroke-width:1;"/><text fill="#000000" font-family="sans-serif" font-size="14" lengthAdjust="spacing" textLength="74.0947" x="698.625" y="97.292">Databases</text><path d="M720.6724,48.2969 C720.6724,38.2969 738.6724,38.2969 738.6724,38.2969 C738.6724,38.2969 756.6724,38.2969 756.6724,48.2969 L756.6724,74.2969 C756.6724,84.2969 738.6724,84.2969 738.6724,84.2969 C738.6724,84.2969 720.6724,84.2969 720.6724,74.2969 L720.6724,48.2969 " fill="#E2E2F0" filter="url(#f25jtilbyz6u7)" style="stroke:#181818;stroke-width:1.5;"/><path d="M720.6724,48.2969 C720.6724,58.2969 738.6724,58.2969 738.6724,58.2969 C738.6724,58.2969 756.6724,58.2969 756.6724,48.2969 " fill="none" style="stroke:#181818;stroke-width:1.5;"/><rect fill="#FFFFFF" filter="url(#f25jtilbyz6u7)" height="58.2656" style="stroke:#181818;stroke-width:1;" width="10" x="253.6694" y="131.7266"/><rect fill="#FFFFFF" filter="url(#f25jtilbyz6u7)" height="242.6016" style="stroke:#181818;stroke-width:1;" width="10" x="253.6694" y="219.125"/><rect fill="#FFFFFF" filter="url(#f25jtilbyz6u7)" height="29.1328" style="stroke:#181818;stroke-width:1;" width="10" x="542.5151" y="160.8594"/><rect fill="#FFFFFF" filter="url(#f25jtilbyz6u7)" height="213.4688" style="stroke:#181818;stroke-width:1;" width="10" x="542.5151" y="248.2578"/><rect fill="#FFFFFF" filter="url(#f25jtilbyz6u7)" height="30" style="stroke:#181818;stroke-width:1;" width="10" x="733.6724" y="343.6563"/><polygon fill="#181818" points="241.6694,127.7266,251.6694,131.7266,241.6694,135.7266,245.6694,131.7266" style="stroke:#181818;stroke-width:1;"/><line style="stroke:#181818;stroke-width:1;" x1="47.2041" x2="247.6694" y1="131.7266" y2="131.7266"/><text fill="#000000" font-family="sans-serif" font-size="13" lengthAdjust="spacing" textLength="163.7568" x="54.2041" y="126.6606">Adicionar Novo Endereço</text><polygon fill="#181818" points="530.5151,156.8594,540.5151,160.8594,530.5151,164.8594,534.5151,160.8594" style="stroke:#181818;stroke-width:1;"/><line style="stroke:#181818;stroke-width:1;stroke-dasharray:2.0,2.0;" x1="263.6694" x2="536.5151" y1="160.8594" y2="160.8594"/><text fill="#000000" font-family="sans-serif" font-size="13" lengthAdjust="spacing" textLength="250.0151" x="270.6694" y="155.7935">Solicitar Formulário de Novo Endereço</text><polygon fill="#181818" points="269.6694,185.9922,259.6694,189.9922,269.6694,193.9922,265.6694,189.9922" style="stroke:#181818;stroke-width:1;"/><line style="stroke:#181818;stroke-width:1;stroke-dasharray:2.0,2.0;" x1="263.6694" x2="546.5151" y1="189.9922" y2="189.9922"/><text fill="#000000" font-family="sans-serif" font-size="13" lengthAdjust="spacing" textLength="179.4165" x="275.6694" y="184.9263">Exibir Página de Formulário</text><polygon fill="#181818" points="241.6694,215.125,251.6694,219.125,241.6694,223.125,245.6694,219.125" style="stroke:#181818;stroke-width:1;"/><line style="stroke:#181818;stroke-width:1;" x1="47.2041" x2="247.6694" y1="219.125" y2="219.125"/><text fill="#000000" font-family="sans-serif" font-size="13" lengthAdjust="spacing" textLength="187.4653" x="54.2041" y="214.0591">Inserir e Confirmar Endereço</text><polygon fill="#181818" points="530.5151,244.2578,540.5151,248.2578,530.5151,252.2578,534.5151,248.2578" style="stroke:#181818;stroke-width:1;"/><line style="stroke:#181818;stroke-width:1;stroke-dasharray:2.0,2.0;" x1="263.6694" x2="536.5151" y1="248.2578" y2="248.2578"/><text fill="#000000" font-family="sans-serif" font-size="13" lengthAdjust="spacing" textLength="209.2314" x="270.6694" y="243.1919">Enviar Dados do Novo Endereço</text><line style="stroke:#181818;stroke-width:1;" x1="552.5151" x2="594.5151" y1="277.3906" y2="277.3906"/><line style="stroke:#181818;stroke-width:1;" x1="594.5151" x2="594.5151" y1="277.3906" y2="290.3906"/><line style="stroke:#181818;stroke-width:1;" x1="553.5151" x2="594.5151" y1="290.3906" y2="290.3906"/><polygon fill="#181818" points="563.5151,286.3906,553.5151,290.3906,563.5151,294.3906,559.5151,290.3906" style="stroke:#181818;stroke-width:1;"/><text fill="#000000" font-family="sans-serif" font-size="13" lengthAdjust="spacing" textLength="110.9253" x="559.5151" y="272.3247">Validar Endereço</text><path d="M179.1079,305.3906 L243.5508,305.3906 L243.5508,312.5234 L233.5508,322.5234 L179.1079,322.5234 L179.1079,305.3906 " fill="#EEEEEE" style="stroke:#000000;stroke-width:1.5;"/><rect fill="none" height="149.3359" style="stroke:#000000;stroke-width:1.5;" width="609.6118" x="179.1079" y="305.3906"/><text fill="#000000" font-family="sans-serif" font-size="13" font-weight="bold" lengthAdjust="spacing" textLength="19.4429" x="194.1079" y="318.4575">alt</text><text fill="#000000" font-family="sans-serif" font-size="11" font-weight="bold" lengthAdjust="spacing" textLength="110.4351" x="258.5508" y="317.6011">[Endereço Válido]</text><polygon fill="#181818" points="721.6724,339.6563,731.6724,343.6563,721.6724,347.6563,725.6724,343.6563" style="stroke:#181818;stroke-width:1;"/><line style="stroke:#181818;stroke-width:1;stroke-dasharray:2.0,2.0;" x1="552.5151" x2="727.6724" y1="343.6563" y2="343.6563"/><text fill="#000000" font-family="sans-serif" font-size="13" lengthAdjust="spacing" textLength="162.1572" x="559.5151" y="338.5903">Registrar Novo Endereço</text><polygon fill="#181818" points="274.6694,398.7891,264.6694,402.7891,274.6694,406.7891,270.6694,402.7891" style="stroke:#181818;stroke-width:1;"/><line style="stroke:#181818;stroke-width:1;stroke-dasharray:2.0,2.0;" x1="268.6694" x2="541.5151" y1="402.7891" y2="402.7891"/><text fill="#000000" font-family="sans-serif" font-size="13" lengthAdjust="spacing" textLength="161.0781" x="280.6694" y="397.7231">Confirmação de Registro</text><line style="stroke:#000000;stroke-width:1;stroke-dasharray:2.0,2.0;" x1="179.1079" x2="788.7197" y1="411.7891" y2="411.7891"/><text fill="#000000" font-family="sans-serif" font-size="11" font-weight="bold" lengthAdjust="spacing" textLength="121.0161" x="184.1079" y="421.9995">[Endereço Inválido]</text><polygon fill="#181818" points="274.6694,442.7266,264.6694,446.7266,274.6694,450.7266,270.6694,446.7266" style="stroke:#181818;stroke-width:1;"/><line style="stroke:#181818;stroke-width:1;stroke-dasharray:2.0,2.0;" x1="268.6694" x2="541.5151" y1="446.7266" y2="446.7266"/><text fill="#000000" font-family="sans-serif" font-size="13" lengthAdjust="spacing" textLength="254.8457" x="280.6694" y="441.6606">Notificação de Erro (Endereço Inválido)</text><!--SRC=[ZP9DRi9038NtSmgBLRlW0WWXLK0bDgWgAdjdPW2hoHWvGqgFWxhW8BbOFI7yjHGrg_bvtvjdEojo7XRCCUEjATyfh56mW7A5ZZyeB27AnXk3DhB0a8krw8K0bc1pyY52lz_S3GOcuqrmA9_mDadtdU7AstVUH9Y4w6M1rdTKVLGfO3b4uHmikWE03aizWPcNYWxoWgnmMHuEb74OCSFImwXTb0brcJ5jdkuWlT-39qUMEA30b2k6SN1UVBtdL0fL6BtAZ2gx2gG0FPXnhaXKufcbsEJrJeX1s_ENWMB9eT_jjWxZBMKay5BlbXGmeHTEnlahycAhINx6dmIjMRsyDZqiI0gDzOyQng4YLOvqIDeLlXiz4ITmZZcvgpSCvl6yXNczKmKRqAyX5NMPagz-IJgrturEojE3Eg6qloYwFJbwDLKVQwttzLVJ-jQSZSzrvkSqar3ToDDuJ3dIWkpPOopwIptSO1-D3-xkMBu1]--></g></svg>