<svg xmlns="http://www.w3.org/2000/svg" xmlns:xlink="http://www.w3.org/1999/xlink" contentStyleType="text/css" height="745px" preserveAspectRatio="none" style="width:1038px;height:745px;background:#FFFFFF;" version="1.1" viewBox="0 0 1038 745" width="1038px" zoomAndPan="magnify"><defs/><g><!--class Produto--><g id="elem_Produto"><rect codeLine="1" fill="#F1F1F1" height="56.2656" id="Produto" rx="2.5" ry="2.5" style="stroke:#181818;stroke-width:0.5;" width="90.6602" x="421.5" y="534"/><ellipse cx="436.5" cy="554.1328" fill="#A9DCDF" rx="11" ry="11" style="stroke:#181818;stroke-width:1;"/><path d="M436.6094,549.4766 L435.4531,554.5547 L437.7813,554.5547 L436.6094,549.4766 Z M435.125,547.2422 L438.1094,547.2422 L441.4688,559.6328 L439.0156,559.6328 L438.25,556.5703 L434.9688,556.5703 L434.2188,559.6328 L431.7813,559.6328 L435.125,547.2422 Z " fill="#000000"/><text fill="#000000" font-family="sans-serif" font-size="12" font-style="italic" lengthAdjust="spacing" textLength="62.6602" x="448.5" y="550.1387">«concept»</text><text fill="#000000" font-family="sans-serif" font-size="14" font-style="italic" lengthAdjust="spacing" textLength="54.5781" x="452.541" y="565.9639">Produto</text><line style="stroke:#181818;stroke-width:0.5;" x1="422.5" x2="511.1602" y1="574.2656" y2="574.2656"/><line style="stroke:#181818;stroke-width:0.5;" x1="422.5" x2="511.1602" y1="582.2656" y2="582.2656"/></g><!--class Embalagem--><g id="elem_Embalagem"><rect codeLine="3" fill="#F1F1F1" height="56.2656" id="Embalagem" rx="2.5" ry="2.5" style="stroke:#181818;stroke-width:0.5;" width="115.5557" x="319" y="666.5"/><ellipse cx="334" cy="686.6328" fill="#ADD1B2" rx="11" ry="11" style="stroke:#181818;stroke-width:1;"/><path d="M336.9688,692.2734 Q336.3906,692.5703 335.75,692.7109 Q335.1094,692.8672 334.4063,692.8672 Q331.9063,692.8672 330.5781,691.2266 Q329.2656,689.5703 329.2656,686.4453 Q329.2656,683.3203 330.5781,681.6641 Q331.9063,680.0078 334.4063,680.0078 Q335.1094,680.0078 335.75,680.1641 Q336.4063,680.3203 336.9688,680.6172 L336.9688,683.3359 Q336.3438,682.7578 335.75,682.4922 Q335.1563,682.2109 334.5313,682.2109 Q333.1875,682.2109 332.5,683.2891 Q331.8125,684.3516 331.8125,686.4453 Q331.8125,688.5391 332.5,689.6172 Q333.1875,690.6797 334.5313,690.6797 Q335.1563,690.6797 335.75,690.4141 Q336.3438,690.1328 336.9688,689.5547 L336.9688,692.2734 Z " fill="#000000"/><text fill="#000000" font-family="sans-serif" font-size="12" font-style="italic" lengthAdjust="spacing" textLength="62.6602" x="358.4478" y="682.6387">«concept»</text><text fill="#000000" font-family="sans-serif" font-size="14" lengthAdjust="spacing" textLength="83.5557" x="348" y="698.4639">Embalagem</text><line style="stroke:#181818;stroke-width:0.5;" x1="320" x2="433.5557" y1="706.7656" y2="706.7656"/><line style="stroke:#181818;stroke-width:0.5;" x1="320" x2="433.5557" y1="714.7656" y2="714.7656"/></g><!--class Endere?oDeEntrega--><g id="elem_EndereçoDeEntrega"><rect codeLine="5" fill="#F1F1F1" height="56.2656" id="EndereçoDeEntrega" rx="2.5" ry="2.5" style="stroke:#181818;stroke-width:0.5;" width="172.2871" x="7" y="212.5"/><ellipse cx="22" cy="232.6328" fill="#ADD1B2" rx="11" ry="11" style="stroke:#181818;stroke-width:1;"/><path d="M24.9688,238.2734 Q24.3906,238.5703 23.75,238.7109 Q23.1094,238.8672 22.4063,238.8672 Q19.9063,238.8672 18.5781,237.2266 Q17.2656,235.5703 17.2656,232.4453 Q17.2656,229.3203 18.5781,227.6641 Q19.9063,226.0078 22.4063,226.0078 Q23.1094,226.0078 23.75,226.1641 Q24.4063,226.3203 24.9688,226.6172 L24.9688,229.3359 Q24.3438,228.7578 23.75,228.4922 Q23.1563,228.2109 22.5313,228.2109 Q21.1875,228.2109 20.5,229.2891 Q19.8125,230.3516 19.8125,232.4453 Q19.8125,234.5391 20.5,235.6172 Q21.1875,236.6797 22.5313,236.6797 Q23.1563,236.6797 23.75,236.4141 Q24.3438,236.1328 24.9688,235.5547 L24.9688,238.2734 Z " fill="#000000"/><text fill="#000000" font-family="sans-serif" font-size="12" font-style="italic" lengthAdjust="spacing" textLength="62.6602" x="74.8135" y="228.6387">«concept»</text><text fill="#000000" font-family="sans-serif" font-size="14" lengthAdjust="spacing" textLength="140.2871" x="36" y="244.4639">EndereçoDeEntrega</text><line style="stroke:#181818;stroke-width:0.5;" x1="8" x2="178.2871" y1="252.7656" y2="252.7656"/><line style="stroke:#181818;stroke-width:0.5;" x1="8" x2="178.2871" y1="260.7656" y2="260.7656"/></g><!--class Endere?oDeCobran?a--><g id="elem_EndereçoDeCobrança"><rect codeLine="6" fill="#F1F1F1" height="56.2656" id="EndereçoDeCobrança" rx="2.5" ry="2.5" style="stroke:#181818;stroke-width:0.5;" width="183.9561" x="214" y="212.5"/><ellipse cx="229" cy="232.6328" fill="#ADD1B2" rx="11" ry="11" style="stroke:#181818;stroke-width:1;"/><path d="M231.9688,238.2734 Q231.3906,238.5703 230.75,238.7109 Q230.1094,238.8672 229.4063,238.8672 Q226.9063,238.8672 225.5781,237.2266 Q224.2656,235.5703 224.2656,232.4453 Q224.2656,229.3203 225.5781,227.6641 Q226.9063,226.0078 229.4063,226.0078 Q230.1094,226.0078 230.75,226.1641 Q231.4063,226.3203 231.9688,226.6172 L231.9688,229.3359 Q231.3438,228.7578 230.75,228.4922 Q230.1563,228.2109 229.5313,228.2109 Q228.1875,228.2109 227.5,229.2891 Q226.8125,230.3516 226.8125,232.4453 Q226.8125,234.5391 227.5,235.6172 Q228.1875,236.6797 229.5313,236.6797 Q230.1563,236.6797 230.75,236.4141 Q231.3438,236.1328 231.9688,235.5547 L231.9688,238.2734 Z " fill="#000000"/><text fill="#000000" font-family="sans-serif" font-size="12" font-style="italic" lengthAdjust="spacing" textLength="62.6602" x="287.6479" y="228.6387">«concept»</text><text fill="#000000" font-family="sans-serif" font-size="14" lengthAdjust="spacing" textLength="151.9561" x="243" y="244.4639">EndereçoDeCobrança</text><line style="stroke:#181818;stroke-width:0.5;" x1="215" x2="396.9561" y1="252.7656" y2="252.7656"/><line style="stroke:#181818;stroke-width:0.5;" x1="215" x2="396.9561" y1="260.7656" y2="260.7656"/></g><!--class Endere?oDeColeta--><g id="elem_EndereçoDeColeta"><rect codeLine="7" fill="#F1F1F1" height="56.2656" id="EndereçoDeColeta" rx="2.5" ry="2.5" style="stroke:#181818;stroke-width:0.5;" width="162.1563" x="548" y="534"/><ellipse cx="563" cy="554.1328" fill="#ADD1B2" rx="11" ry="11" style="stroke:#181818;stroke-width:1;"/><path d="M565.9688,559.7734 Q565.3906,560.0703 564.75,560.2109 Q564.1094,560.3672 563.4063,560.3672 Q560.9063,560.3672 559.5781,558.7266 Q558.2656,557.0703 558.2656,553.9453 Q558.2656,550.8203 559.5781,549.1641 Q560.9063,547.5078 563.4063,547.5078 Q564.1094,547.5078 564.75,547.6641 Q565.4063,547.8203 565.9688,548.1172 L565.9688,550.8359 Q565.3438,550.2578 564.75,549.9922 Q564.1563,549.7109 563.5313,549.7109 Q562.1875,549.7109 561.5,550.7891 Q560.8125,551.8516 560.8125,553.9453 Q560.8125,556.0391 561.5,557.1172 Q562.1875,558.1797 563.5313,558.1797 Q564.1563,558.1797 564.75,557.9141 Q565.3438,557.6328 565.9688,557.0547 L565.9688,559.7734 Z " fill="#000000"/><text fill="#000000" font-family="sans-serif" font-size="12" font-style="italic" lengthAdjust="spacing" textLength="62.6602" x="610.748" y="550.1387">«concept»</text><text fill="#000000" font-family="sans-serif" font-size="14" lengthAdjust="spacing" textLength="130.1563" x="577" y="565.9639">EndereçoDeColeta</text><line style="stroke:#181818;stroke-width:0.5;" x1="549" x2="709.1563" y1="574.2656" y2="574.2656"/><line style="stroke:#181818;stroke-width:0.5;" x1="549" x2="709.1563" y1="582.2656" y2="582.2656"/></g><!--class Endere?oDeFaturamento--><g id="elem_EndereçoDeFaturamento"><rect codeLine="8" fill="#F1F1F1" height="56.2656" id="EndereçoDeFaturamento" rx="2.5" ry="2.5" style="stroke:#181818;stroke-width:0.5;" width="207.752" x="745" y="534"/><ellipse cx="760" cy="554.1328" fill="#ADD1B2" rx="11" ry="11" style="stroke:#181818;stroke-width:1;"/><path d="M762.9688,559.7734 Q762.3906,560.0703 761.75,560.2109 Q761.1094,560.3672 760.4063,560.3672 Q757.9063,560.3672 756.5781,558.7266 Q755.2656,557.0703 755.2656,553.9453 Q755.2656,550.8203 756.5781,549.1641 Q757.9063,547.5078 760.4063,547.5078 Q761.1094,547.5078 761.75,547.6641 Q762.4063,547.8203 762.9688,548.1172 L762.9688,550.8359 Q762.3438,550.2578 761.75,549.9922 Q761.1563,549.7109 760.5313,549.7109 Q759.1875,549.7109 758.5,550.7891 Q757.8125,551.8516 757.8125,553.9453 Q757.8125,556.0391 758.5,557.1172 Q759.1875,558.1797 760.5313,558.1797 Q761.1563,558.1797 761.75,557.9141 Q762.3438,557.6328 762.9688,557.0547 L762.9688,559.7734 Z " fill="#000000"/><text fill="#000000" font-family="sans-serif" font-size="12" font-style="italic" lengthAdjust="spacing" textLength="62.6602" x="830.5459" y="550.1387">«concept»</text><text fill="#000000" font-family="sans-serif" font-size="14" lengthAdjust="spacing" textLength="175.752" x="774" y="565.9639">EndereçoDeFaturamento</text><line style="stroke:#181818;stroke-width:0.5;" x1="746" x2="951.752" y1="574.2656" y2="574.2656"/><line style="stroke:#181818;stroke-width:0.5;" x1="746" x2="951.752" y1="582.2656" y2="582.2656"/></g><!--class Comprador--><g id="elem_Comprador"><rect codeLine="10" fill="#F1F1F1" height="105.1563" id="Comprador" rx="2.5" ry="2.5" style="stroke:#181818;stroke-width:0.5;" width="110.4082" x="250" y="15"/><ellipse cx="265" cy="35.1328" fill="#ADD1B2" rx="11" ry="11" style="stroke:#181818;stroke-width:1;"/><path d="M267.9688,40.7734 Q267.3906,41.0703 266.75,41.2109 Q266.1094,41.3672 265.4063,41.3672 Q262.9063,41.3672 261.5781,39.7266 Q260.2656,38.0703 260.2656,34.9453 Q260.2656,31.8203 261.5781,30.1641 Q262.9063,28.5078 265.4063,28.5078 Q266.1094,28.5078 266.75,28.6641 Q267.4063,28.8203 267.9688,29.1172 L267.9688,31.8359 Q267.3438,31.2578 266.75,30.9922 Q266.1563,30.7109 265.5313,30.7109 Q264.1875,30.7109 263.5,31.7891 Q262.8125,32.8516 262.8125,34.9453 Q262.8125,37.0391 263.5,38.1172 Q264.1875,39.1797 265.5313,39.1797 Q266.1563,39.1797 266.75,38.9141 Q267.3438,38.6328 267.9688,38.0547 L267.9688,40.7734 Z " fill="#000000"/><text fill="#000000" font-family="sans-serif" font-size="12" font-style="italic" lengthAdjust="spacing" textLength="62.6602" x="286.874" y="31.1387">«concept»</text><text fill="#000000" font-family="sans-serif" font-size="14" lengthAdjust="spacing" textLength="78.4082" x="279" y="46.9639">Comprador</text><line style="stroke:#181818;stroke-width:0.5;" x1="251" x2="359.4082" y1="55.2656" y2="55.2656"/><text fill="#000000" font-family="sans-serif" font-size="14" lengthAdjust="spacing" textLength="41.2891" x="256" y="72.2607">Nome</text><text fill="#000000" font-family="sans-serif" font-size="14" lengthAdjust="spacing" textLength="38.8418" x="256" y="88.5576">Email</text><text fill="#000000" font-family="sans-serif" font-size="14" lengthAdjust="spacing" textLength="60.6484" x="256" y="104.8545">Telefone</text><line style="stroke:#181818;stroke-width:0.5;" x1="251" x2="359.4082" y1="112.1563" y2="112.1563"/></g><!--class Vendedor--><g id="elem_Vendedor"><rect codeLine="16" fill="#F1F1F1" height="105.1563" id="Vendedor" rx="2.5" ry="2.5" style="stroke:#181818;stroke-width:0.5;" width="99.7715" x="573" y="361"/><ellipse cx="588" cy="381.1328" fill="#ADD1B2" rx="11" ry="11" style="stroke:#181818;stroke-width:1;"/><path d="M590.9688,386.7734 Q590.3906,387.0703 589.75,387.2109 Q589.1094,387.3672 588.4063,387.3672 Q585.9063,387.3672 584.5781,385.7266 Q583.2656,384.0703 583.2656,380.9453 Q583.2656,377.8203 584.5781,376.1641 Q585.9063,374.5078 588.4063,374.5078 Q589.1094,374.5078 589.75,374.6641 Q590.4063,374.8203 590.9688,375.1172 L590.9688,377.8359 Q590.3438,377.2578 589.75,376.9922 Q589.1563,376.7109 588.5313,376.7109 Q587.1875,376.7109 586.5,377.7891 Q585.8125,378.8516 585.8125,380.9453 Q585.8125,383.0391 586.5,384.1172 Q587.1875,385.1797 588.5313,385.1797 Q589.1563,385.1797 589.75,384.9141 Q590.3438,384.6328 590.9688,384.0547 L590.9688,386.7734 Z " fill="#000000"/><text fill="#000000" font-family="sans-serif" font-size="12" font-style="italic" lengthAdjust="spacing" textLength="62.6602" x="604.5557" y="377.1387">«concept»</text><text fill="#000000" font-family="sans-serif" font-size="14" lengthAdjust="spacing" textLength="67.7715" x="602" y="392.9639">Vendedor</text><line style="stroke:#181818;stroke-width:0.5;" x1="574" x2="671.7715" y1="401.2656" y2="401.2656"/><text fill="#000000" font-family="sans-serif" font-size="14" lengthAdjust="spacing" textLength="41.2891" x="579" y="418.2607">Nome</text><text fill="#000000" font-family="sans-serif" font-size="14" lengthAdjust="spacing" textLength="38.8418" x="579" y="434.5576">Email</text><text fill="#000000" font-family="sans-serif" font-size="14" lengthAdjust="spacing" textLength="60.6484" x="579" y="450.8545">Telefone</text><line style="stroke:#181818;stroke-width:0.5;" x1="574" x2="671.7715" y1="458.1563" y2="458.1563"/></g><!--class Item--><g id="elem_Item"><rect codeLine="22" fill="#F1F1F1" height="105.1563" id="Item" rx="2.5" ry="2.5" style="stroke:#181818;stroke-width:0.5;" width="106.3633" x="426" y="361"/><ellipse cx="448.0664" cy="381.1328" fill="#ADD1B2" rx="11" ry="11" style="stroke:#181818;stroke-width:1;"/><path d="M451.0352,386.7734 Q450.457,387.0703 449.8164,387.2109 Q449.1758,387.3672 448.4727,387.3672 Q445.9727,387.3672 444.6445,385.7266 Q443.332,384.0703 443.332,380.9453 Q443.332,377.8203 444.6445,376.1641 Q445.9727,374.5078 448.4727,374.5078 Q449.1758,374.5078 449.8164,374.6641 Q450.4727,374.8203 451.0352,375.1172 L451.0352,377.8359 Q450.4102,377.2578 449.8164,376.9922 Q449.2227,376.7109 448.5977,376.7109 Q447.2539,376.7109 446.5664,377.7891 Q445.8789,378.8516 445.8789,380.9453 Q445.8789,383.0391 446.5664,384.1172 Q447.2539,385.1797 448.5977,385.1797 Q449.2227,385.1797 449.8164,384.9141 Q450.4102,384.6328 451.0352,384.0547 L451.0352,386.7734 Z " fill="#000000"/><text fill="#000000" font-family="sans-serif" font-size="12" font-style="italic" lengthAdjust="spacing" textLength="62.6602" x="461.6367" y="377.1387">«concept»</text><text fill="#000000" font-family="sans-serif" font-size="14" lengthAdjust="spacing" textLength="31.8691" x="477.0322" y="392.9639">Item</text><line style="stroke:#181818;stroke-width:0.5;" x1="427" x2="531.3633" y1="401.2656" y2="401.2656"/><text fill="#000000" font-family="sans-serif" font-size="14" lengthAdjust="spacing" textLength="94.3633" x="432" y="418.2607">PreçoUnitário</text><text fill="#000000" font-family="sans-serif" font-size="14" lengthAdjust="spacing" textLength="81.6895" x="432" y="434.5576">Quantidade</text><text fill="#000000" font-family="sans-serif" font-size="14" lengthAdjust="spacing" textLength="58.6592" x="432" y="450.8545">Subtotal</text><line style="stroke:#181818;stroke-width:0.5;" x1="427" x2="531.3633" y1="458.1563" y2="458.1563"/></g><!--class Carrinho--><g id="elem_Carrinho"><rect codeLine="28" fill="#F1F1F1" height="72.5625" id="Carrinho" rx="2.5" ry="2.5" style="stroke:#181818;stroke-width:0.5;" width="92.0674" x="433" y="204"/><ellipse cx="448" cy="224.1328" fill="#ADD1B2" rx="11" ry="11" style="stroke:#181818;stroke-width:1;"/><path d="M450.9688,229.7734 Q450.3906,230.0703 449.75,230.2109 Q449.1094,230.3672 448.4063,230.3672 Q445.9063,230.3672 444.5781,228.7266 Q443.2656,227.0703 443.2656,223.9453 Q443.2656,220.8203 444.5781,219.1641 Q445.9063,217.5078 448.4063,217.5078 Q449.1094,217.5078 449.75,217.6641 Q450.4063,217.8203 450.9688,218.1172 L450.9688,220.8359 Q450.3438,220.2578 449.75,219.9922 Q449.1563,219.7109 448.5313,219.7109 Q447.1875,219.7109 446.5,220.7891 Q445.8125,221.8516 445.8125,223.9453 Q445.8125,226.0391 446.5,227.1172 Q447.1875,228.1797 448.5313,228.1797 Q449.1563,228.1797 449.75,227.9141 Q450.3438,227.6328 450.9688,227.0547 L450.9688,229.7734 Z " fill="#000000"/><text fill="#000000" font-family="sans-serif" font-size="12" font-style="italic" lengthAdjust="spacing" textLength="62.6602" x="460.7036" y="220.1387">«concept»</text><text fill="#000000" font-family="sans-serif" font-size="14" lengthAdjust="spacing" textLength="60.0674" x="462" y="235.9639">Carrinho</text><line style="stroke:#181818;stroke-width:0.5;" x1="434" x2="524.0674" y1="244.2656" y2="244.2656"/><text fill="#000000" font-family="sans-serif" font-size="14" lengthAdjust="spacing" textLength="71.4424" x="439" y="261.2607">ValorTotal</text><line style="stroke:#181818;stroke-width:0.5;" x1="434" x2="524.0674" y1="268.5625" y2="268.5625"/></g><!--class ResumoDoCarrinho--><g id="elem_ResumoDoCarrinho"><rect codeLine="32" fill="#F1F1F1" height="88.8594" id="ResumoDoCarrinho" rx="2.5" ry="2.5" style="stroke:#181818;stroke-width:0.5;" width="168.124" x="395" y="23"/><ellipse cx="410" cy="43.1328" fill="#ADD1B2" rx="11" ry="11" style="stroke:#181818;stroke-width:1;"/><path d="M412.9688,48.7734 Q412.3906,49.0703 411.75,49.2109 Q411.1094,49.3672 410.4063,49.3672 Q407.9063,49.3672 406.5781,47.7266 Q405.2656,46.0703 405.2656,42.9453 Q405.2656,39.8203 406.5781,38.1641 Q407.9063,36.5078 410.4063,36.5078 Q411.1094,36.5078 411.75,36.6641 Q412.4063,36.8203 412.9688,37.1172 L412.9688,39.8359 Q412.3438,39.2578 411.75,38.9922 Q411.1563,38.7109 410.5313,38.7109 Q409.1875,38.7109 408.5,39.7891 Q407.8125,40.8516 407.8125,42.9453 Q407.8125,45.0391 408.5,46.1172 Q409.1875,47.1797 410.5313,47.1797 Q411.1563,47.1797 411.75,46.9141 Q412.3438,46.6328 412.9688,46.0547 L412.9688,48.7734 Z " fill="#000000"/><text fill="#000000" font-family="sans-serif" font-size="12" font-style="italic" lengthAdjust="spacing" textLength="62.6602" x="460.7319" y="39.1387">«concept»</text><text fill="#000000" font-family="sans-serif" font-size="14" lengthAdjust="spacing" textLength="136.124" x="424" y="54.9639">ResumoDoCarrinho</text><line style="stroke:#181818;stroke-width:0.5;" x1="396" x2="562.124" y1="63.2656" y2="63.2656"/><text fill="#000000" font-family="sans-serif" font-size="14" lengthAdjust="spacing" textLength="109.71" x="401" y="80.2607">NúmeroDeItens</text><text fill="#000000" font-family="sans-serif" font-size="14" lengthAdjust="spacing" textLength="71.4424" x="401" y="96.5576">ValorTotal</text><line style="stroke:#181818;stroke-width:0.5;" x1="396" x2="562.124" y1="103.8594" y2="103.8594"/></g><!--class Pedido--><g id="elem_Pedido"><rect codeLine="37" fill="#F1F1F1" height="105.1563" id="Pedido" rx="2.5" ry="2.5" style="stroke:#181818;stroke-width:0.5;" width="112.0576" x="734" y="188"/><ellipse cx="758.6289" cy="208.1328" fill="#ADD1B2" rx="11" ry="11" style="stroke:#181818;stroke-width:1;"/><path d="M761.5976,213.7734 Q761.0195,214.0703 760.3789,214.2109 Q759.7382,214.3672 759.0351,214.3672 Q756.5351,214.3672 755.207,212.7266 Q753.8945,211.0703 753.8945,207.9453 Q753.8945,204.8203 755.207,203.1641 Q756.5351,201.5078 759.0351,201.5078 Q759.7382,201.5078 760.3789,201.6641 Q761.0351,201.8203 761.5976,202.1172 L761.5976,204.8359 Q760.9726,204.2578 760.3789,203.9922 Q759.7851,203.7109 759.1601,203.7109 Q757.8164,203.7109 757.1289,204.7891 Q756.4414,205.8516 756.4414,207.9453 Q756.4414,210.0391 757.1289,211.1172 Q757.8164,212.1797 759.1601,212.1797 Q759.7851,212.1797 760.3789,211.9141 Q760.9726,211.6328 761.5976,211.0547 L761.5976,213.7734 Z " fill="#000000"/><text fill="#000000" font-family="sans-serif" font-size="12" font-style="italic" lengthAdjust="spacing" textLength="62.6602" x="772.7686" y="204.1387">«concept»</text><text fill="#000000" font-family="sans-serif" font-size="14" lengthAdjust="spacing" textLength="47.2842" x="780.4566" y="219.9639">Pedido</text><line style="stroke:#181818;stroke-width:0.5;" x1="735" x2="845.0576" y1="228.2656" y2="228.2656"/><text fill="#000000" font-family="sans-serif" font-size="14" lengthAdjust="spacing" textLength="71.4424" x="740" y="245.2607">ValorTotal</text><text fill="#000000" font-family="sans-serif" font-size="14" lengthAdjust="spacing" textLength="44.6113" x="740" y="261.5576">Status</text><text fill="#000000" font-family="sans-serif" font-size="14" lengthAdjust="spacing" textLength="100.0576" x="740" y="277.8545">DataDoPedido</text><line style="stroke:#181818;stroke-width:0.5;" x1="735" x2="845.0576" y1="285.1563" y2="285.1563"/></g><!--class ResumoDoPedido--><g id="elem_ResumoDoPedido"><rect codeLine="43" fill="#F1F1F1" height="121.4531" id="ResumoDoPedido" rx="2.5" ry="2.5" style="stroke:#181818;stroke-width:0.5;" width="155.3408" x="655.5" y="7"/><ellipse cx="670.5" cy="27.1328" fill="#ADD1B2" rx="11" ry="11" style="stroke:#181818;stroke-width:1;"/><path d="M673.4688,32.7734 Q672.8906,33.0703 672.25,33.2109 Q671.6094,33.3672 670.9063,33.3672 Q668.4063,33.3672 667.0781,31.7266 Q665.7656,30.0703 665.7656,26.9453 Q665.7656,23.8203 667.0781,22.1641 Q668.4063,20.5078 670.9063,20.5078 Q671.6094,20.5078 672.25,20.6641 Q672.9063,20.8203 673.4688,21.1172 L673.4688,23.8359 Q672.8438,23.2578 672.25,22.9922 Q671.6563,22.7109 671.0313,22.7109 Q669.6875,22.7109 669,23.7891 Q668.3125,24.8516 668.3125,26.9453 Q668.3125,29.0391 669,30.1172 Q669.6875,31.1797 671.0313,31.1797 Q671.6563,31.1797 672.25,30.9141 Q672.8438,30.6328 673.4688,30.0547 L673.4688,32.7734 Z " fill="#000000"/><text fill="#000000" font-family="sans-serif" font-size="12" font-style="italic" lengthAdjust="spacing" textLength="62.6602" x="714.8403" y="23.1387">«concept»</text><text fill="#000000" font-family="sans-serif" font-size="14" lengthAdjust="spacing" textLength="123.3408" x="684.5" y="38.9639">ResumoDoPedido</text><line style="stroke:#181818;stroke-width:0.5;" x1="656.5" x2="809.8408" y1="47.2656" y2="47.2656"/><text fill="#000000" font-family="sans-serif" font-size="14" lengthAdjust="spacing" textLength="95.8535" x="661.5" y="64.2607">CódigoPedido</text><text fill="#000000" font-family="sans-serif" font-size="14" lengthAdjust="spacing" textLength="71.4424" x="661.5" y="80.5576">ValorTotal</text><text fill="#000000" font-family="sans-serif" font-size="14" lengthAdjust="spacing" textLength="44.6113" x="661.5" y="96.8545">Status</text><text fill="#000000" font-family="sans-serif" font-size="14" lengthAdjust="spacing" textLength="100.0576" x="661.5" y="113.1514">DataDoPedido</text><line style="stroke:#181818;stroke-width:0.5;" x1="656.5" x2="809.8408" y1="120.4531" y2="120.4531"/></g><!--class Pagamento--><g id="elem_Pagamento"><rect codeLine="50" fill="#F1F1F1" height="121.4531" id="Pagamento" rx="2.5" ry="2.5" style="stroke:#181818;stroke-width:0.5;" width="163.2588" x="708.5" y="353"/><ellipse cx="746.7167" cy="373.1328" fill="#ADD1B2" rx="11" ry="11" style="stroke:#181818;stroke-width:1;"/><path d="M749.6855,378.7734 Q749.1074,379.0703 748.4667,379.2109 Q747.8261,379.3672 747.123,379.3672 Q744.623,379.3672 743.2949,377.7266 Q741.9824,376.0703 741.9824,372.9453 Q741.9824,369.8203 743.2949,368.1641 Q744.623,366.5078 747.123,366.5078 Q747.8261,366.5078 748.4667,366.6641 Q749.123,366.8203 749.6855,367.1172 L749.6855,369.8359 Q749.0605,369.2578 748.4667,368.9922 Q747.873,368.7109 747.248,368.7109 Q745.9042,368.7109 745.2167,369.7891 Q744.5292,370.8516 744.5292,372.9453 Q744.5292,375.0391 745.2167,376.1172 Q745.9042,377.1797 747.248,377.1797 Q747.873,377.1797 748.4667,376.9141 Q749.0605,376.6328 749.6855,376.0547 L749.6855,378.7734 Z " fill="#000000"/><text fill="#000000" font-family="sans-serif" font-size="12" font-style="italic" lengthAdjust="spacing" textLength="62.6602" x="774.379" y="369.1387">«concept»</text><text fill="#000000" font-family="sans-serif" font-size="14" lengthAdjust="spacing" textLength="79.666" x="765.876" y="384.9639">Pagamento</text><line style="stroke:#181818;stroke-width:0.5;" x1="709.5" x2="870.7588" y1="393.2656" y2="393.2656"/><text fill="#000000" font-family="sans-serif" font-size="14" lengthAdjust="spacing" textLength="70.8408" x="714.5" y="410.2607">ValorPago</text><text fill="#000000" font-family="sans-serif" font-size="14" lengthAdjust="spacing" textLength="132.4873" x="714.5" y="426.5576">DataDePagamento</text><text fill="#000000" font-family="sans-serif" font-size="14" lengthAdjust="spacing" textLength="151.2588" x="714.5" y="442.8545">MétodoDePagamento</text><text fill="#000000" font-family="sans-serif" font-size="14" lengthAdjust="spacing" textLength="44.6113" x="714.5" y="459.1514">Status</text><line style="stroke:#181818;stroke-width:0.5;" x1="709.5" x2="870.7588" y1="466.4531" y2="466.4531"/></g><!--class Frete--><g id="elem_Frete"><rect codeLine="57" fill="#F1F1F1" height="105.1563" id="Frete" rx="2.5" ry="2.5" style="stroke:#181818;stroke-width:0.5;" width="125.1279" x="906.5" y="361"/><ellipse cx="937.0105" cy="381.1328" fill="#ADD1B2" rx="11" ry="11" style="stroke:#181818;stroke-width:1;"/><path d="M939.9792,386.7734 Q939.4011,387.0703 938.7605,387.2109 Q938.1199,387.3672 937.4167,387.3672 Q934.9167,387.3672 933.5886,385.7266 Q932.2761,384.0703 932.2761,380.9453 Q932.2761,377.8203 933.5886,376.1641 Q934.9167,374.5078 937.4167,374.5078 Q938.1199,374.5078 938.7605,374.6641 Q939.4167,374.8203 939.9792,375.1172 L939.9792,377.8359 Q939.3542,377.2578 938.7605,376.9922 Q938.1667,376.7109 937.5417,376.7109 Q936.198,376.7109 935.5105,377.7891 Q934.823,378.8516 934.823,380.9453 Q934.823,383.0391 935.5105,384.1172 Q936.198,385.1797 937.5417,385.1797 Q938.1667,385.1797 938.7605,384.9141 Q939.3542,384.6328 939.9792,384.0547 L939.9792,386.7734 Z " fill="#000000"/><text fill="#000000" font-family="sans-serif" font-size="12" font-style="italic" lengthAdjust="spacing" textLength="62.6602" x="952.4573" y="377.1387">«concept»</text><text fill="#000000" font-family="sans-serif" font-size="14" lengthAdjust="spacing" textLength="36.5244" x="965.5251" y="392.9639">Frete</text><line style="stroke:#181818;stroke-width:0.5;" x1="907.5" x2="1030.6279" y1="401.2656" y2="401.2656"/><text fill="#000000" font-family="sans-serif" font-size="14" lengthAdjust="spacing" textLength="36.3672" x="912.5" y="418.2607">Valor</text><text fill="#000000" font-family="sans-serif" font-size="14" lengthAdjust="spacing" textLength="113.1279" x="912.5" y="434.5576">PrazoDeEntrega</text><text fill="#000000" font-family="sans-serif" font-size="14" lengthAdjust="spacing" textLength="108.1172" x="912.5" y="450.8545">Transportadora</text><line style="stroke:#181818;stroke-width:0.5;" x1="907.5" x2="1030.6279" y1="458.1563" y2="458.1563"/></g><!--class CategoriaDeProduto--><g id="elem_CategoriaDeProduto"><rect codeLine="63" fill="#F1F1F1" height="88.8594" id="CategoriaDeProduto" rx="2.5" ry="2.5" style="stroke:#181818;stroke-width:0.5;" width="174.1055" x="470" y="650"/><ellipse cx="485" cy="670.1328" fill="#ADD1B2" rx="11" ry="11" style="stroke:#181818;stroke-width:1;"/><path d="M487.9688,675.7734 Q487.3906,676.0703 486.75,676.2109 Q486.1094,676.3672 485.4063,676.3672 Q482.9063,676.3672 481.5781,674.7266 Q480.2656,673.0703 480.2656,669.9453 Q480.2656,666.8203 481.5781,665.1641 Q482.9063,663.5078 485.4063,663.5078 Q486.1094,663.5078 486.75,663.6641 Q487.4063,663.8203 487.9688,664.1172 L487.9688,666.8359 Q487.3438,666.2578 486.75,665.9922 Q486.1563,665.7109 485.5313,665.7109 Q484.1875,665.7109 483.5,666.7891 Q482.8125,667.8516 482.8125,669.9453 Q482.8125,672.0391 483.5,673.1172 Q484.1875,674.1797 485.5313,674.1797 Q486.1563,674.1797 486.75,673.9141 Q487.3438,673.6328 487.9688,673.0547 L487.9688,675.7734 Z " fill="#000000"/><text fill="#000000" font-family="sans-serif" font-size="12" font-style="italic" lengthAdjust="spacing" textLength="62.6602" x="538.7227" y="666.1387">«concept»</text><text fill="#000000" font-family="sans-serif" font-size="14" lengthAdjust="spacing" textLength="142.1055" x="499" y="681.9639">CategoriaDeProduto</text><line style="stroke:#181818;stroke-width:0.5;" x1="471" x2="643.1055" y1="690.2656" y2="690.2656"/><text fill="#000000" font-family="sans-serif" font-size="14" lengthAdjust="spacing" textLength="41.2891" x="476" y="707.2607">Nome</text><text fill="#000000" font-family="sans-serif" font-size="14" lengthAdjust="spacing" textLength="68.8721" x="476" y="723.5576">Descrição</text><line style="stroke:#181818;stroke-width:0.5;" x1="471" x2="643.1055" y1="730.8594" y2="730.8594"/></g><!--class Cupom--><g id="elem_Cupom"><rect codeLine="68" fill="#F1F1F1" height="56.2656" id="Cupom" rx="2.5" ry="2.5" style="stroke:#181818;stroke-width:0.5;" width="90.6602" x="845.5" y="39.5"/><ellipse cx="860.5" cy="59.6328" fill="#ADD1B2" rx="11" ry="11" style="stroke:#181818;stroke-width:1;"/><path d="M863.4688,65.2734 Q862.8906,65.5703 862.25,65.7109 Q861.6094,65.8672 860.9063,65.8672 Q858.4063,65.8672 857.0781,64.2266 Q855.7656,62.5703 855.7656,59.4453 Q855.7656,56.3203 857.0781,54.6641 Q858.4063,53.0078 860.9063,53.0078 Q861.6094,53.0078 862.25,53.1641 Q862.9063,53.3203 863.4688,53.6172 L863.4688,56.3359 Q862.8438,55.7578 862.25,55.4922 Q861.6563,55.2109 861.0313,55.2109 Q859.6875,55.2109 859,56.2891 Q858.3125,57.3516 858.3125,59.4453 Q858.3125,61.5391 859,62.6172 Q859.6875,63.6797 861.0313,63.6797 Q861.6563,63.6797 862.25,63.4141 Q862.8438,63.1328 863.4688,62.5547 L863.4688,65.2734 Z " fill="#000000"/><text fill="#000000" font-family="sans-serif" font-size="12" font-style="italic" lengthAdjust="spacing" textLength="62.6602" x="872.5" y="55.6387">«concept»</text><text fill="#000000" font-family="sans-serif" font-size="14" lengthAdjust="spacing" textLength="49.7383" x="878.9609" y="71.4639">Cupom</text><line style="stroke:#181818;stroke-width:0.5;" x1="846.5" x2="935.1602" y1="79.7656" y2="79.7656"/><line style="stroke:#181818;stroke-width:0.5;" x1="846.5" x2="935.1602" y1="87.7656" y2="87.7656"/></g><!--reverse link Produto to Embalagem--><g id="link_Produto_Embalagem"><path d="M438.1345,604.8604 C422.6945,627.2604 411.06,644.11 395.62,666.49 " fill="none" id="Produto-backto-Embalagem" style="stroke:#181818;stroke-width:1;"/><polygon fill="none" points="448.35,590.04,433.1944,601.4552,443.0746,608.2655,448.35,590.04" style="stroke:#181818;stroke-width:1;"/></g><!--link Cupom to Pedido--><g id="link_Cupom_Pedido"><path codeLine="70" d="M875,95.6 C860.42,120.27 838.51,157.37 820.58,187.72 " fill="none" id="Cupom-Pedido" style="stroke:#181818;stroke-width:1;"/><text fill="#000000" font-family="sans-serif" font-size="13" lengthAdjust="spacing" textLength="8.271" x="862.4456" y="115.884">1</text><text fill="#000000" font-family="sans-serif" font-size="13" lengthAdjust="spacing" textLength="8.271" x="815.9992" y="177.062">1</text></g><!--reverse link Comprador to Carrinho--><g id="link_Comprador_Carrinho"><path codeLine="72" d="M366.2381,128.6818 C393.7381,155.7118 418.14,179.69 442.76,203.89 " fill="none" id="Comprador-backto-Carrinho" style="stroke:#181818;stroke-width:1;"/><polygon fill="none" points="357.68,120.27,359.1551,127.3286,366.2381,128.6818,364.763,121.6232,357.68,120.27" style="stroke:#181818;stroke-width:1;"/><text fill="#000000" font-family="sans-serif" font-size="13" lengthAdjust="spacing" textLength="8.271" x="355.9083" y="140.0575">1</text><text fill="#000000" font-family="sans-serif" font-size="13" lengthAdjust="spacing" textLength="8.271" x="427.3595" y="192.8767">1</text></g><!--reverse link Carrinho to Item--><g id="link_Carrinho_Item"><path codeLine="73" d="M479,289.35 C479,313.54 479,333.84 479,360.8 " fill="none" id="Carrinho-backto-Item" style="stroke:#181818;stroke-width:1;"/><polygon fill="none" points="479,277.35,475,283.35,479,289.35,483,283.35,479,277.35" style="stroke:#181818;stroke-width:1;"/><text fill="#000000" font-family="sans-serif" font-size="13" lengthAdjust="spacing" textLength="8.271" x="470.3787" y="296.5306">1</text><text fill="#000000" font-family="sans-serif" font-size="13" lengthAdjust="spacing" textLength="24.7749" x="453.4152" y="349.7759">0..n</text></g><!--reverse link Pedido to Item--><g id="link_Pedido_Item"><path codeLine="74" d="M722.5264,268.7373 C673.7464,289.2273 613.2,317.03 555,353 C547.45,357.67 539.76,362.96 532.33,368.4 " fill="none" id="Pedido-backto-Item" style="stroke:#181818;stroke-width:1;"/><polygon fill="none" points="733.59,264.09,726.5091,262.7258,722.5264,268.7373,729.6073,270.1015,733.59,264.09" style="stroke:#181818;stroke-width:1;"/><text fill="#000000" font-family="sans-serif" font-size="13" lengthAdjust="spacing" textLength="8.271" x="717.8636" y="263.2169">1</text><text fill="#000000" font-family="sans-serif" font-size="13" lengthAdjust="spacing" textLength="24.7749" x="540.3172" y="359.0548">0..n</text></g><!--link Pedido to Pagamento--><g id="link_Pedido_Pagamento"><path codeLine="75" d="M790,293.27 C790,312.05 790,333.4 790,352.81 " fill="none" id="Pedido-Pagamento" style="stroke:#181818;stroke-width:1;"/><text fill="#000000" font-family="sans-serif" font-size="13" lengthAdjust="spacing" textLength="8.271" x="781.5012" y="313.0575">1</text><text fill="#000000" font-family="sans-serif" font-size="13" lengthAdjust="spacing" textLength="8.271" x="781.5382" y="341.9739">1</text></g><!--reverse link Pedido to Frete--><g id="link_Pedido_Frete"><path codeLine="76" d="M852.8665,301.5597 C875.2965,322.9897 892.58,339.5 914.99,360.91 " fill="none" id="Pedido-backto-Frete" style="stroke:#181818;stroke-width:1;"/><polygon fill="none" points="844.19,293.27,845.765,300.307,852.8665,301.5597,851.2915,294.5227,844.19,293.27" style="stroke:#181818;stroke-width:1;"/><text fill="#000000" font-family="sans-serif" font-size="13" lengthAdjust="spacing" textLength="8.271" x="842.6343" y="313.0575">1</text><text fill="#000000" font-family="sans-serif" font-size="13" lengthAdjust="spacing" textLength="8.271" x="899.2045" y="349.9007">1</text></g><!--reverse link Item to Produto--><g id="link_Item_Produto"><path codeLine="77" d="M473.7917,478.1101 C471.9317,500.8501 470.79,514.67 469.24,533.61 " fill="none" id="Item-backto-Produto" style="stroke:#181818;stroke-width:1;"/><polygon fill="none" points="474.77,466.15,470.2942,471.8039,473.7917,478.1101,478.2676,472.4561,474.77,466.15" style="stroke:#181818;stroke-width:1;"/><text fill="#000000" font-family="sans-serif" font-size="13" lengthAdjust="spacing" textLength="8.271" x="465.6579" y="486.298">1</text><text fill="#000000" font-family="sans-serif" font-size="13" lengthAdjust="spacing" textLength="8.271" x="460.9218" y="522.8114">1</text></g><!--link ResumoDoCarrinho to Carrinho--><g id="link_ResumoDoCarrinho_Carrinho"><path codeLine="79" d="M479,112.09 C479,140.49 479,165.09 479,191.76 " fill="none" id="ResumoDoCarrinho-to-Carrinho" style="stroke:#181818;stroke-width:1;"/><polygon fill="none" points="479,203.76,483,197.76,479,191.76,475,197.76,479,203.76" style="stroke:#181818;stroke-width:1;"/><text fill="#000000" font-family="sans-serif" font-size="13" lengthAdjust="spacing" textLength="8.271" x="470.4233" y="131.8277">1</text><text fill="#000000" font-family="sans-serif" font-size="13" lengthAdjust="spacing" textLength="8.271" x="470.3056" y="192.9974">1</text></g><!--link ResumoDoPedido to Pedido--><g id="link_ResumoDoPedido_Pedido"><path codeLine="81" d="M752.94,128.31 C759.42,147.76 762.7689,157.7846 769.0289,176.5846 " fill="none" id="ResumoDoPedido-to-Pedido" style="stroke:#181818;stroke-width:1;"/><polygon fill="none" points="772.82,187.97,774.7196,181.0136,769.0289,176.5846,767.1293,183.541,772.82,187.97" style="stroke:#181818;stroke-width:1;"/><text fill="#000000" font-family="sans-serif" font-size="13" lengthAdjust="spacing" textLength="8.271" x="746.8784" y="148.6827">1</text><text fill="#000000" font-family="sans-serif" font-size="13" lengthAdjust="spacing" textLength="8.271" x="761.9883" y="176.9688">1</text></g><!--reverse link Comprador to Endere?oDeEntrega--><g id="link_Comprador_EndereçoDeEntrega"><path codeLine="83" d="M240.5103,120.5145 C201.5003,151.9845 159.78,185.63 126.69,212.33 " fill="none" id="Comprador-backto-EndereçoDeEntrega" style="stroke:#181818;stroke-width:1;"/><polygon fill="none" points="249.85,112.98,242.6686,113.634,240.5103,120.5145,247.6916,119.8605,249.85,112.98" style="stroke:#181818;stroke-width:1;"/><text fill="#000000" font-family="sans-serif" font-size="13" lengthAdjust="spacing" textLength="8.271" x="233.8925" y="115.1489">1</text><text fill="#000000" font-family="sans-serif" font-size="13" lengthAdjust="spacing" textLength="24.8066" x="107.4915" y="201.5796">1..3</text></g><!--reverse link Comprador to Endere?oDeCobran?a--><g id="link_Comprador_EndereçoDeCobrança"><path codeLine="84" d="M305.3713,132.2698 C305.5513,162.5498 305.7,187.54 305.84,212.22 " fill="none" id="Comprador-backto-EndereçoDeCobrança" style="stroke:#181818;stroke-width:1;"/><polygon fill="none" points="305.3,120.27,301.3357,126.2937,305.3713,132.2698,309.3356,126.2461,305.3,120.27" style="stroke:#181818;stroke-width:1;"/><text fill="#000000" font-family="sans-serif" font-size="13" lengthAdjust="spacing" textLength="8.271" x="296.8171" y="140.0575">1</text><text fill="#000000" font-family="sans-serif" font-size="13" lengthAdjust="spacing" textLength="8.271" x="296.9644" y="201.4455">1</text></g><!--link Produto to CategoriaDeProduto--><g id="link_Produto_CategoriaDeProduto"><path codeLine="86" d="M485.65,590.04 C497.54,607.29 509.8244,625.0902 523.4544,644.8602 " fill="none" id="Produto-to-CategoriaDeProduto" style="stroke:#181818;stroke-width:1;"/><polygon fill="#181818" points="526.86,649.8,525.0447,640.1199,524.022,645.6835,518.4583,644.6607,526.86,649.8" style="stroke:#181818;stroke-width:1;"/><text fill="#000000" font-family="sans-serif" font-size="13" lengthAdjust="spacing" textLength="8.271" x="481.1084" y="610.3102">1</text><text fill="#000000" font-family="sans-serif" font-size="13" lengthAdjust="spacing" textLength="8.271" x="513.645" y="638.8947">1</text></g><!--reverse link Vendedor to Produto--><g id="link_Vendedor_Produto"><path codeLine="88" d="M564.0343,469.8766 C538.7443,493.6366 517.71,513.38 496.2,533.58 " fill="none" id="Vendedor-backto-Produto" style="stroke:#181818;stroke-width:1;"/><polygon fill="none" points="572.78,461.66,565.6683,462.8531,564.0343,469.8766,571.146,468.6835,572.78,461.66" style="stroke:#181818;stroke-width:1;"/><text fill="#000000" font-family="sans-serif" font-size="13" lengthAdjust="spacing" textLength="8.271" x="556.8531" y="464.6971">1</text><text fill="#000000" font-family="sans-serif" font-size="13" lengthAdjust="spacing" textLength="24.7749" x="476.0844" y="522.7749">1..n</text></g><!--reverse link Vendedor to Endere?oDeColeta--><g id="link_Vendedor_EndereçoDeColeta"><path codeLine="89" d="M625.6104,478.14 C626.5404,500.88 627.1,514.67 627.88,533.61 " fill="none" id="Vendedor-backto-EndereçoDeColeta" style="stroke:#181818;stroke-width:1;"/><polygon fill="none" points="625.12,466.15,621.3685,472.3084,625.6104,478.14,629.3618,471.9815,625.12,466.15" style="stroke:#181818;stroke-width:1;"/><text fill="#000000" font-family="sans-serif" font-size="13" lengthAdjust="spacing" textLength="8.271" x="616.9009" y="486.298">1</text><text fill="#000000" font-family="sans-serif" font-size="13" lengthAdjust="spacing" textLength="24.8066" x="601.0811" y="522.8114">1..3</text></g><!--reverse link Vendedor to Endere?oDeFaturamento--><g id="link_Vendedor_EndereçoDeFaturamento"><path codeLine="90" d="M682.6029,468.113 C688.4429,472.833 685.09,469.86 691,474 C723.32,496.64 762.1,518.07 793.15,533.99 " fill="none" id="Vendedor-backto-EndereçoDeFaturamento" style="stroke:#181818;stroke-width:1;"/><polygon fill="none" points="673.27,460.57,675.4221,467.4525,682.6029,468.113,680.4508,461.2305,673.27,460.57" style="stroke:#181818;stroke-width:1;"/><text fill="#000000" font-family="sans-serif" font-size="13" lengthAdjust="spacing" textLength="8.271" x="680.9368" y="463.1998">1</text><text fill="#000000" font-family="sans-serif" font-size="13" lengthAdjust="spacing" textLength="8.271" x="771.3697" y="522.8299">1</text></g><!--SRC=[dLGzRzj03DtlLmZQOxJ86dYH7A130oTDizCwLZr0EXeK1HG9ycE23aRdRbtrnthwEacM5AET3Y3v7h_U4Gw5C2GI91aKHR1dqgLGS7EJa4tmADkjKgrhbnyWWnJpiJF07u9MUw0FjXePgnF5kBF2cCA4SXOKqO71LgUBOHdAXPXRa98XHxlSHaJvaK4JJzfuKK5mHpcwPvU3oTpxY1b-8ulgjOS-kKxnlv2Vv6niDMhV5FpL6gdUs92pt9TWnMZGDTkNyY0aa0qi4J0R-vrcJ4-G4JzEWn-mA7EAQHLqL_t9aTt0N76sM67PepRwtOIkK74JhmbY48YfXSmBMQ6Agj_Qf3tgtwZtaCuNFHJetDHZqSSwo-Vgbv2cgR7BvSbl6GMNYPlbmVCWxdhfJh_5aLXgRS5uQO8fiQbBc7-kiNnYB18srQdwEMenAeyqbOvIhIty60PNLytJpKKDsgwjr7bx1IWl1U_ziDdOi56dwjPpmTKdz7CxXxct6Png93ys-minKsPBJDDYrPbkna7lzRlPN8SBvsTbDaidIAb-KMtERLVO-HwLyWTXdDuEhIxwhyFvHLkA35UEsby0]--></g></svg>